ISO-10303-21;
HEADER;
FILE_DESCRIPTION(('STEP AP242'),'1');
FILE_NAME('1-1437561-2.stp','2026-09-23T06:50:46',('TraceParts'),('TraceParts S.A.S.'),'Spatial InterOp 3D',' ',' ');
FILE_SCHEMA(('AP242_MANAGED_MODEL_BASED_3D_ENGINEERING_MIM_LF  {1 0 10303 442 1 1 4}'));
ENDSEC;
DATA;
#1=PRODUCT_DEFINITION_CONTEXT('',#9,'design');
#2=APPLICATION_PROTOCOL_DEFINITION('INTERNATIONAL STANDARD','ap242_managed_model_based_3d_engineering',2014,#9);
#3=PRODUCT_CATEGORY_RELATIONSHIP('NONE','NONE',#10,#11);
#4=SHAPE_DEFINITION_REPRESENTATION(#12,#13);
#5= (GEOMETRIC_REPRESENTATION_CONTEXT(3)GLOBAL_UNCERTAINTY_ASSIGNED_CONTEXT((#16))GLOBAL_UNIT_ASSIGNED_CONTEXT((#18,#19,#20))REPRESENTATION_CONTEXT('NONE','WORKSPACE'));
#9=APPLICATION_CONTEXT('managed model based 3d engineering');
#10=PRODUCT_CATEGORY('part','NONE');
#11=PRODUCT_RELATED_PRODUCT_CATEGORY('detail',' ',(#22));
#12=PRODUCT_DEFINITION_SHAPE('NONE','NONE',#23);
#13=ADVANCED_BREP_SHAPE_REPRESENTATION('1',(#24,#25),#5);
#16=UNCERTAINTY_MEASURE_WITH_UNIT(LENGTH_MEASURE(1.0E-06),#18,'','');
#18= (CONVERSION_BASED_UNIT('MILLIMETRE',#28)LENGTH_UNIT()NAMED_UNIT(#31));
#19= (NAMED_UNIT(#33)PLANE_ANGLE_UNIT()SI_UNIT($,.RADIAN.));
#20= (NAMED_UNIT(#33)SOLID_ANGLE_UNIT()SI_UNIT($,.STERADIAN.));
#22=PRODUCT('1','','PART--DESC',(#39));
#23=PRODUCT_DEFINITION('','NONE',#40,#1);
#24=MANIFOLD_SOLID_BREP('1',#41);
#25=AXIS2_PLACEMENT_3D('',#42,#43,#44);
#28=LENGTH_MEASURE_WITH_UNIT(LENGTH_MEASURE(1.0),#45);
#31=DIMENSIONAL_EXPONENTS(1.0,0.0,0.0,0.0,0.0,0.0,0.0);
#33=DIMENSIONAL_EXPONENTS(0.0,0.0,0.0,0.0,0.0,0.0,0.0);
#39=PRODUCT_CONTEXT('',#9,'mechanical');
#40=PRODUCT_DEFINITION_FORMATION_WITH_SPECIFIED_SOURCE(' ','NONE',#22,.NOT_KNOWN.);
#41=CLOSED_SHELL('',(#46,#47,#48,#49,#50,#51,#52,#53,#54,#55,#56,#57,#58,#59,#60,#61,#62,#63,#64,#65,#66,#67,#68,#69,#70,#71));
#42=CARTESIAN_POINT('',(0.0,0.0,0.0));
#43=DIRECTION('',(0.0,0.0,1.0));
#44=DIRECTION('',(1.0,0.0,0.0));
#45= (NAMED_UNIT(#31)LENGTH_UNIT()SI_UNIT(.MILLI.,.METRE.));
#46=ADVANCED_FACE('',(#73),#74,.T.);
#47=ADVANCED_FACE('',(#75),#76,.T.);
#48=ADVANCED_FACE('',(#77),#78,.T.);
#49=ADVANCED_FACE('',(#79),#80,.T.);
#50=ADVANCED_FACE('',(#81,#82),#83,.T.);
#51=ADVANCED_FACE('',(#84),#85,.F.);
#52=ADVANCED_FACE('',(#86),#87,.F.);
#53=ADVANCED_FACE('',(#88,#89),#90,.F.);
#54=ADVANCED_FACE('',(#91),#92,.T.);
#55=ADVANCED_FACE('',(#93),#94,.T.);
#56=ADVANCED_FACE('',(#95),#96,.T.);
#57=ADVANCED_FACE('',(#97),#98,.T.);
#58=ADVANCED_FACE('',(#99),#100,.T.);
#59=ADVANCED_FACE('',(#101),#102,.T.);
#60=ADVANCED_FACE('',(#103),#104,.T.);
#61=ADVANCED_FACE('',(#105),#106,.T.);
#62=ADVANCED_FACE('',(#107),#108,.T.);
#63=ADVANCED_FACE('',(#109),#110,.T.);
#64=ADVANCED_FACE('',(#111),#112,.T.);
#65=ADVANCED_FACE('',(#113),#114,.T.);
#66=ADVANCED_FACE('',(#115),#116,.T.);
#67=ADVANCED_FACE('',(#117),#118,.T.);
#68=ADVANCED_FACE('',(#119),#120,.T.);
#69=ADVANCED_FACE('',(#121),#122,.T.);
#70=ADVANCED_FACE('',(#123),#124,.T.);
#71=ADVANCED_FACE('',(#125),#126,.T.);
#73=FACE_OUTER_BOUND('',#127,.T.);
#74=CONICAL_SURFACE('',#128,3.844739905657,1.3089969389955);
#75=FACE_OUTER_BOUND('',#129,.T.);
#76=CONICAL_SURFACE('',#130,3.844739905657,1.3089969389955);
#77=FACE_OUTER_BOUND('',#131,.T.);
#78=CONICAL_SURFACE('',#132,3.844739905657,1.3089969389955);
#79=FACE_OUTER_BOUND('',#133,.T.);
#80=CONICAL_SURFACE('',#134,3.844739905657,1.3089969389955);
#81=FACE_OUTER_BOUND('',#135,.T.);
#82=FACE_BOUND('',#136,.T.);
#83=PLANE('',#137);
#84=FACE_OUTER_BOUND('',#138,.T.);
#85=CYLINDRICAL_SURFACE('',#139,2.15265);
#86=FACE_OUTER_BOUND('',#140,.T.);
#87=CYLINDRICAL_SURFACE('',#141,2.15265);
#88=FACE_OUTER_BOUND('',#142,.T.);
#89=FACE_BOUND('',#143,.T.);
#90=PLANE('',#144);
#91=FACE_OUTER_BOUND('',#145,.T.);
#92=CONICAL_SURFACE('',#146,3.844739905657,1.3089969389955);
#93=FACE_OUTER_BOUND('',#147,.T.);
#94=CONICAL_SURFACE('',#148,3.844739905657,1.3089969389955);
#95=FACE_OUTER_BOUND('',#149,.T.);
#96=CONICAL_SURFACE('',#150,3.844739905657,1.3089969389955);
#97=FACE_OUTER_BOUND('',#151,.T.);
#98=CONICAL_SURFACE('',#152,3.844739905657,1.3089969389955);
#99=FACE_OUTER_BOUND('',#153,.T.);
#100=CONICAL_SURFACE('',#154,3.844739905657,1.3089969389955);
#101=FACE_OUTER_BOUND('',#155,.T.);
#102=PLANE('',#156);
#103=FACE_OUTER_BOUND('',#157,.T.);
#104=PLANE('',#158);
#105=FACE_OUTER_BOUND('',#159,.T.);
#106=PLANE('',#160);
#107=FACE_OUTER_BOUND('',#161,.T.);
#108=PLANE('',#162);
#109=FACE_OUTER_BOUND('',#163,.T.);
#110=PLANE('',#164);
#111=FACE_OUTER_BOUND('',#165,.T.);
#112=CONICAL_SURFACE('',#166,3.844739905657,1.3089969389955);
#113=FACE_OUTER_BOUND('',#167,.T.);
#114=PLANE('',#168);
#115=FACE_OUTER_BOUND('',#169,.T.);
#116=CONICAL_SURFACE('',#170,3.844739905657,1.3089969389955);
#117=FACE_OUTER_BOUND('',#171,.T.);
#118=CONICAL_SURFACE('',#172,3.844739905657,1.3089969389955);
#119=FACE_OUTER_BOUND('',#173,.T.);
#120=CONICAL_SURFACE('',#174,3.844739905657,1.3089969389955);
#121=FACE_OUTER_BOUND('',#175,.T.);
#122=CONICAL_SURFACE('',#176,3.844739905657,1.3089969389955);
#123=FACE_OUTER_BOUND('',#177,.T.);
#124=CONICAL_SURFACE('',#178,3.844739905657,1.3089969389955);
#125=FACE_OUTER_BOUND('',#179,.T.);
#126=CONICAL_SURFACE('',#180,3.844739905657,1.3089969389955);
#127=EDGE_LOOP('',(#181,#182,#183));
#128=AXIS2_PLACEMENT_3D('',#184,#185,#186);
#129=EDGE_LOOP('',(#187,#188,#189));
#130=AXIS2_PLACEMENT_3D('',#190,#191,#192);
#131=EDGE_LOOP('',(#193,#194,#195));
#132=AXIS2_PLACEMENT_3D('',#196,#197,#198);
#133=EDGE_LOOP('',(#199,#200,#201));
#134=AXIS2_PLACEMENT_3D('',#202,#203,#204);
#135=EDGE_LOOP('',(#205,#206,#207,#208,#209,#210,#211,#212));
#136=EDGE_LOOP('',(#213,#214));
#137=AXIS2_PLACEMENT_3D('',#215,#216,#217);
#138=EDGE_LOOP('',(#218,#219,#220,#221));
#139=AXIS2_PLACEMENT_3D('',#222,#223,#224);
#140=EDGE_LOOP('',(#225,#226,#227,#228));
#141=AXIS2_PLACEMENT_3D('',#229,#230,#231);
#142=EDGE_LOOP('',(#232,#233,#234,#235,#236,#237,#238,#239));
#143=EDGE_LOOP('',(#240,#241));
#144=AXIS2_PLACEMENT_3D('',#242,#243,#244);
#145=EDGE_LOOP('',(#245,#246,#247));
#146=AXIS2_PLACEMENT_3D('',#248,#249,#250);
#147=EDGE_LOOP('',(#251,#252,#253));
#148=AXIS2_PLACEMENT_3D('',#254,#255,#256);
#149=EDGE_LOOP('',(#257,#258,#259));
#150=AXIS2_PLACEMENT_3D('',#260,#261,#262);
#151=EDGE_LOOP('',(#263,#264,#265));
#152=AXIS2_PLACEMENT_3D('',#266,#267,#268);
#153=EDGE_LOOP('',(#269,#270,#271));
#154=AXIS2_PLACEMENT_3D('',#272,#273,#274);
#155=EDGE_LOOP('',(#275,#276,#277,#278,#279,#280));
#156=AXIS2_PLACEMENT_3D('',#281,#282,#283);
#157=EDGE_LOOP('',(#284,#285,#286,#287,#288,#289));
#158=AXIS2_PLACEMENT_3D('',#290,#291,#292);
#159=EDGE_LOOP('',(#293,#294,#295,#296,#297,#298));
#160=AXIS2_PLACEMENT_3D('',#299,#300,#301);
#161=EDGE_LOOP('',(#302,#303,#304,#305,#306,#307));
#162=AXIS2_PLACEMENT_3D('',#308,#309,#310);
#163=EDGE_LOOP('',(#311,#312,#313,#314,#315,#316));
#164=AXIS2_PLACEMENT_3D('',#317,#318,#319);
#165=EDGE_LOOP('',(#320,#321,#322));
#166=AXIS2_PLACEMENT_3D('',#323,#324,#325);
#167=EDGE_LOOP('',(#326,#327,#328,#329,#330,#331));
#168=AXIS2_PLACEMENT_3D('',#332,#333,#334);
#169=EDGE_LOOP('',(#335,#336,#337));
#170=AXIS2_PLACEMENT_3D('',#338,#339,#340);
#171=EDGE_LOOP('',(#341,#342,#343));
#172=AXIS2_PLACEMENT_3D('',#344,#345,#346);
#173=EDGE_LOOP('',(#347,#348,#349));
#174=AXIS2_PLACEMENT_3D('',#350,#351,#352);
#175=EDGE_LOOP('',(#353,#354,#355));
#176=AXIS2_PLACEMENT_3D('',#356,#357,#358);
#177=EDGE_LOOP('',(#359,#360,#361));
#178=AXIS2_PLACEMENT_3D('',#362,#363,#364);
#179=EDGE_LOOP('',(#365,#366,#367));
#180=AXIS2_PLACEMENT_3D('',#368,#369,#370);
#181=ORIENTED_EDGE('',*,*,#371,.F.);
#182=ORIENTED_EDGE('',*,*,#372,.F.);
#183=ORIENTED_EDGE('',*,*,#373,.T.);
#184=CARTESIAN_POINT('',(0.0,0.0,-0.07396466979956));
#185=DIRECTION('',(0.0,-0.0,-1.0));
#186=DIRECTION('',(0.0,-1.0,0.0));
#187=ORIENTED_EDGE('',*,*,#374,.F.);
#188=ORIENTED_EDGE('',*,*,#375,.T.);
#189=ORIENTED_EDGE('',*,*,#376,.F.);
#190=CARTESIAN_POINT('',(0.0,0.0,-0.07396466979956));
#191=DIRECTION('',(0.0,-0.0,-1.0));
#192=DIRECTION('',(0.0,-1.0,0.0));
#193=ORIENTED_EDGE('',*,*,#377,.F.);
#194=ORIENTED_EDGE('',*,*,#378,.F.);
#195=ORIENTED_EDGE('',*,*,#379,.F.);
#196=CARTESIAN_POINT('',(0.0,0.0,-1.1198353302));
#197=DIRECTION('',(-0.0,-0.0,1.0));
#198=DIRECTION('',(0.0,1.0,0.0));
#199=ORIENTED_EDGE('',*,*,#380,.F.);
#200=ORIENTED_EDGE('',*,*,#381,.F.);
#201=ORIENTED_EDGE('',*,*,#382,.F.);
#202=CARTESIAN_POINT('',(0.0,0.0,-1.1198353302));
#203=DIRECTION('',(-0.0,-0.0,1.0));
#204=DIRECTION('',(0.0,1.0,0.0));
#205=ORIENTED_EDGE('',*,*,#383,.T.);
#206=ORIENTED_EDGE('',*,*,#384,.T.);
#207=ORIENTED_EDGE('',*,*,#372,.T.);
#208=ORIENTED_EDGE('',*,*,#385,.T.);
#209=ORIENTED_EDGE('',*,*,#386,.T.);
#210=ORIENTED_EDGE('',*,*,#387,.T.);
#211=ORIENTED_EDGE('',*,*,#388,.T.);
#212=ORIENTED_EDGE('',*,*,#376,.T.);
#213=ORIENTED_EDGE('',*,*,#389,.F.);
#214=ORIENTED_EDGE('',*,*,#390,.F.);
#215=CARTESIAN_POINT('',(0.0,0.0,0.0));
#216=DIRECTION('',(0.0,0.0,1.0));
#217=DIRECTION('',(1.0,0.0,0.0));
#218=ORIENTED_EDGE('',*,*,#391,.F.);
#219=ORIENTED_EDGE('',*,*,#392,.F.);
#220=ORIENTED_EDGE('',*,*,#393,.T.);
#221=ORIENTED_EDGE('',*,*,#390,.T.);
#222=CARTESIAN_POINT('',(0.0,0.0,-1.25349));
#223=DIRECTION('',(-0.0,0.0,-1.0));
#224=DIRECTION('',(-1.0,0.0,0.0));
#225=ORIENTED_EDGE('',*,*,#393,.F.);
#226=ORIENTED_EDGE('',*,*,#394,.F.);
#227=ORIENTED_EDGE('',*,*,#391,.T.);
#228=ORIENTED_EDGE('',*,*,#389,.T.);
#229=CARTESIAN_POINT('',(0.0,0.0,-1.25349));
#230=DIRECTION('',(-0.0,0.0,-1.0));
#231=DIRECTION('',(-1.0,0.0,0.0));
#232=ORIENTED_EDGE('',*,*,#395,.F.);
#233=ORIENTED_EDGE('',*,*,#396,.F.);
#234=ORIENTED_EDGE('',*,*,#397,.T.);
#235=ORIENTED_EDGE('',*,*,#379,.T.);
#236=ORIENTED_EDGE('',*,*,#398,.F.);
#237=ORIENTED_EDGE('',*,*,#399,.F.);
#238=ORIENTED_EDGE('',*,*,#381,.T.);
#239=ORIENTED_EDGE('',*,*,#400,.T.);
#240=ORIENTED_EDGE('',*,*,#394,.T.);
#241=ORIENTED_EDGE('',*,*,#392,.T.);
#242=CARTESIAN_POINT('',(0.0,0.0,-1.1938));
#243=DIRECTION('',(0.0,0.0,1.0));
#244=DIRECTION('',(1.0,0.0,0.0));
#245=ORIENTED_EDGE('',*,*,#401,.F.);
#246=ORIENTED_EDGE('',*,*,#402,.F.);
#247=ORIENTED_EDGE('',*,*,#398,.T.);
#248=CARTESIAN_POINT('',(0.0,0.0,-1.1198353302));
#249=DIRECTION('',(-0.0,-0.0,1.0));
#250=DIRECTION('',(0.0,1.0,0.0));
#251=ORIENTED_EDGE('',*,*,#403,.F.);
#252=ORIENTED_EDGE('',*,*,#404,.F.);
#253=ORIENTED_EDGE('',*,*,#399,.T.);
#254=CARTESIAN_POINT('',(0.0,0.0,-1.1198353302));
#255=DIRECTION('',(-0.0,-0.0,1.0));
#256=DIRECTION('',(0.0,1.0,0.0));
#257=ORIENTED_EDGE('',*,*,#405,.F.);
#258=ORIENTED_EDGE('',*,*,#406,.F.);
#259=ORIENTED_EDGE('',*,*,#396,.T.);
#260=CARTESIAN_POINT('',(0.0,0.0,-1.1198353302));
#261=DIRECTION('',(-0.0,-0.0,1.0));
#262=DIRECTION('',(0.0,1.0,0.0));
#263=ORIENTED_EDGE('',*,*,#407,.F.);
#264=ORIENTED_EDGE('',*,*,#408,.F.);
#265=ORIENTED_EDGE('',*,*,#395,.T.);
#266=CARTESIAN_POINT('',(0.0,0.0,-1.1198353302));
#267=DIRECTION('',(-0.0,-0.0,1.0));
#268=DIRECTION('',(0.0,1.0,0.0));
#269=ORIENTED_EDGE('',*,*,#380,.T.);
#270=ORIENTED_EDGE('',*,*,#409,.F.);
#271=ORIENTED_EDGE('',*,*,#400,.F.);
#272=CARTESIAN_POINT('',(0.0,0.0,-1.1198353302));
#273=DIRECTION('',(-0.0,-0.0,1.0));
#274=DIRECTION('',(0.0,1.0,0.0));
#275=ORIENTED_EDGE('',*,*,#402,.T.);
#276=ORIENTED_EDGE('',*,*,#410,.F.);
#277=ORIENTED_EDGE('',*,*,#411,.F.);
#278=ORIENTED_EDGE('',*,*,#412,.F.);
#279=ORIENTED_EDGE('',*,*,#413,.T.);
#280=ORIENTED_EDGE('',*,*,#403,.T.);
#281=CARTESIAN_POINT('',(-3.5687,2.060389905657,0.0));
#282=DIRECTION('',(-1.0,0.0,0.0));
#283=DIRECTION('',(0.0,0.0,1.0));
#284=ORIENTED_EDGE('',*,*,#404,.T.);
#285=ORIENTED_EDGE('',*,*,#413,.F.);
#286=ORIENTED_EDGE('',*,*,#414,.F.);
#287=ORIENTED_EDGE('',*,*,#375,.F.);
#288=ORIENTED_EDGE('',*,*,#415,.T.);
#289=ORIENTED_EDGE('',*,*,#382,.T.);
#290=CARTESIAN_POINT('',(0.0,4.120779811314,0.0));
#291=DIRECTION('',(-0.500000000000017,0.866025403784429,0.0));
#292=DIRECTION('',(0.0,0.0,1.0));
#293=ORIENTED_EDGE('',*,*,#409,.T.);
#294=ORIENTED_EDGE('',*,*,#415,.F.);
#295=ORIENTED_EDGE('',*,*,#416,.F.);
#296=ORIENTED_EDGE('',*,*,#417,.F.);
#297=ORIENTED_EDGE('',*,*,#418,.T.);
#298=ORIENTED_EDGE('',*,*,#407,.T.);
#299=CARTESIAN_POINT('',(3.5687,2.060389905657,0.0));
#300=DIRECTION('',(0.500000000000017,0.866025403784429,0.0));
#301=DIRECTION('',(0.0,0.0,-1.0));
#302=ORIENTED_EDGE('',*,*,#408,.T.);
#303=ORIENTED_EDGE('',*,*,#418,.F.);
#304=ORIENTED_EDGE('',*,*,#419,.F.);
#305=ORIENTED_EDGE('',*,*,#420,.F.);
#306=ORIENTED_EDGE('',*,*,#421,.T.);
#307=ORIENTED_EDGE('',*,*,#405,.T.);
#308=CARTESIAN_POINT('',(3.5687,-2.060389905657,0.0));
#309=DIRECTION('',(1.0,0.0,0.0));
#310=DIRECTION('',(0.0,1.0,0.0));
#311=ORIENTED_EDGE('',*,*,#406,.T.);
#312=ORIENTED_EDGE('',*,*,#421,.F.);
#313=ORIENTED_EDGE('',*,*,#422,.F.);
#314=ORIENTED_EDGE('',*,*,#423,.F.);
#315=ORIENTED_EDGE('',*,*,#424,.T.);
#316=ORIENTED_EDGE('',*,*,#425,.T.);
#317=CARTESIAN_POINT('',(0.0,-4.120779811314,0.0));
#318=DIRECTION('',(0.500000000000017,-0.866025403784429,0.0));
#319=DIRECTION('',(0.0,0.0,-1.0));
#320=ORIENTED_EDGE('',*,*,#377,.T.);
#321=ORIENTED_EDGE('',*,*,#397,.F.);
#322=ORIENTED_EDGE('',*,*,#425,.F.);
#323=CARTESIAN_POINT('',(0.0,0.0,-1.1198353302));
#324=DIRECTION('',(-0.0,-0.0,1.0));
#325=DIRECTION('',(0.0,1.0,0.0));
#326=ORIENTED_EDGE('',*,*,#378,.T.);
#327=ORIENTED_EDGE('',*,*,#424,.F.);
#328=ORIENTED_EDGE('',*,*,#373,.F.);
#329=ORIENTED_EDGE('',*,*,#426,.F.);
#330=ORIENTED_EDGE('',*,*,#410,.T.);
#331=ORIENTED_EDGE('',*,*,#401,.T.);
#332=CARTESIAN_POINT('',(-3.5687,-2.060389905657,0.0));
#333=DIRECTION('',(-0.500000000000017,-0.866025403784429,0.0));
#334=DIRECTION('',(-0.866025403784429,0.500000000000017,0.0));
#335=ORIENTED_EDGE('',*,*,#411,.T.);
#336=ORIENTED_EDGE('',*,*,#426,.T.);
#337=ORIENTED_EDGE('',*,*,#384,.F.);
#338=CARTESIAN_POINT('',(0.0,0.0,-0.07396466979956));
#339=DIRECTION('',(0.0,-0.0,-1.0));
#340=DIRECTION('',(0.0,-1.0,0.0));
#341=ORIENTED_EDGE('',*,*,#414,.T.);
#342=ORIENTED_EDGE('',*,*,#412,.T.);
#343=ORIENTED_EDGE('',*,*,#383,.F.);
#344=CARTESIAN_POINT('',(0.0,0.0,-0.07396466979956));
#345=DIRECTION('',(0.0,-0.0,-1.0));
#346=DIRECTION('',(0.0,-1.0,0.0));
#347=ORIENTED_EDGE('',*,*,#422,.T.);
#348=ORIENTED_EDGE('',*,*,#420,.T.);
#349=ORIENTED_EDGE('',*,*,#386,.F.);
#350=CARTESIAN_POINT('',(0.0,0.0,-0.07396466979956));
#351=DIRECTION('',(0.0,-0.0,-1.0));
#352=DIRECTION('',(0.0,-1.0,0.0));
#353=ORIENTED_EDGE('',*,*,#419,.T.);
#354=ORIENTED_EDGE('',*,*,#417,.T.);
#355=ORIENTED_EDGE('',*,*,#387,.F.);
#356=CARTESIAN_POINT('',(0.0,0.0,-0.07396466979956));
#357=DIRECTION('',(0.0,-0.0,-1.0));
#358=DIRECTION('',(0.0,-1.0,0.0));
#359=ORIENTED_EDGE('',*,*,#374,.T.);
#360=ORIENTED_EDGE('',*,*,#388,.F.);
#361=ORIENTED_EDGE('',*,*,#416,.T.);
#362=CARTESIAN_POINT('',(0.0,0.0,-0.07396466979956));
#363=DIRECTION('',(0.0,-0.0,-1.0));
#364=DIRECTION('',(0.0,-1.0,0.0));
#365=ORIENTED_EDGE('',*,*,#371,.T.);
#366=ORIENTED_EDGE('',*,*,#423,.T.);
#367=ORIENTED_EDGE('',*,*,#385,.F.);
#368=CARTESIAN_POINT('',(0.0,0.0,-0.07396466979956));
#369=DIRECTION('',(0.0,-0.0,-1.0));
#370=DIRECTION('',(0.0,-1.0,0.0));
#371=EDGE_CURVE('',#427,#428,#429,.T.);
#372=EDGE_CURVE('',#430,#427,#431,.T.);
#373=EDGE_CURVE('',#430,#428,#432,.T.);
#374=EDGE_CURVE('',#433,#434,#435,.T.);
#375=EDGE_CURVE('',#433,#436,#437,.T.);
#376=EDGE_CURVE('',#434,#436,#438,.T.);
#377=EDGE_CURVE('',#439,#440,#441,.T.);
#378=EDGE_CURVE('',#442,#439,#443,.T.);
#379=EDGE_CURVE('',#440,#442,#444,.T.);
#380=EDGE_CURVE('',#445,#446,#447,.T.);
#381=EDGE_CURVE('',#448,#445,#449,.T.);
#382=EDGE_CURVE('',#446,#448,#450,.T.);
#383=EDGE_CURVE('',#436,#451,#452,.T.);
#384=EDGE_CURVE('',#451,#430,#453,.T.);
#385=EDGE_CURVE('',#427,#454,#455,.T.);
#386=EDGE_CURVE('',#454,#456,#457,.T.);
#387=EDGE_CURVE('',#456,#458,#459,.T.);
#388=EDGE_CURVE('',#458,#434,#460,.T.);
#389=EDGE_CURVE('',#461,#462,#463,.T.);
#390=EDGE_CURVE('',#462,#461,#464,.T.);
#391=EDGE_CURVE('',#465,#461,#466,.T.);
#392=EDGE_CURVE('',#467,#465,#468,.T.);
#393=EDGE_CURVE('',#467,#462,#469,.T.);
#394=EDGE_CURVE('',#465,#467,#470,.T.);
#395=EDGE_CURVE('',#471,#472,#473,.T.);
#396=EDGE_CURVE('',#474,#471,#475,.T.);
#397=EDGE_CURVE('',#474,#440,#476,.T.);
#398=EDGE_CURVE('',#477,#442,#478,.T.);
#399=EDGE_CURVE('',#448,#477,#479,.T.);
#400=EDGE_CURVE('',#445,#472,#480,.T.);
#401=EDGE_CURVE('',#481,#442,#482,.T.);
#402=EDGE_CURVE('',#477,#481,#483,.T.);
#403=EDGE_CURVE('',#484,#477,#485,.T.);
#404=EDGE_CURVE('',#448,#484,#486,.T.);
#405=EDGE_CURVE('',#487,#471,#488,.T.);
#406=EDGE_CURVE('',#474,#487,#489,.T.);
#407=EDGE_CURVE('',#490,#472,#491,.T.);
#408=EDGE_CURVE('',#471,#490,#492,.T.);
#409=EDGE_CURVE('',#472,#446,#493,.T.);
#410=EDGE_CURVE('',#494,#481,#495,.T.);
#411=EDGE_CURVE('',#451,#494,#496,.T.);
#412=EDGE_CURVE('',#497,#451,#498,.T.);
#413=EDGE_CURVE('',#497,#484,#499,.T.);
#414=EDGE_CURVE('',#436,#497,#500,.T.);
#415=EDGE_CURVE('',#433,#446,#501,.T.);
#416=EDGE_CURVE('',#458,#433,#502,.T.);
#417=EDGE_CURVE('',#503,#458,#504,.T.);
#418=EDGE_CURVE('',#503,#490,#505,.T.);
#419=EDGE_CURVE('',#456,#503,#506,.T.);
#420=EDGE_CURVE('',#507,#456,#508,.T.);
#421=EDGE_CURVE('',#507,#487,#509,.T.);
#422=EDGE_CURVE('',#454,#507,#510,.T.);
#423=EDGE_CURVE('',#428,#454,#511,.T.);
#424=EDGE_CURVE('',#428,#439,#512,.T.);
#425=EDGE_CURVE('',#439,#474,#513,.T.);
#426=EDGE_CURVE('',#494,#430,#514,.T.);
#427=VERTEX_POINT('',#515);
#428=VERTEX_POINT('',#516);
#429=LINE('',#517,#518);
#430=VERTEX_POINT('',#519);
#431=CIRCLE('',#520,3.5687);
#432=B_SPLINE_CURVE_WITH_KNOTS('',3,(#521,#522,#523,#524,#525,#526,#527,#528),.UNSPECIFIED.,.F.,.F.,(4,1,1,1,1,4),(0.0,0.2,0.4,0.6,0.8,1.0),.UNSPECIFIED.);
#433=VERTEX_POINT('',#529);
#434=VERTEX_POINT('',#530);
#435=LINE('',#531,#532);
#436=VERTEX_POINT('',#533);
#437=B_SPLINE_CURVE_WITH_KNOTS('',3,(#534,#535,#536,#537,#538,#539,#540,#541),.UNSPECIFIED.,.F.,.F.,(4,1,1,1,1,4),(0.0,0.2,0.4,0.6,0.8,1.0),.UNSPECIFIED.);
#438=CIRCLE('',#542,3.5687);
#439=VERTEX_POINT('',#543);
#440=VERTEX_POINT('',#544);
#441=LINE('',#545,#546);
#442=VERTEX_POINT('',#547);
#443=B_SPLINE_CURVE_WITH_KNOTS('',3,(#548,#549,#550,#551,#552,#553,#554,#555),.UNSPECIFIED.,.F.,.F.,(4,1,1,1,1,4),(0.0,0.2,0.4,0.6,0.8,1.0),.UNSPECIFIED.);
#444=CIRCLE('',#556,3.5687);
#445=VERTEX_POINT('',#557);
#446=VERTEX_POINT('',#558);
#447=LINE('',#559,#560);
#448=VERTEX_POINT('',#561);
#449=CIRCLE('',#562,3.5687);
#450=B_SPLINE_CURVE_WITH_KNOTS('',3,(#563,#564,#565,#566,#567,#568,#569,#570),.UNSPECIFIED.,.F.,.F.,(4,1,1,1,1,4),(0.0,0.2,0.4,0.6,0.8,1.0),.UNSPECIFIED.);
#451=VERTEX_POINT('',#571);
#452=CIRCLE('',#572,3.5687);
#453=CIRCLE('',#573,3.5687);
#454=VERTEX_POINT('',#574);
#455=CIRCLE('',#575,3.5687);
#456=VERTEX_POINT('',#576);
#457=CIRCLE('',#577,3.5687);
#458=VERTEX_POINT('',#578);
#459=CIRCLE('',#579,3.5687);
#460=CIRCLE('',#580,3.5687);
#461=VERTEX_POINT('',#581);
#462=VERTEX_POINT('',#582);
#463=CIRCLE('',#583,2.15265);
#464=CIRCLE('',#584,2.15265);
#465=VERTEX_POINT('',#585);
#466=LINE('',#586,#587);
#467=VERTEX_POINT('',#588);
#468=CIRCLE('',#589,2.15265);
#469=LINE('',#590,#591);
#470=CIRCLE('',#592,2.15265);
#471=VERTEX_POINT('',#593);
#472=VERTEX_POINT('',#594);
#473=CIRCLE('',#595,3.5687);
#474=VERTEX_POINT('',#596);
#475=CIRCLE('',#597,3.5687);
#476=CIRCLE('',#598,3.5687);
#477=VERTEX_POINT('',#599);
#478=CIRCLE('',#600,3.5687);
#479=CIRCLE('',#601,3.5687);
#480=CIRCLE('',#602,3.5687);
#481=VERTEX_POINT('',#603);
#482=B_SPLINE_CURVE_WITH_KNOTS('',3,(#604,#605,#606,#607,#608,#609,#610,#611),.UNSPECIFIED.,.F.,.F.,(4,1,1,1,1,4),(0.0,0.2,0.4,0.6,0.8,1.0),.UNSPECIFIED.);
#483=B_SPLINE_CURVE_WITH_KNOTS('',3,(#612,#613,#614,#615,#616,#617,#618,#619),.UNSPECIFIED.,.F.,.F.,(4,1,1,1,1,4),(0.0,0.2,0.4,0.6,0.8,1.0),.UNSPECIFIED.);
#484=VERTEX_POINT('',#620);
#485=B_SPLINE_CURVE_WITH_KNOTS('',3,(#621,#622,#623,#624,#625,#626,#627,#628),.UNSPECIFIED.,.F.,.F.,(4,1,1,1,1,4),(0.0,0.2,0.4,0.6,0.8,1.0),.UNSPECIFIED.);
#486=B_SPLINE_CURVE_WITH_KNOTS('',3,(#629,#630,#631,#632,#633,#634,#635,#636),.UNSPECIFIED.,.F.,.F.,(4,1,1,1,1,4),(0.0,0.2,0.4,0.6,0.8,1.0),.UNSPECIFIED.);
#487=VERTEX_POINT('',#637);
#488=B_SPLINE_CURVE_WITH_KNOTS('',3,(#638,#639,#640,#641,#642,#643,#644,#645),.UNSPECIFIED.,.F.,.F.,(4,1,1,1,1,4),(0.0,0.2,0.4,0.6,0.8,1.0),.UNSPECIFIED.);
#489=B_SPLINE_CURVE_WITH_KNOTS('',3,(#646,#647,#648,#649,#650,#651,#652,#653),.UNSPECIFIED.,.F.,.F.,(4,1,1,1,1,4),(0.0,0.2,0.4,0.6,0.8,1.0),.UNSPECIFIED.);
#490=VERTEX_POINT('',#654);
#491=B_SPLINE_CURVE_WITH_KNOTS('',3,(#655,#656,#657,#658,#659,#660,#661,#662),.UNSPECIFIED.,.F.,.F.,(4,1,1,1,1,4),(0.0,0.2,0.4,0.6,0.8,1.0),.UNSPECIFIED.);
#492=B_SPLINE_CURVE_WITH_KNOTS('',3,(#663,#664,#665,#666,#667,#668,#669,#670),.UNSPECIFIED.,.F.,.F.,(4,1,1,1,1,4),(0.0,0.2,0.4,0.6,0.8,1.0),.UNSPECIFIED.);
#493=B_SPLINE_CURVE_WITH_KNOTS('',3,(#671,#672,#673,#674,#675,#676,#677,#678),.UNSPECIFIED.,.F.,.F.,(4,1,1,1,1,4),(0.0,0.2,0.4,0.6,0.8,1.0),.UNSPECIFIED.);
#494=VERTEX_POINT('',#679);
#495=LINE('',#680,#681);
#496=B_SPLINE_CURVE_WITH_KNOTS('',3,(#682,#683,#684,#685,#686,#687,#688,#689),.UNSPECIFIED.,.F.,.F.,(4,1,1,1,1,4),(0.0,0.2,0.4,0.6,0.8,1.0),.UNSPECIFIED.);
#497=VERTEX_POINT('',#690);
#498=B_SPLINE_CURVE_WITH_KNOTS('',3,(#691,#692,#693,#694,#695,#696,#697,#698),.UNSPECIFIED.,.F.,.F.,(4,1,1,1,1,4),(0.0,0.2,0.4,0.6,0.8,1.0),.UNSPECIFIED.);
#499=LINE('',#699,#700);
#500=B_SPLINE_CURVE_WITH_KNOTS('',3,(#701,#702,#703,#704,#705,#706,#707,#708),.UNSPECIFIED.,.F.,.F.,(4,1,1,1,1,4),(0.0,0.2,0.4,0.6,0.8,1.0),.UNSPECIFIED.);
#501=LINE('',#709,#710);
#502=B_SPLINE_CURVE_WITH_KNOTS('',3,(#711,#712,#713,#714,#715,#716,#717,#718),.UNSPECIFIED.,.F.,.F.,(4,1,1,1,1,4),(0.0,0.2,0.4,0.6,0.8,1.0),.UNSPECIFIED.);
#503=VERTEX_POINT('',#719);
#504=B_SPLINE_CURVE_WITH_KNOTS('',3,(#720,#721,#722,#723,#724,#725,#726,#727),.UNSPECIFIED.,.F.,.F.,(4,1,1,1,1,4),(0.0,0.2,0.4,0.6,0.8,1.0),.UNSPECIFIED.);
#505=LINE('',#728,#729);
#506=B_SPLINE_CURVE_WITH_KNOTS('',3,(#730,#731,#732,#733,#734,#735,#736,#737),.UNSPECIFIED.,.F.,.F.,(4,1,1,1,1,4),(1.33112969091635E-14,0.2,0.4,0.6,0.8,1.0),.UNSPECIFIED.);
#507=VERTEX_POINT('',#738);
#508=B_SPLINE_CURVE_WITH_KNOTS('',3,(#739,#740,#741,#742,#743,#744,#745,#746),.UNSPECIFIED.,.F.,.F.,(4,1,1,1,1,4),(0.0,0.2,0.4,0.6,0.8,0.999999999999987),.UNSPECIFIED.);
#509=LINE('',#747,#748);
#510=B_SPLINE_CURVE_WITH_KNOTS('',3,(#749,#750,#751,#752,#753,#754,#755,#756),.UNSPECIFIED.,.F.,.F.,(4,1,1,1,1,4),(0.0,0.2,0.4,0.6,0.8,1.0),.UNSPECIFIED.);
#511=B_SPLINE_CURVE_WITH_KNOTS('',3,(#757,#758,#759,#760,#761,#762,#763,#764),.UNSPECIFIED.,.F.,.F.,(4,1,1,1,1,4),(0.0,0.2,0.4,0.6,0.8,1.0),.UNSPECIFIED.);
#512=LINE('',#765,#766);
#513=B_SPLINE_CURVE_WITH_KNOTS('',3,(#767,#768,#769,#770,#771,#772,#773,#774),.UNSPECIFIED.,.F.,.F.,(4,1,1,1,1,4),(0.0,0.2,0.4,0.6,0.8,1.0),.UNSPECIFIED.);
#514=B_SPLINE_CURVE_WITH_KNOTS('',3,(#775,#776,#777,#778,#779,#780,#781,#782),.UNSPECIFIED.,.F.,.F.,(4,1,1,1,1,4),(0.0,0.2,0.4,0.6,0.8,1.0),.UNSPECIFIED.);
#515=CARTESIAN_POINT('',(-4.37039703211716E-16,-3.5687,0.0));
#516=CARTESIAN_POINT('',(0.0,-4.120779811314,-0.1479293395991));
#517=CARTESIAN_POINT('',(-4.70844841901694E-16,-3.844739905657,-0.07396466979956));
#518=VECTOR('',#783,1.0);
#519=CARTESIAN_POINT('',(-1.78435,-3.090584858486,0.0));
#520=AXIS2_PLACEMENT_3D('',#784,#785,#786);
#521=CARTESIAN_POINT('',(-1.78435,-3.090584858486,0.0));
#522=CARTESIAN_POINT('',(-1.665606046049,-3.159141712264,0.0));
#523=CARTESIAN_POINT('',(-1.42849706497,-3.296036646317,-0.004248846645347));
#524=CARTESIAN_POINT('',(-1.073991882677,-3.500710308743,-0.02299433796489));
#525=CARTESIAN_POINT('',(-0.7205801340131,-3.704752676969,-0.05329805001393));
#526=CARTESIAN_POINT('',(-0.3658129989042,-3.909577577924,-0.09429776452617));
#527=CARTESIAN_POINT('',(-0.1227296426626,-4.049921819085,-0.1289429978041));
#528=CARTESIAN_POINT('',(0.0,-4.120779811314,-0.1479293395991));
#529=CARTESIAN_POINT('',(0.0,4.120779811314,-0.1479293395991));
#530=CARTESIAN_POINT('',(4.37039703211716E-16,3.5687,0.0));
#531=CARTESIAN_POINT('',(4.70844841901694E-16,3.844739905657,-0.07396466979956));
#532=VECTOR('',#787,1.0);
#533=CARTESIAN_POINT('',(-1.78435,3.090584858486,0.0));
#534=CARTESIAN_POINT('',(0.0,4.120779811314,-0.1479293395991));
#535=CARTESIAN_POINT('',(-0.1227222320276,4.049926097617,-0.1289441442333));
#536=CARTESIAN_POINT('',(-0.36580256597,3.909583601381,-0.09429839339748));
#537=CARTESIAN_POINT('',(-0.7206835758913,3.704692954773,-0.0532869192374));
#538=CARTESIAN_POINT('',(-1.074080963937,3.500658877654,-0.02298863971734));
#539=CARTESIAN_POINT('',(-1.428544160128,3.296009455915,-0.004247651668293));
#540=CARTESIAN_POINT('',(-1.665623005936,3.159131920468,0.0));
#541=CARTESIAN_POINT('',(-1.78435,3.090584858486,0.0));
#542=AXIS2_PLACEMENT_3D('',#788,#789,#790);
#543=CARTESIAN_POINT('',(0.0,-4.120779811314,-1.045870660401));
#544=CARTESIAN_POINT('',(4.37039703211716E-16,-3.5687,-1.1938));
#545=CARTESIAN_POINT('',(4.70844841901694E-16,-3.844739905657,-1.1198353302));
#546=VECTOR('',#791,1.0);
#547=CARTESIAN_POINT('',(-1.78435,-3.090584858486,-1.1938));
#548=CARTESIAN_POINT('',(-1.78435,-3.090584858486,-1.1938));
#549=CARTESIAN_POINT('',(-1.665606046049,-3.159141712264,-1.1938));
#550=CARTESIAN_POINT('',(-1.42849706497,-3.296036646317,-1.189551153355));
#551=CARTESIAN_POINT('',(-1.073991882677,-3.500710308743,-1.170805662035));
#552=CARTESIAN_POINT('',(-0.7205801340131,-3.704752676969,-1.140501949986));
#553=CARTESIAN_POINT('',(-0.3658129989042,-3.909577577924,-1.099502235474));
#554=CARTESIAN_POINT('',(-0.1227296426626,-4.049921819085,-1.064857002196));
#555=CARTESIAN_POINT('',(0.0,-4.120779811314,-1.045870660401));
#556=AXIS2_PLACEMENT_3D('',#792,#793,#794);
#557=CARTESIAN_POINT('',(-4.37039703211716E-16,3.5687,-1.1938));
#558=CARTESIAN_POINT('',(0.0,4.120779811314,-1.045870660401));
#559=CARTESIAN_POINT('',(-4.70844841901694E-16,3.844739905657,-1.1198353302));
#560=VECTOR('',#795,1.0);
#561=CARTESIAN_POINT('',(-1.78435,3.090584858486,-1.1938));
#562=AXIS2_PLACEMENT_3D('',#796,#797,#798);
#563=CARTESIAN_POINT('',(0.0,4.120779811314,-1.045870660401));
#564=CARTESIAN_POINT('',(-0.1227222320277,4.049926097617,-1.064855855767));
#565=CARTESIAN_POINT('',(-0.36580256597,3.909583601381,-1.099501606603));
#566=CARTESIAN_POINT('',(-0.7206835758913,3.704692954773,-1.140513080763));
#567=CARTESIAN_POINT('',(-1.074080963937,3.500658877654,-1.170811360283));
#568=CARTESIAN_POINT('',(-1.428544160128,3.296009455915,-1.189552348332));
#569=CARTESIAN_POINT('',(-1.665623005936,3.159131920468,-1.1938));
#570=CARTESIAN_POINT('',(-1.78435,3.090584858486,-1.1938));
#571=CARTESIAN_POINT('',(-3.5687,0.0,0.0));
#572=AXIS2_PLACEMENT_3D('',#799,#800,#801);
#573=AXIS2_PLACEMENT_3D('',#802,#803,#804);
#574=CARTESIAN_POINT('',(1.78435,-3.090584858486,0.0));
#575=AXIS2_PLACEMENT_3D('',#805,#806,#807);
#576=CARTESIAN_POINT('',(3.5687,-5.19883588339E-14,0.0));
#577=AXIS2_PLACEMENT_3D('',#808,#809,#810);
#578=CARTESIAN_POINT('',(1.78435,3.090584858486,0.0));
#579=AXIS2_PLACEMENT_3D('',#811,#812,#813);
#580=AXIS2_PLACEMENT_3D('',#814,#815,#816);
#581=CARTESIAN_POINT('',(2.15265,0.0,0.0));
#582=CARTESIAN_POINT('',(-2.15265,0.0,0.0));
#583=AXIS2_PLACEMENT_3D('',#817,#818,#819);
#584=AXIS2_PLACEMENT_3D('',#820,#821,#822);
#585=CARTESIAN_POINT('',(2.15265,0.0,-1.1938));
#586=CARTESIAN_POINT('',(2.15265,0.0,-1.1938));
#587=VECTOR('',#823,1.1938);
#588=CARTESIAN_POINT('',(-2.15265,0.0,-1.1938));
#589=AXIS2_PLACEMENT_3D('',#824,#825,#826);
#590=CARTESIAN_POINT('',(-2.15265,0.0,-1.1938));
#591=VECTOR('',#827,1.1938);
#592=AXIS2_PLACEMENT_3D('',#828,#829,#830);
#593=CARTESIAN_POINT('',(3.5687,0.0,-1.1938));
#594=CARTESIAN_POINT('',(1.78435,3.090584858486,-1.1938));
#595=AXIS2_PLACEMENT_3D('',#831,#832,#833);
#596=CARTESIAN_POINT('',(1.78435,-3.090584858486,-1.1938));
#597=AXIS2_PLACEMENT_3D('',#834,#835,#836);
#598=AXIS2_PLACEMENT_3D('',#837,#838,#839);
#599=CARTESIAN_POINT('',(-3.5687,0.0,-1.1938));
#600=AXIS2_PLACEMENT_3D('',#840,#841,#842);
#601=AXIS2_PLACEMENT_3D('',#843,#844,#845);
#602=AXIS2_PLACEMENT_3D('',#846,#847,#848);
#603=CARTESIAN_POINT('',(-3.5687,-2.060389905657,-1.045870660401));
#604=CARTESIAN_POINT('',(-3.5687,-2.060389905657,-1.045870660401));
#605=CARTESIAN_POINT('',(-3.445977767972,-2.131243619354,-1.064855855767));
#606=CARTESIAN_POINT('',(-3.20289743403,-2.27158611559,-1.099501606603));
#607=CARTESIAN_POINT('',(-2.848016424109,-2.476476762198,-1.140513080763));
#608=CARTESIAN_POINT('',(-2.494619036063,-2.680510839317,-1.170811360283));
#609=CARTESIAN_POINT('',(-2.140155839872,-2.885160261056,-1.189552348332));
#610=CARTESIAN_POINT('',(-1.903076994064,-3.022037796503,-1.1938));
#611=CARTESIAN_POINT('',(-1.78435,-3.090584858486,-1.1938));
#612=CARTESIAN_POINT('',(-3.5687,0.0,-1.1938));
#613=CARTESIAN_POINT('',(-3.5687,-0.1371137075563,-1.1938));
#614=CARTESIAN_POINT('',(-3.5687,-0.4109035756628,-1.189551153355));
#615=CARTESIAN_POINT('',(-3.5687,-0.8202509005149,-1.170805662035));
#616=CARTESIAN_POINT('',(-3.5687,-1.228335636967,-1.140501949986));
#617=CARTESIAN_POINT('',(-3.5687,-1.637985438876,-1.099502235474));
#618=CARTESIAN_POINT('',(-3.5687,-1.918673921199,-1.064857002196));
#619=CARTESIAN_POINT('',(-3.5687,-2.060389905657,-1.045870660401));
#620=CARTESIAN_POINT('',(-3.5687,2.060389905657,-1.045870660401));
#621=CARTESIAN_POINT('',(-3.5687,2.060389905657,-1.045870660401));
#622=CARTESIAN_POINT('',(-3.5687,1.918682478264,-1.064855855767));
#623=CARTESIAN_POINT('',(-3.5687,1.637997485791,-1.099501606603));
#624=CARTESIAN_POINT('',(-3.5687,1.228216192574,-1.140513080763));
#625=CARTESIAN_POINT('',(-3.5687,0.8201480383365,-1.170811360283));
#626=CARTESIAN_POINT('',(-3.5687,0.4108491948591,-1.189552348332));
#627=CARTESIAN_POINT('',(-3.5687,0.1370941239653,-1.1938));
#628=CARTESIAN_POINT('',(-3.5687,0.0,-1.1938));
#629=CARTESIAN_POINT('',(-1.78435,3.090584858486,-1.1938));
#630=CARTESIAN_POINT('',(-1.903093953951,3.022028004707,-1.1938));
#631=CARTESIAN_POINT('',(-2.14020293503,2.885133070654,-1.189551153355));
#632=CARTESIAN_POINT('',(-2.494708117323,2.680459408228,-1.170805662035));
#633=CARTESIAN_POINT('',(-2.848119865987,2.476417040002,-1.140501949986));
#634=CARTESIAN_POINT('',(-3.202887001096,2.271592139047,-1.099502235474));
#635=CARTESIAN_POINT('',(-3.445970357337,2.131247897886,-1.064857002196));
#636=CARTESIAN_POINT('',(-3.5687,2.060389905657,-1.045870660401));
#637=CARTESIAN_POINT('',(3.5687,-2.060389905657,-1.045870660401));
#638=CARTESIAN_POINT('',(3.5687,-2.060389905657,-1.045870660401));
#639=CARTESIAN_POINT('',(3.5687,-1.918682478264,-1.064855855767));
#640=CARTESIAN_POINT('',(3.5687,-1.637997485791,-1.099501606603));
#641=CARTESIAN_POINT('',(3.5687,-1.228216192574,-1.140513080763));
#642=CARTESIAN_POINT('',(3.5687,-0.8201480383365,-1.170811360283));
#643=CARTESIAN_POINT('',(3.5687,-0.4108491948591,-1.189552348332));
#644=CARTESIAN_POINT('',(3.5687,-0.1370941239653,-1.1938));
#645=CARTESIAN_POINT('',(3.5687,0.0,-1.1938));
#646=CARTESIAN_POINT('',(1.78435,-3.090584858486,-1.1938));
#647=CARTESIAN_POINT('',(1.903093953951,-3.022028004707,-1.1938));
#648=CARTESIAN_POINT('',(2.14020293503,-2.885133070654,-1.189551153355));
#649=CARTESIAN_POINT('',(2.494708117323,-2.680459408228,-1.170805662035));
#650=CARTESIAN_POINT('',(2.848119865987,-2.476417040002,-1.140501949986));
#651=CARTESIAN_POINT('',(3.202887001096,-2.271592139047,-1.099502235474));
#652=CARTESIAN_POINT('',(3.445970357337,-2.131247897886,-1.064857002196));
#653=CARTESIAN_POINT('',(3.5687,-2.060389905657,-1.045870660401));
#654=CARTESIAN_POINT('',(3.5687,2.060389905657,-1.045870660401));
#655=CARTESIAN_POINT('',(3.5687,2.060389905657,-1.045870660401));
#656=CARTESIAN_POINT('',(3.445977767972,2.131243619354,-1.064855855767));
#657=CARTESIAN_POINT('',(3.20289743403,2.27158611559,-1.099501606603));
#658=CARTESIAN_POINT('',(2.848016424109,2.476476762198,-1.140513080763));
#659=CARTESIAN_POINT('',(2.494619036063,2.680510839317,-1.170811360283));
#660=CARTESIAN_POINT('',(2.140155839872,2.885160261056,-1.189552348332));
#661=CARTESIAN_POINT('',(1.903076994064,3.022037796503,-1.1938));
#662=CARTESIAN_POINT('',(1.78435,3.090584858486,-1.1938));
#663=CARTESIAN_POINT('',(3.5687,0.0,-1.1938));
#664=CARTESIAN_POINT('',(3.5687,0.1371137075563,-1.1938));
#665=CARTESIAN_POINT('',(3.5687,0.4109035756628,-1.189551153355));
#666=CARTESIAN_POINT('',(3.5687,0.8202509005149,-1.170805662035));
#667=CARTESIAN_POINT('',(3.5687,1.228335636967,-1.140501949986));
#668=CARTESIAN_POINT('',(3.5687,1.637985438876,-1.099502235474));
#669=CARTESIAN_POINT('',(3.5687,1.918673921199,-1.064857002196));
#670=CARTESIAN_POINT('',(3.5687,2.060389905657,-1.045870660401));
#671=CARTESIAN_POINT('',(1.78435,3.090584858486,-1.1938));
#672=CARTESIAN_POINT('',(1.665606046049,3.159141712264,-1.1938));
#673=CARTESIAN_POINT('',(1.42849706497,3.296036646317,-1.189551153355));
#674=CARTESIAN_POINT('',(1.073991882677,3.500710308743,-1.170805662035));
#675=CARTESIAN_POINT('',(0.7205801340131,3.704752676969,-1.140501949986));
#676=CARTESIAN_POINT('',(0.3658129989042,3.909577577924,-1.099502235474));
#677=CARTESIAN_POINT('',(0.1227296426626,4.049921819085,-1.064857002196));
#678=CARTESIAN_POINT('',(0.0,4.120779811314,-1.045870660401));
#679=CARTESIAN_POINT('',(-3.5687,-2.060389905657,-0.1479293395991));
#680=CARTESIAN_POINT('',(-3.5687,-2.060389905657,-0.1479293395991));
#681=VECTOR('',#849,0.8979413208018);
#682=CARTESIAN_POINT('',(-3.5687,0.0,0.0));
#683=CARTESIAN_POINT('',(-3.5687,-0.1371137075563,0.0));
#684=CARTESIAN_POINT('',(-3.5687,-0.4109035756628,-0.004248846645347));
#685=CARTESIAN_POINT('',(-3.5687,-0.8202509005149,-0.02299433796489));
#686=CARTESIAN_POINT('',(-3.5687,-1.228335636967,-0.05329805001393));
#687=CARTESIAN_POINT('',(-3.5687,-1.637985438876,-0.09429776452617));
#688=CARTESIAN_POINT('',(-3.5687,-1.918673921199,-0.1289429978041));
#689=CARTESIAN_POINT('',(-3.5687,-2.060389905657,-0.1479293395991));
#690=CARTESIAN_POINT('',(-3.5687,2.060389905657,-0.1479293395991));
#691=CARTESIAN_POINT('',(-3.5687,2.060389905657,-0.1479293395991));
#692=CARTESIAN_POINT('',(-3.5687,1.918682478264,-0.1289441442333));
#693=CARTESIAN_POINT('',(-3.5687,1.637997485791,-0.09429839339748));
#694=CARTESIAN_POINT('',(-3.5687,1.228216192574,-0.0532869192374));
#695=CARTESIAN_POINT('',(-3.5687,0.8201480383365,-0.02298863971734));
#696=CARTESIAN_POINT('',(-3.5687,0.4108491948591,-0.004247651668291));
#697=CARTESIAN_POINT('',(-3.5687,0.1370941239653,0.0));
#698=CARTESIAN_POINT('',(-3.5687,0.0,0.0));
#699=CARTESIAN_POINT('',(-3.5687,2.060389905657,-0.1479293395991));
#700=VECTOR('',#850,0.8979413208018);
#701=CARTESIAN_POINT('',(-1.78435,3.090584858486,0.0));
#702=CARTESIAN_POINT('',(-1.903093953951,3.022028004707,0.0));
#703=CARTESIAN_POINT('',(-2.14020293503,2.885133070654,-0.004248846645349));
#704=CARTESIAN_POINT('',(-2.494708117323,2.680459408228,-0.02299433796489));
#705=CARTESIAN_POINT('',(-2.848119865987,2.476417040002,-0.05329805001394));
#706=CARTESIAN_POINT('',(-3.202887001096,2.271592139047,-0.09429776452617));
#707=CARTESIAN_POINT('',(-3.445970357337,2.131247897886,-0.1289429978041));
#708=CARTESIAN_POINT('',(-3.5687,2.060389905657,-0.1479293395991));
#709=CARTESIAN_POINT('',(0.0,4.120779811314,-0.1479293395991));
#710=VECTOR('',#851,0.8979413208018);
#711=CARTESIAN_POINT('',(1.78435,3.090584858486,0.0));
#712=CARTESIAN_POINT('',(1.665606046049,3.159141712264,0.0));
#713=CARTESIAN_POINT('',(1.42849706497,3.296036646317,-0.004248846645352));
#714=CARTESIAN_POINT('',(1.073991882677,3.500710308743,-0.02299433796489));
#715=CARTESIAN_POINT('',(0.7205801340131,3.704752676969,-0.05329805001394));
#716=CARTESIAN_POINT('',(0.3658129989042,3.909577577924,-0.09429776452617));
#717=CARTESIAN_POINT('',(0.1227296426626,4.049921819085,-0.1289429978041));
#718=CARTESIAN_POINT('',(0.0,4.120779811314,-0.1479293395991));
#719=CARTESIAN_POINT('',(3.5687,2.060389905657,-0.1479293395991));
#720=CARTESIAN_POINT('',(3.5687,2.060389905657,-0.1479293395991));
#721=CARTESIAN_POINT('',(3.445977767972,2.131243619354,-0.1289441442333));
#722=CARTESIAN_POINT('',(3.20289743403,2.27158611559,-0.09429839339748));
#723=CARTESIAN_POINT('',(2.848016424109,2.476476762198,-0.0532869192374));
#724=CARTESIAN_POINT('',(2.494619036063,2.680510839317,-0.02298863971734));
#725=CARTESIAN_POINT('',(2.140155839872,2.885160261056,-0.004247651668296));
#726=CARTESIAN_POINT('',(1.903076994064,3.022037796503,0.0));
#727=CARTESIAN_POINT('',(1.78435,3.090584858486,0.0));
#728=CARTESIAN_POINT('',(3.5687,2.060389905657,-0.1479293395991));
#729=VECTOR('',#852,0.8979413208018);
#730=CARTESIAN_POINT('',(3.5687,-3.829964929692E-14,0.0));
#731=CARTESIAN_POINT('',(3.5687,0.1371137075562,0.0));
#732=CARTESIAN_POINT('',(3.5687,0.4109035756628,-0.004248846645354));
#733=CARTESIAN_POINT('',(3.5687,0.8202509005149,-0.02299433796489));
#734=CARTESIAN_POINT('',(3.5687,1.228335636967,-0.05329805001394));
#735=CARTESIAN_POINT('',(3.5687,1.637985438876,-0.09429776452617));
#736=CARTESIAN_POINT('',(3.5687,1.918673921199,-0.1289429978041));
#737=CARTESIAN_POINT('',(3.5687,2.060389905657,-0.1479293395991));
#738=CARTESIAN_POINT('',(3.5687,-2.060389905657,-0.1479293395991));
#739=CARTESIAN_POINT('',(3.5687,-2.060389905657,-0.1479293395991));
#740=CARTESIAN_POINT('',(3.5687,-1.918682478264,-0.1289441442333));
#741=CARTESIAN_POINT('',(3.5687,-1.637997485791,-0.09429839339748));
#742=CARTESIAN_POINT('',(3.5687,-1.228216192574,-0.0532869192374));
#743=CARTESIAN_POINT('',(3.5687,-0.8201480383365,-0.02298863971734));
#744=CARTESIAN_POINT('',(3.5687,-0.4108491948591,-0.004247651668297));
#745=CARTESIAN_POINT('',(3.5687,-0.1370941239653,0.0));
#746=CARTESIAN_POINT('',(3.5687,-3.829964929692E-14,0.0));
#747=CARTESIAN_POINT('',(3.5687,-2.060389905657,-0.1479293395991));
#748=VECTOR('',#853,0.8979413208018);
#749=CARTESIAN_POINT('',(1.78435,-3.090584858486,0.0));
#750=CARTESIAN_POINT('',(1.903093953951,-3.022028004707,0.0));
#751=CARTESIAN_POINT('',(2.14020293503,-2.885133070654,-0.004248846645351));
#752=CARTESIAN_POINT('',(2.494708117323,-2.680459408228,-0.02299433796489));
#753=CARTESIAN_POINT('',(2.848119865987,-2.476417040002,-0.05329805001394));
#754=CARTESIAN_POINT('',(3.202887001096,-2.271592139047,-0.09429776452617));
#755=CARTESIAN_POINT('',(3.445970357337,-2.131247897886,-0.1289429978041));
#756=CARTESIAN_POINT('',(3.5687,-2.060389905657,-0.1479293395991));
#757=CARTESIAN_POINT('',(0.0,-4.120779811314,-0.1479293395991));
#758=CARTESIAN_POINT('',(0.1227222320277,-4.049926097617,-0.1289441442333));
#759=CARTESIAN_POINT('',(0.36580256597,-3.909583601381,-0.09429839339748));
#760=CARTESIAN_POINT('',(0.7206835758913,-3.704692954773,-0.0532869192374));
#761=CARTESIAN_POINT('',(1.074080963937,-3.500658877654,-0.02298863971734));
#762=CARTESIAN_POINT('',(1.428544160128,-3.296009455915,-0.004247651668295));
#763=CARTESIAN_POINT('',(1.665623005936,-3.159131920468,0.0));
#764=CARTESIAN_POINT('',(1.78435,-3.090584858486,0.0));
#765=CARTESIAN_POINT('',(0.0,-4.120779811314,-0.1479293395991));
#766=VECTOR('',#854,0.8979413208018);
#767=CARTESIAN_POINT('',(0.0,-4.120779811314,-1.045870660401));
#768=CARTESIAN_POINT('',(0.1227222320277,-4.049926097617,-1.064855855767));
#769=CARTESIAN_POINT('',(0.36580256597,-3.909583601381,-1.099501606603));
#770=CARTESIAN_POINT('',(0.7206835758913,-3.704692954773,-1.140513080763));
#771=CARTESIAN_POINT('',(1.074080963937,-3.500658877654,-1.170811360283));
#772=CARTESIAN_POINT('',(1.428544160128,-3.296009455915,-1.189552348332));
#773=CARTESIAN_POINT('',(1.665623005936,-3.159131920468,-1.1938));
#774=CARTESIAN_POINT('',(1.78435,-3.090584858486,-1.1938));
#775=CARTESIAN_POINT('',(-3.5687,-2.060389905657,-0.1479293395991));
#776=CARTESIAN_POINT('',(-3.445977767972,-2.131243619354,-0.1289441442333));
#777=CARTESIAN_POINT('',(-3.20289743403,-2.27158611559,-0.09429839339748));
#778=CARTESIAN_POINT('',(-2.848016424109,-2.476476762198,-0.0532869192374));
#779=CARTESIAN_POINT('',(-2.494619036063,-2.680510839317,-0.02298863971734));
#780=CARTESIAN_POINT('',(-2.140155839872,-2.885160261056,-0.004247651668292));
#781=CARTESIAN_POINT('',(-1.903076994063,-3.022037796503,0.0));
#782=CARTESIAN_POINT('',(-1.78435,-3.090584858486,0.0));
#783=DIRECTION('',(-1.18291797137859E-16,-0.965925826289004,-0.258819045102759));
#784=CARTESIAN_POINT('',(0.0,0.0,0.0));
#785=DIRECTION('',(0.0,0.0,1.0));
#786=DIRECTION('',(-0.500000000000017,-0.866025403784429,0.0));
#787=DIRECTION('',(-1.18291797137859E-16,-0.965925826289004,0.258819045102759));
#788=CARTESIAN_POINT('',(0.0,0.0,0.0));
#789=DIRECTION('',(0.0,-0.0,1.0));
#790=DIRECTION('',(0.500000000000017,0.866025403784429,0.0));
#791=DIRECTION('',(-1.18291797137859E-16,0.965925826289004,-0.258819045102759));
#792=CARTESIAN_POINT('',(0.0,0.0,-1.1938));
#793=DIRECTION('',(0.0,0.0,-1.0));
#794=DIRECTION('',(0.500000000000017,-0.866025403784429,0.0));
#795=DIRECTION('',(-1.18291797137859E-16,0.965925826289004,0.258819045102759));
#796=CARTESIAN_POINT('',(0.0,0.0,-1.1938));
#797=DIRECTION('',(0.0,0.0,-1.0));
#798=DIRECTION('',(-0.500000000000017,0.866025403784429,0.0));
#799=CARTESIAN_POINT('',(0.0,0.0,0.0));
#800=DIRECTION('',(0.0,0.0,1.0));
#801=DIRECTION('',(-0.500000000000017,0.866025403784429,0.0));
#802=CARTESIAN_POINT('',(0.0,0.0,0.0));
#803=DIRECTION('',(0.0,0.0,1.0));
#804=DIRECTION('',(-1.0,0.0,0.0));
#805=CARTESIAN_POINT('',(0.0,0.0,0.0));
#806=DIRECTION('',(0.0,0.0,1.0));
#807=DIRECTION('',(-0.500000000000017,-0.866025403784429,0.0));
#808=CARTESIAN_POINT('',(0.0,0.0,0.0));
#809=DIRECTION('',(0.0,0.0,1.0));
#810=DIRECTION('',(0.500000000000017,-0.866025403784429,0.0));
#811=CARTESIAN_POINT('',(0.0,0.0,0.0));
#812=DIRECTION('',(0.0,0.0,1.0));
#813=DIRECTION('',(1.0,-1.476383124918E-14,0.0));
#814=CARTESIAN_POINT('',(0.0,0.0,0.0));
#815=DIRECTION('',(0.0,-0.0,1.0));
#816=DIRECTION('',(0.500000000000017,0.866025403784429,0.0));
#817=CARTESIAN_POINT('',(0.0,0.0,0.0));
#818=DIRECTION('',(0.0,0.0,1.0));
#819=DIRECTION('',(1.0,0.0,0.0));
#820=CARTESIAN_POINT('',(0.0,0.0,0.0));
#821=DIRECTION('',(0.0,0.0,1.0));
#822=DIRECTION('',(-1.0,0.0,0.0));
#823=DIRECTION('',(0.0,0.0,1.0));
#824=CARTESIAN_POINT('',(0.0,0.0,-1.1938));
#825=DIRECTION('',(0.0,0.0,1.0));
#826=DIRECTION('',(-1.0,0.0,0.0));
#827=DIRECTION('',(0.0,0.0,1.0));
#828=CARTESIAN_POINT('',(0.0,0.0,-1.1938));
#829=DIRECTION('',(0.0,0.0,1.0));
#830=DIRECTION('',(1.0,0.0,0.0));
#831=CARTESIAN_POINT('',(0.0,0.0,-1.1938));
#832=DIRECTION('',(0.0,0.0,1.0));
#833=DIRECTION('',(1.0,0.0,0.0));
#834=CARTESIAN_POINT('',(0.0,0.0,-1.1938));
#835=DIRECTION('',(0.0,0.0,1.0));
#836=DIRECTION('',(0.500000000000017,-0.866025403784429,0.0));
#837=CARTESIAN_POINT('',(0.0,0.0,-1.1938));
#838=DIRECTION('',(0.0,0.0,-1.0));
#839=DIRECTION('',(0.500000000000017,-0.866025403784429,0.0));
#840=CARTESIAN_POINT('',(0.0,0.0,-1.1938));
#841=DIRECTION('',(0.0,0.0,1.0));
#842=DIRECTION('',(-1.0,0.0,0.0));
#843=CARTESIAN_POINT('',(0.0,0.0,-1.1938));
#844=DIRECTION('',(0.0,0.0,1.0));
#845=DIRECTION('',(-0.500000000000017,0.866025403784429,0.0));
#846=CARTESIAN_POINT('',(0.0,0.0,-1.1938));
#847=DIRECTION('',(0.0,0.0,-1.0));
#848=DIRECTION('',(-0.500000000000017,0.866025403784429,0.0));
#849=DIRECTION('',(0.0,0.0,-1.0));
#850=DIRECTION('',(0.0,0.0,-1.0));
#851=DIRECTION('',(0.0,0.0,-1.0));
#852=DIRECTION('',(0.0,0.0,-1.0));
#853=DIRECTION('',(0.0,0.0,-1.0));
#854=DIRECTION('',(0.0,0.0,-1.0));
#855=PRESENTATION_LAYER_ASSIGNMENT('','',(#24,#46,#47,#48,#49,#50,#51,#52,#53,#54,#55,#56,#57,#58,#59,#60,#61,#62,#63,#64,#65,#66,#67,#68,#69,#70,#71,#372,#373,#375,#376,#378,#379,#381,#382,#383,#384,#385,#386,#387,#388,#389,#390,#391,#392,#393,#394,#395,#396,#397,#398,#399,#400,#401,#402,#403,#404,#405,#406,#407,#408,#409,#410,#411,#412,#413,#414,#415,#416,#417,#418,#419,#420,#421,#422,#423,#424,#425,#426,#428,#430,#433,#436,#439,#442,#446,#448,#451,#454,#456,#458,#461,#462,#465,#467,#471,#472,#474,#477,#481,#484,#487,#490,#494,#497,#503,#507));
ENDSEC;
END-ISO-10303-21;
