ISO-10303-21;
HEADER;
FILE_DESCRIPTION (( 'STEP AP214' ),
    '1' );
FILE_NAME ('4590R-335K.STEP',
    '2024-08-28T03:58:42',
    ( '' ),
    ( '' ),
    'SwSTEP 2.0',
    'SolidWorks 2020',
    '' );
FILE_SCHEMA (( 'AUTOMOTIVE_DESIGN' ));
ENDSEC;

DATA;
#1 = DIRECTION ( 'NONE',  ( 0.000000000000000000, 0.000000000000000000, -1.000000000000000000 ) ) ;
#2 = EDGE_CURVE ( 'NONE', #676, #1067, #383, .T. ) ;
#3 = DIRECTION ( 'NONE',  ( -1.224646799147353207E-16, -1.000000000000000000, -0.000000000000000000 ) ) ;
#4 = CARTESIAN_POINT ( 'NONE',  ( -5.475000000000003197, 19.06502525316941288, 6.704941225331761589E-16 ) ) ;
#5 = DIRECTION ( 'NONE',  ( 1.000000000000000000, -1.224646799147353207E-16, 0.000000000000000000 ) ) ;
#6 = CARTESIAN_POINT ( 'NONE',  ( 0.000000000000000000, 22.85999999999999943, 0.000000000000000000 ) ) ;
#7 = ORIENTED_EDGE ( 'NONE', *, *, #471, .T. ) ;
#8 = CARTESIAN_POINT ( 'NONE',  ( 0.000000000000000000, 22.85999999999999943, 0.000000000000000000 ) ) ;
#9 = DIRECTION ( 'NONE',  ( 1.000000000000000000, 0.000000000000000000, 0.000000000000000000 ) ) ;
#10 = EDGE_CURVE ( 'NONE', #286, #1135, #365, .T. ) ;
#11 =( GEOMETRIC_REPRESENTATION_CONTEXT ( 3 ) GLOBAL_UNCERTAINTY_ASSIGNED_CONTEXT ( ( #264 ) ) GLOBAL_UNIT_ASSIGNED_CONTEXT ( ( #244, #136, #935 ) ) REPRESENTATION_CONTEXT ( 'NONE', 'WORKASPACE' ) );
#12 = CARTESIAN_POINT ( 'NONE',  ( -0.4065000000000079106, 22.85999999999999943, 4.978189238534088232E-17 ) ) ;
#13 = AXIS2_PLACEMENT_3D ( 'NONE', #4, #867, #965 ) ;
#14 = DIRECTION ( 'NONE',  ( 1.000000000000000000, -1.816464372750580916E-16, 0.000000000000000000 ) ) ;
#15 = CONICAL_SURFACE ( 'NONE', #1019, 5.022487373415295941, 0.7853981633974602694 ) ;
#16 = ORIENTED_EDGE ( 'NONE', *, *, #178, .F. ) ;
#17 = DIRECTION ( 'NONE',  ( 1.000000000000000000, 0.000000000000000000, 0.000000000000000000 ) ) ;
#18 = DIRECTION ( 'NONE',  ( -1.224646799147353207E-16, -1.000000000000000000, -0.000000000000000000 ) ) ;
#19 = EDGE_CURVE ( 'NONE', #112, #135, #1139, .T. ) ;
#20 = VERTEX_POINT ( 'NONE', #1140 ) ;
#21 = EDGE_CURVE ( 'NONE', #1051, #20, #811, .T. ) ;
#22 = FACE_OUTER_BOUND ( 'NONE', #599, .T. ) ;
#23 = DIRECTION ( 'NONE',  ( -1.224646799147353207E-16, -1.000000000000000000, -0.000000000000000000 ) ) ;
#24 = ADVANCED_FACE ( 'NONE', ( #534 ), #966, .T. ) ;
#25 = EDGE_LOOP ( 'NONE', ( #295, #684, #872, #300 ) ) ;
#26 = DIRECTION ( 'NONE',  ( -1.224646799147353207E-16, -1.000000000000000000, -0.000000000000000000 ) ) ;
#27 = CARTESIAN_POINT ( 'NONE',  ( 8.721810112350693441E-32, 7.121898426895948012E-16, 0.000000000000000000 ) ) ;
#28 = CONICAL_SURFACE ( 'NONE', #545, 5.672487373415291856, 0.7853981633974492782 ) ;
#29 = LINE ( 'NONE', #111, #778 ) ;
#30 = CIRCLE ( 'NONE', #344, 0.3500000000000013656 ) ;
#31 = ORIENTED_EDGE ( 'NONE', *, *, #203, .T. ) ;
#32 = AXIS2_PLACEMENT_3D ( 'NONE', #1039, #932, #341 ) ;
#33 = AXIS2_PLACEMENT_3D ( 'NONE', #319, #917, #411 ) ;
#34 = FACE_OUTER_BOUND ( 'NONE', #77, .T. ) ;
#35 = CARTESIAN_POINT ( 'NONE',  ( -5.227512626584712940, 19.31251262658470935, 6.401856605649340085E-16 ) ) ;
#36 = DIRECTION ( 'NONE',  ( 1.000000000000000000, 0.000000000000000000, 0.000000000000000000 ) ) ;
#37 = VERTEX_POINT ( 'NONE', #879 ) ;
#38 = EDGE_CURVE ( 'NONE', #889, #1108, #85, .T. ) ;
#39 = CARTESIAN_POINT ( 'NONE',  ( -4.775000000000003020, 17.85497474683057817, 5.847688465928614763E-16 ) ) ;
#40 = FILL_AREA_STYLE ('',( #1103 ) ) ;
#41 = DIRECTION ( 'NONE',  ( -1.000000000000000000, 0.000000000000000000, 0.000000000000000000 ) ) ;
#42 = EDGE_LOOP ( 'NONE', ( #637, #578, #290, #242 ) ) ;
#43 =( GEOMETRIC_REPRESENTATION_CONTEXT ( 3 ) GLOBAL_UNCERTAINTY_ASSIGNED_CONTEXT ( ( #957 ) ) GLOBAL_UNIT_ASSIGNED_CONTEXT ( ( #690, #1002, #131 ) ) REPRESENTATION_CONTEXT ( 'NONE', 'WORKASPACE' ) );
#44 = CARTESIAN_POINT ( 'NONE',  ( -6.913100254973713590E-16, 17.21502525316941501, 0.000000000000000000 ) ) ;
#45 = CARTESIAN_POINT ( 'NONE',  ( 0.000000000000000000, 22.85999999999999943, 0.000000000000000000 ) ) ;
#46 = AXIS2_PLACEMENT_3D ( 'NONE', #797, #802, #301 ) ;
#47 = EDGE_LOOP ( 'NONE', ( #465, #1127, #937, #610 ) ) ;
#48 = CIRCLE ( 'NONE', #227, 4.877512626584709743 ) ;
#49 = UNCERTAINTY_MEASURE_WITH_UNIT (LENGTH_MEASURE( 1.000000000000000082E-05 ), #951, 'distance_accuracy_value', 'NONE');
#50 = TOROIDAL_SURFACE ( 'NONE', #586, 5.125000000000006217, 0.3499999999999995892 ) ;
#51 = AXIS2_PLACEMENT_3D ( 'NONE', #741, #648, #310 ) ;
#52 = CYLINDRICAL_SURFACE ( 'NONE', #967, 0.4065000000000016933 ) ;
#53 = EDGE_CURVE ( 'NONE', #1051, #1117, #744, .T. ) ;
#54 = ORIENTED_EDGE ( 'NONE', *, *, #178, .T. ) ;
#55 = ORIENTED_EDGE ( 'NONE', *, *, #126, .T. ) ;
#56 =( LENGTH_UNIT ( ) NAMED_UNIT ( * ) SI_UNIT ( .MILLI., .METRE. ) );
#57 = CARTESIAN_POINT ( 'NONE',  ( 8.211184810073671771E-32, 22.85999999999999943, 0.000000000000000000 ) ) ;
#59 = ORIENTED_EDGE ( 'NONE', *, *, #568, .T. ) ;
#58 = DIRECTION ( 'NONE',  ( -1.224646799147353207E-16, -1.000000000000000000, -0.000000000000000000 ) ) ;
#60 = ADVANCED_FACE ( 'NONE', ( #189 ), #988, .T. ) ;
#61 = ORIENTED_EDGE ( 'NONE', *, *, #934, .F. ) ;
#62 = AXIS2_PLACEMENT_3D ( 'NONE', #240, #573, #139 ) ;
#63 = EDGE_LOOP ( 'NONE', ( #314, #279 ) ) ;
#64 = MECHANICAL_DESIGN_GEOMETRIC_PRESENTATION_REPRESENTATION (  '', ( #246 ), #1088 ) ;
#65 = AXIS2_PLACEMENT_3D ( 'NONE', #736, #484, #9 ) ;
#66 = CIRCLE ( 'NONE', #813, 4.877512626584709743 ) ;
#67 =( NAMED_UNIT ( * ) PLANE_ANGLE_UNIT ( ) SI_UNIT ( $, .RADIAN. ) );
#68 = CIRCLE ( 'NONE', #406, 4.775000000000006573 ) ;
#69 = AXIS2_PLACEMENT_3D ( 'NONE', #172, #804, #1072 ) ;
#70 = CYLINDRICAL_SURFACE ( 'NONE', #500, 5.125000000000002665 ) ;
#71 = VERTEX_POINT ( 'NONE', #554 ) ;
#72 = ORIENTED_EDGE ( 'NONE', *, *, #561, .F. ) ;
#73 = SURFACE_STYLE_FILL_AREA ( #151 ) ;
#74 = EDGE_CURVE ( 'NONE', #605, #592, #404, .T. ) ;
#75 = LINE ( 'NONE', #977, #830 ) ;
#76 = VERTEX_POINT ( 'NONE', #360 ) ;
#77 = EDGE_LOOP ( 'NONE', ( #72, #933, #221, #265 ) ) ;
#78 = DIRECTION ( 'NONE',  ( 1.000000000000000000, 0.000000000000000000, 0.000000000000000000 ) ) ;
#79 = DIRECTION ( 'NONE',  ( -1.224646799147353207E-16, -1.000000000000000000, -0.000000000000000000 ) ) ;
#80 = DIRECTION ( 'NONE',  ( -1.224646799147353207E-16, -1.000000000000000000, -0.000000000000000000 ) ) ;
#81 = ADVANCED_FACE ( 'NONE', ( #708 ), #143, .T. ) ;
#82 = ORIENTED_EDGE ( 'NONE', *, *, #782, .F. ) ;
#83 = AXIS2_PLACEMENT_3D ( 'NONE', #824, #536, #346 ) ;
#84 = CARTESIAN_POINT ( 'NONE',  ( -2.799542582850849100E-15, 0.000000000000000000, 0.000000000000000000 ) ) ;
#85 = CIRCLE ( 'NONE', #309, 0.3500000000000013656 ) ;
#86 = AXIS2_PLACEMENT_3D ( 'NONE', #748, #669, #818 ) ;
#87 = CARTESIAN_POINT ( 'NONE',  ( 0.000000000000000000, 22.85999999999999943, 0.000000000000000000 ) ) ;
#88 = CARTESIAN_POINT ( 'NONE',  ( 0.000000000000000000, 22.85999999999999943, 0.000000000000000000 ) ) ;
#89 = AXIS2_PLACEMENT_3D ( 'NONE', #1070, #785, #194 ) ;
#90 = CARTESIAN_POINT ( 'NONE',  ( 3.048261758260276782E-33, -27.94000000000000483, 0.000000000000000000 ) ) ;
#91 = ADVANCED_FACE ( 'NONE', ( #1055 ), #640, .F. ) ;
#92 = ORIENTED_EDGE ( 'NONE', *, *, #434, .T. ) ;
#93 = CARTESIAN_POINT ( 'NONE',  ( -5.475000000000005862, 0.1000000000000000611, 6.704941225331762575E-16 ) ) ;
#94 = CARTESIAN_POINT ( 'NONE',  ( -5.125000000000002665, 22.85999999999999943, 6.276314845630188176E-16 ) ) ;
#95 = DIRECTION ( 'NONE',  ( -1.224646799147353207E-16, -1.000000000000000000, -0.000000000000000000 ) ) ;
#96 = ORIENTED_EDGE ( 'NONE', *, *, #537, .F. ) ;
#97 = DIRECTION ( 'NONE',  ( -1.224646799147353207E-16, -1.000000000000000000, -0.000000000000000000 ) ) ;
#98 = CARTESIAN_POINT ( 'NONE',  ( 5.475000000000003197, 22.85999999999999943, 0.000000000000000000 ) ) ;
#99 = COLOUR_RGB ( '',0.7921568627450980005, 0.8196078431372548767, 0.9333333333333333481 ) ;
#100 = ORIENTED_EDGE ( 'NONE', *, *, #532, .T. ) ;
#101 = CARTESIAN_POINT ( 'NONE',  ( -5.775000000000000355, 22.85999999999999943, 7.072335265075966244E-16 ) ) ;
#102 = CARTESIAN_POINT ( 'NONE',  ( -5.775000000000008349, 7.072335265075971175E-16, 7.072335265075971175E-16 ) ) ;
#103 = ADVANCED_FACE ( 'NONE', ( #714 ), #1056, .T. ) ;
#104 = LINE ( 'NONE', #821, #407 ) ;
#105 = AXIS2_PLACEMENT_3D ( 'NONE', #1101, #222, #771 ) ;
#106 = DIRECTION ( 'NONE',  ( 0.7071067811865483499, 0.7071067811865466846, 8.659560562354941486E-17 ) ) ;
#107 = AXIS2_PLACEMENT_3D ( 'NONE', #336, #1030, #245 ) ;
#108 = ORIENTED_EDGE ( 'NONE', *, *, #424, .F. ) ;
#109 = LINE ( 'NONE', #372, #307 ) ;
#110 = ADVANCED_FACE ( 'NONE', ( #892 ), #973, .T. ) ;
#111 = CARTESIAN_POINT ( 'NONE',  ( 5.672487373415291856, 19.75748737341528738, 6.946793505056814335E-16 ) ) ;
#112 = VERTEX_POINT ( 'NONE', #1066 ) ;
#113 = SURFACE_STYLE_FILL_AREA ( #587 ) ;
#114 = LINE ( 'NONE', #895, #292 ) ;
#115 = CARTESIAN_POINT ( 'NONE',  ( -5.022487373415296830, 17.60748737341528880, 0.000000000000000000 ) ) ;
#116 = EDGE_CURVE ( 'NONE', #135, #112, #68, .T. ) ;
#117 = EDGE_LOOP ( 'NONE', ( #784, #868 ) ) ;
#118 = EDGE_CURVE ( 'NONE', #1016, #800, #906, .T. ) ;
#119 = LINE ( 'NONE', #496, #1053 ) ;
#120 = DIRECTION ( 'NONE',  ( 0.7071067811865482389, -0.7071067811865469066, 0.000000000000000000 ) ) ;
#121 = AXIS2_PLACEMENT_3D ( 'NONE', #460, #739, #287 ) ;
#122 = AXIS2_PLACEMENT_3D ( 'NONE', #393, #97, #981 ) ;
#123 = DIRECTION ( 'NONE',  ( 1.000000000000000000, 0.000000000000000000, 0.000000000000000000 ) ) ;
#124 = CIRCLE ( 'NONE', #229, 5.475000000000003197 ) ;
#125 = ORIENTED_EDGE ( 'NONE', *, *, #877, .T. ) ;
#126 = EDGE_CURVE ( 'NONE', #433, #946, #208, .T. ) ;
#127 = AXIS2_PLACEMENT_3D ( 'NONE', #822, #304, #1013 ) ;
#128 = AXIS2_PLACEMENT_3D ( 'NONE', #27, #198, #394 ) ;
#129 = CARTESIAN_POINT ( 'NONE',  ( -0.4065000000000158487, -27.94000000000000483, 4.978189238534130141E-17 ) ) ;
#130 = LINE ( 'NONE', #115, #869 ) ;
#132 = ORIENTED_EDGE ( 'NONE', *, *, #348, .T. ) ;
#131 =( NAMED_UNIT ( * ) SI_UNIT ( $, .STERADIAN. ) SOLID_ANGLE_UNIT ( ) );
#133 = EDGE_CURVE ( 'NONE', #761, #392, #312, .T. ) ;
#134 = CARTESIAN_POINT ( 'NONE',  ( -5.775000000000002132, 20.00497474683058030, 7.072335265075968217E-16 ) ) ;
#135 = VERTEX_POINT ( 'NONE', #733 ) ;
#136 =( NAMED_UNIT ( * ) PLANE_ANGLE_UNIT ( ) SI_UNIT ( $, .RADIAN. ) );
#137 = EDGE_CURVE ( 'NONE', #71, #76, #1003, .T. ) ;
#138 = CARTESIAN_POINT ( 'NONE',  ( 0.000000000000000000, 22.85999999999999943, 0.000000000000000000 ) ) ;
#140 = ORIENTED_EDGE ( 'NONE', *, *, #754, .T. ) ;
#139 = DIRECTION ( 'NONE',  ( 1.000000000000000000, -1.224646799147353207E-16, 0.000000000000000000 ) ) ;
#141 = AXIS2_PLACEMENT_3D ( 'NONE', #419, #462, #480 ) ;
#142 = ORIENTED_EDGE ( 'NONE', *, *, #1145, .F. ) ;
#143 = TOROIDAL_SURFACE ( 'NONE', #852, 4.775000000000002132, 0.3500000000000004774 ) ;
#144 = PRESENTATION_STYLE_ASSIGNMENT (( #1044 ) ) ;
#145 = AXIS2_PLACEMENT_3D ( 'NONE', #603, #146, #856 ) ;
#146 = DIRECTION ( 'NONE',  ( -1.224646799147353207E-16, -1.000000000000000000, -0.000000000000000000 ) ) ;
#147 = EDGE_CURVE ( 'NONE', #946, #488, #29, .T. ) ;
#149 = ORIENTED_EDGE ( 'NONE', *, *, #450, .F. ) ;
#148 = APPLICATION_PROTOCOL_DEFINITION ( 'draft international standard', 'automotive_design', 1998, #398 ) ;
#150 = EDGE_LOOP ( 'NONE', ( #270, #493, #620, #1130 ) ) ;
#151 = FILL_AREA_STYLE ('',( #940 ) ) ;
#152 = DIRECTION ( 'NONE',  ( 1.000000000000000000, 0.000000000000000000, 0.000000000000000000 ) ) ;
#153 = MANIFOLD_SOLID_BREP ( 'Revolve2[2]', #660 ) ;
#154 = ORIENTED_EDGE ( 'NONE', *, *, #621, .F. ) ;
#155 = EDGE_LOOP ( 'NONE', ( #31, #788, #836, #142 ) ) ;
#156 =( NAMED_UNIT ( * ) PLANE_ANGLE_UNIT ( ) SI_UNIT ( $, .RADIAN. ) );
#157 = DIRECTION ( 'NONE',  ( -1.224646799147353207E-16, -1.000000000000000000, -0.000000000000000000 ) ) ;
#158 = ORIENTED_EDGE ( 'NONE', *, *, #315, .T. ) ;
#159 = CIRCLE ( 'NONE', #359, 5.775000000000005684 ) ;
#160 = ORIENTED_EDGE ( 'NONE', *, *, #657, .F. ) ;
#161 = ADVANCED_FACE ( 'NONE', ( #913 ), #653, .T. ) ;
#162 = VECTOR ( 'NONE', #544, 1000.000000000000000 ) ;
#163 = CARTESIAN_POINT ( 'NONE',  ( 8.661112744872225769E-32, 22.85999999999999943, 0.000000000000000000 ) ) ;
#164 = AXIS2_PLACEMENT_3D ( 'NONE', #349, #597, #510 ) ;
#165 = DIRECTION ( 'NONE',  ( 1.000000000000000000, 0.000000000000000000, 0.000000000000000000 ) ) ;
#166 = DIRECTION ( 'NONE',  ( -0.7071067811865483499, -0.7071067811865466846, 8.659560562354941486E-17 ) ) ;
#167 = DIRECTION ( 'NONE',  ( 1.000000000000000000, -1.212920238625335228E-16, 0.000000000000000000 ) ) ;
#168 = EDGE_LOOP ( 'NONE', ( #909, #728, #55, #649 ) ) ;
#169 = PLANE ( 'NONE',  #400 ) ;
#170 = CARTESIAN_POINT ( 'NONE',  ( 0.000000000000000000, 22.85999999999999943, 0.000000000000000000 ) ) ;
#171 = CYLINDRICAL_SURFACE ( 'NONE', #207, 0.4065000000000016933 ) ;
#172 = CARTESIAN_POINT ( 'NONE',  ( -6.221205739668554519E-15, -27.94000000000000483, 0.000000000000000000 ) ) ;
#173 = DIRECTION ( 'NONE',  ( -1.224646799147353207E-16, -1.000000000000000000, -0.000000000000000000 ) ) ;
#174 = CYLINDRICAL_SURFACE ( 'NONE', #658, 5.125000000000002665 ) ;
#175 = EDGE_LOOP ( 'NONE', ( #735, #514, #893, #231 ) ) ;
#176 = FACE_OUTER_BOUND ( 'NONE', #42, .T. ) ;
#177 = CARTESIAN_POINT ( 'NONE',  ( 3.421663156817704631E-15, 50.79999999999999716, 0.000000000000000000 ) ) ;
#178 = EDGE_CURVE ( 'NONE', #680, #426, #746, .T. ) ;
#179 = DIRECTION ( 'NONE',  ( 1.000000000000000000, 0.000000000000000000, -1.224646799147352961E-16 ) ) ;
#180 = CIRCLE ( 'NONE', #918, 0.4065000000000034142 ) ;
#181 = EDGE_LOOP ( 'NONE', ( #958, #1112 ) ) ;
#182 = COLOUR_RGB ( '',1.000000000000000000, 0.9372549019607843146, 0.1372549019607843257 ) ;
#183 = DIRECTION ( 'NONE',  ( 1.000000000000000000, -1.224646799147353207E-16, 0.000000000000000000 ) ) ;
#184 = CIRCLE ( 'NONE', #1124, 0.3499999999999996447 ) ;
#185 = DIRECTION ( 'NONE',  ( -1.224646799147353207E-16, -1.000000000000000000, -0.000000000000000000 ) ) ;
#186 = MECHANICAL_DESIGN_GEOMETRIC_PRESENTATION_REPRESENTATION (  '', ( #274 ), #795 ) ;
#187 = FACE_OUTER_BOUND ( 'NONE', #25, .T. ) ;
#188 = ADVANCED_FACE ( 'NONE', ( #298 ), #15, .T. ) ;
#189 = FACE_OUTER_BOUND ( 'NONE', #755, .T. ) ;
#190 =( GEOMETRIC_REPRESENTATION_CONTEXT ( 3 ) GLOBAL_UNCERTAINTY_ASSIGNED_CONTEXT ( ( #695 ) ) GLOBAL_UNIT_ASSIGNED_CONTEXT ( ( #628, #1065, #455 ) ) REPRESENTATION_CONTEXT ( 'NONE', 'WORKASPACE' ) );
#191 = DIRECTION ( 'NONE',  ( -1.224646799147353207E-16, -1.000000000000000000, 0.000000000000000000 ) ) ;
#192 = ORIENTED_EDGE ( 'NONE', *, *, #203, .F. ) ;
#193 = CARTESIAN_POINT ( 'NONE',  ( -5.774999999999998579, 22.85999999999999943, 7.072335265075965258E-16 ) ) ;
#194 = DIRECTION ( 'NONE',  ( 1.000000000000000000, 0.000000000000000000, 0.000000000000000000 ) ) ;
#195 = CARTESIAN_POINT ( 'NONE',  ( 8.211184810073671771E-32, 22.85999999999999943, 0.000000000000000000 ) ) ;
#196 = ORIENTED_EDGE ( 'NONE', *, *, #450, .T. ) ;
#197 = DIRECTION ( 'NONE',  ( 1.000000000000000000, 0.000000000000000000, 0.000000000000000000 ) ) ;
#198 = DIRECTION ( 'NONE',  ( 1.224646799147353207E-16, 1.000000000000000000, 0.000000000000000000 ) ) ;
#199 = FACE_OUTER_BOUND ( 'NONE', #258, .T. ) ;
#200 = CARTESIAN_POINT ( 'NONE',  ( -5.775000000000005684, 22.85999999999999943, 7.072335265075971175E-16 ) ) ;
#201 = ORIENTED_EDGE ( 'NONE', *, *, #38, .F. ) ;
#202 = DIRECTION ( 'NONE',  ( 1.000000000000000000, -1.224646799147353207E-16, 0.000000000000000000 ) ) ;
#203 = EDGE_CURVE ( 'NONE', #812, #862, #888, .T. ) ;
#204 = PRESENTATION_LAYER_ASSIGNMENT (  '', '', ( #938 ) ) ;
#205 = AXIS2_PLACEMENT_3D ( 'NONE', #521, #949, #612 ) ;
#206 = DIRECTION ( 'NONE',  ( -1.000000000000000000, 0.000000000000000000, 0.000000000000000000 ) ) ;
#207 = AXIS2_PLACEMENT_3D ( 'NONE', #8, #698, #845 ) ;
#208 = CIRCLE ( 'NONE', #86, 5.227512626584710276 ) ;
#209 = ORIENTED_EDGE ( 'NONE', *, *, #399, .T. ) ;
#210 = CARTESIAN_POINT ( 'NONE',  ( -4.344419056868685534E-16, 19.31251262658470935, 0.000000000000000000 ) ) ;
#211 = PRODUCT_DEFINITION_SHAPE ( 'NONE', 'NONE',  #456 ) ;
#212 = DIRECTION ( 'NONE',  ( -1.224646799147353207E-16, -1.000000000000000000, -0.000000000000000000 ) ) ;
#213 = CARTESIAN_POINT ( 'NONE',  ( 0.000000000000000000, 22.85999999999999943, 0.000000000000000000 ) ) ;
#214 = FACE_OUTER_BOUND ( 'NONE', #445, .T. ) ;
#215 = EDGE_LOOP ( 'NONE', ( #880, #1142, #458, #108 ) ) ;
#216 = FACE_OUTER_BOUND ( 'NONE', #585, .T. ) ;
#217 = DIRECTION ( 'NONE',  ( -1.224646799147353207E-16, -1.000000000000000000, -0.000000000000000000 ) ) ;
#218 = CIRCLE ( 'NONE', #1064, 5.227512626584710276 ) ;
#219 = CYLINDRICAL_SURFACE ( 'NONE', #232, 5.775000000000000355 ) ;
#220 = ADVANCED_FACE ( 'NONE', ( #662 ), #219, .T. ) ;
#221 = ORIENTED_EDGE ( 'NONE', *, *, #256, .T. ) ;
#222 = DIRECTION ( 'NONE',  ( -1.224646799147353207E-16, -1.000000000000000000, -0.000000000000000000 ) ) ;
#223 = PRODUCT_DEFINITION_FORMATION_WITH_SPECIFIED_SOURCE ( 'ANY', '', #303, .NOT_KNOWN. ) ;
#224 = SURFACE_STYLE_USAGE ( .BOTH. , #1029 ) ;
#225 = SURFACE_SIDE_STYLE ('',( #416 ) ) ;
#226 = CIRCLE ( 'NONE', #1136, 5.775000000000001243 ) ;
#227 = AXIS2_PLACEMENT_3D ( 'NONE', #296, #280, #1144 ) ;
#228 = DIRECTION ( 'NONE',  ( -1.000000000000000000, 0.000000000000000000, 0.000000000000000000 ) ) ;
#229 = AXIS2_PLACEMENT_3D ( 'NONE', #569, #217, #1095 ) ;
#230 = ADVANCED_FACE ( 'NONE', ( #835 ), #902, .F. ) ;
#231 = ORIENTED_EDGE ( 'NONE', *, *, #537, .T. ) ;
#232 = AXIS2_PLACEMENT_3D ( 'NONE', #992, #919, #123 ) ;
#233 = EDGE_CURVE ( 'NONE', #985, #600, #513, .T. ) ;
#234 = CIRCLE ( 'NONE', #588, 0.3499999999999996447 ) ;
#235 = CARTESIAN_POINT ( 'NONE',  ( -5.775000000000008349, 2.855025253169413801, 7.072335265075971175E-16 ) ) ;
#236 = DIRECTION ( 'NONE',  ( 0.000000000000000000, 0.000000000000000000, -1.000000000000000000 ) ) ;
#237 = ORIENTED_EDGE ( 'NONE', *, *, #517, .T. ) ;
#238 = EDGE_CURVE ( 'NONE', #1100, #939, #130, .T. ) ;
#239 = CARTESIAN_POINT ( 'NONE',  ( -4.775000000000003908, 17.21502525316941501, 5.847688465928616735E-16 ) ) ;
#241 = ORIENTED_EDGE ( 'NONE', *, *, #959, .T. ) ;
#240 = CARTESIAN_POINT ( 'NONE',  ( -8.673617379884035472E-16, 17.21502525316941501, 0.000000000000000000 ) ) ;
#242 = ORIENTED_EDGE ( 'NONE', *, *, #443, .F. ) ;
#243 = ADVANCED_FACE ( 'NONE', ( #199 ), #563, .T. ) ;
#244 =( LENGTH_UNIT ( ) NAMED_UNIT ( * ) SI_UNIT ( .MILLI., .METRE. ) );
#245 = DIRECTION ( 'NONE',  ( -1.000000000000000000, 0.000000000000000000, 0.000000000000000000 ) ) ;
#246 = STYLED_ITEM ( 'NONE', ( #954 ), #947 ) ;
#247 = VECTOR ( 'NONE', #631, 1000.000000000000000 ) ;
#249 = ORIENTED_EDGE ( 'NONE', *, *, #409, .T. ) ;
#248 = CARTESIAN_POINT ( 'NONE',  ( 0.000000000000000000, 0.000000000000000000, 0.000000000000000000 ) ) ;
#250 = AXIS2_PLACEMENT_3D ( 'NONE', #1049, #452, #167 ) ;
#251 = EDGE_LOOP ( 'NONE', ( #655, #54, #948, #770 ) ) ;
#252 = AXIS2_PLACEMENT_3D ( 'NONE', #540, #80, #369 ) ;
#253 = VECTOR ( 'NONE', #634, 1000.000000000000000 ) ;
#254 = DIRECTION ( 'NONE',  ( -1.224646799147353207E-16, -1.000000000000000000, -0.000000000000000000 ) ) ;
#255 = DIRECTION ( 'NONE',  ( 1.000000000000000000, -1.501925087425805639E-16, 0.000000000000000000 ) ) ;
#256 = EDGE_CURVE ( 'NONE', #76, #946, #1141, .T. ) ;
#257 = APPLICATION_CONTEXT ( 'automotive_design' ) ;
#258 = EDGE_LOOP ( 'NONE', ( #522, #709, #100, #853 ) ) ;
#259 = ORIENTED_EDGE ( 'NONE', *, *, #361, .T. ) ;
#260 =( NAMED_UNIT ( * ) SI_UNIT ( $, .STERADIAN. ) SOLID_ANGLE_UNIT ( ) );
#261 = DIRECTION ( 'NONE',  ( 1.000000000000000000, 0.000000000000000000, 0.000000000000000000 ) ) ;
#262 = ADVANCED_FACE ( 'NONE', ( #507 ), #944, .T. ) ;
#263 = EDGE_LOOP ( 'NONE', ( #1042, #1125, #1090, #1045 ) ) ;
#264 = UNCERTAINTY_MEASURE_WITH_UNIT (LENGTH_MEASURE( 1.000000000000000082E-05 ), #244, 'distance_accuracy_value', 'NONE');
#265 = ORIENTED_EDGE ( 'NONE', *, *, #1143, .T. ) ;
#266 =( NAMED_UNIT ( * ) SI_UNIT ( $, .STERADIAN. ) SOLID_ANGLE_UNIT ( ) );
#267 = CARTESIAN_POINT ( 'NONE',  ( -2.602085213965210642E-15, 4.144974746830579093, 0.000000000000000000 ) ) ;
#268 = DIRECTION ( 'NONE',  ( -1.224646799147353207E-16, -1.000000000000000000, -0.000000000000000000 ) ) ;
#269 = AXIS2_PLACEMENT_3D ( 'NONE', #543, #808, #183 ) ;
#270 = ORIENTED_EDGE ( 'NONE', *, *, #686, .T. ) ;
#271 = EDGE_CURVE ( 'NONE', #542, #564, #551, .T. ) ;
#272 = CIRCLE ( 'NONE', #141, 0.3499999999999996447 ) ;
#273 = CARTESIAN_POINT ( 'NONE',  ( -3.799482157461210791E-16, 19.75748737341528738, 0.000000000000000000 ) ) ;
#274 = STYLED_ITEM ( 'NONE', ( #405 ), #153 ) ;
#275 = CARTESIAN_POINT ( 'NONE',  ( -4.647503676551109996E-16, 19.06502525316941643, 0.000000000000000000 ) ) ;
#276 = CARTESIAN_POINT ( 'NONE',  ( -8.673617379884035472E-16, 17.85497474683057817, 0.000000000000000000 ) ) ;
#277 = CARTESIAN_POINT ( 'NONE',  ( -8.673617379884035472E-16, 17.85497474683057817, 0.000000000000000000 ) ) ;
#278 = FACE_OUTER_BOUND ( 'NONE', #375, .T. ) ;
#279 = ORIENTED_EDGE ( 'NONE', *, *, #53, .T. ) ;
#280 = DIRECTION ( 'NONE',  ( -1.224646799147353207E-16, -1.000000000000000000, -0.000000000000000000 ) ) ;
#281 = ADVANCED_FACE ( 'NONE', ( #1104 ), #52, .T. ) ;
#282 = DIRECTION ( 'NONE',  ( 1.000000000000000000, 0.000000000000000000, 0.000000000000000000 ) ) ;
#283 = DIRECTION ( 'NONE',  ( 1.000000000000000000, -1.224646799147353207E-16, 0.000000000000000000 ) ) ;
#284 = DIRECTION ( 'NONE',  ( 1.000000000000000000, 0.000000000000000000, 0.000000000000000000 ) ) ;
#285 = CARTESIAN_POINT ( 'NONE',  ( 3.151478503032137600E-33, 2.573377487473383946E-17, 0.000000000000000000 ) ) ;
#286 = VERTEX_POINT ( 'NONE', #758 ) ;
#287 = DIRECTION ( 'NONE',  ( 1.000000000000000000, -1.224646799147353207E-16, 0.000000000000000000 ) ) ;
#288 = CARTESIAN_POINT ( 'NONE',  ( 0.000000000000000000, 22.85999999999999943, 0.000000000000000000 ) ) ;
#289 = CARTESIAN_POINT ( 'NONE',  ( -2.291929577225581548E-15, 4.144974746830579093, 0.000000000000000000 ) ) ;
#290 = ORIENTED_EDGE ( 'NONE', *, *, #74, .F. ) ;
#291 = LINE ( 'NONE', #975, #706 ) ;
#292 = VECTOR ( 'NONE', #479, 1000.000000000000000 ) ;
#293 = DIRECTION ( 'NONE',  ( -1.224646799147353207E-16, -1.000000000000000000, -0.000000000000000000 ) ) ;
#294 = CARTESIAN_POINT ( 'NONE',  ( 6.096523516520502247E-33, 22.85999999999999943, 0.000000000000000000 ) ) ;
#295 = ORIENTED_EDGE ( 'NONE', *, *, #353, .T. ) ;
#296 = CARTESIAN_POINT ( 'NONE',  ( -6.610015635291290114E-16, 17.46251262658470793, 0.000000000000000000 ) ) ;
#297 = CARTESIAN_POINT ( 'NONE',  ( -6.432472775628018547E-16, 17.60748737341528880, 0.000000000000000000 ) ) ;
#298 = FACE_OUTER_BOUND ( 'NONE', #829, .T. ) ;
#299 = EDGE_CURVE ( 'NONE', #1135, #286, #675, .T. ) ;
#300 = ORIENTED_EDGE ( 'NONE', *, *, #568, .F. ) ;
#301 = DIRECTION ( 'NONE',  ( -1.000000000000000000, 0.000000000000000000, 0.000000000000000000 ) ) ;
#302 = CARTESIAN_POINT ( 'NONE',  ( -3.799482157461210791E-16, 19.75748737341528738, 0.000000000000000000 ) ) ;
#303 = PRODUCT ( '4590R-335K', '4590R-335K', '', ( #843 ) ) ;
#304 = DIRECTION ( 'NONE',  ( -1.224646799147353207E-16, -1.000000000000000000, -0.000000000000000000 ) ) ;
#305 = ORIENTED_EDGE ( 'NONE', *, *, #137, .T. ) ;
#306 = DIRECTION ( 'NONE',  ( -1.224646799147353207E-16, -1.000000000000000000, -0.000000000000000000 ) ) ;
#307 = VECTOR ( 'NONE', #820, 1000.000000000000000 ) ;
#308 = VECTOR ( 'NONE', #1114, 1000.000000000000000 ) ;
#309 = AXIS2_PLACEMENT_3D ( 'NONE', #374, #799, #179 ) ;
#310 = DIRECTION ( 'NONE',  ( 1.000000000000000000, 0.000000000000000000, 0.000000000000000000 ) ) ;
#311 = DIRECTION ( 'NONE',  ( 1.224646799147353207E-16, 1.000000000000000000, 0.000000000000000000 ) ) ;
#312 = CIRCLE ( 'NONE', #127, 5.125000000000002665 ) ;
#313 = AXIS2_PLACEMENT_3D ( 'NONE', #288, #727, #1129 ) ;
#314 = ORIENTED_EDGE ( 'NONE', *, *, #633, .T. ) ;
#315 = EDGE_CURVE ( 'NONE', #1047, #397, #386, .T. ) ;
#316 = CARTESIAN_POINT ( 'NONE',  ( -2.799542582850849100E-15, 0.000000000000000000, 0.000000000000000000 ) ) ;
#317 = ORIENTED_EDGE ( 'NONE', *, *, #271, .T. ) ;
#318 = DIRECTION ( 'NONE',  ( 1.000000000000000000, -1.224646799147353207E-16, 0.000000000000000000 ) ) ;
#319 = CARTESIAN_POINT ( 'NONE',  ( -5.125000000000003553, 17.21502525316941501, 6.276314845630188176E-16 ) ) ;
#320 = ADVANCED_FACE ( 'NONE', ( #775 ), #622, .T. ) ;
#321 = DIRECTION ( 'NONE',  ( -1.224646799147353207E-16, -1.000000000000000000, -0.000000000000000000 ) ) ;
#322 = EDGE_LOOP ( 'NONE', ( #765, #738 ) ) ;
#323 = PRESENTATION_STYLE_ASSIGNMENT (( #926 ) ) ;
#324 = CARTESIAN_POINT ( 'NONE',  ( -1.224646799147337553E-17, 22.75999999999999801, 0.000000000000000000 ) ) ;
#325 = CONICAL_SURFACE ( 'NONE', #729, 5.672487373415291856, 0.7853981633974492782 ) ;
#326 = EDGE_CURVE ( 'NONE', #20, #1075, #1110, .T. ) ;
#328 = ORIENTED_EDGE ( 'NONE', *, *, #737, .F. ) ;
#327 = DIRECTION ( 'NONE',  ( -1.224646799147353207E-16, -1.000000000000000000, -0.000000000000000000 ) ) ;
#329 = PLANE ( 'NONE',  #1000 ) ;
#330 = DIRECTION ( 'NONE',  ( -1.224646799147353207E-16, -1.000000000000000000, -0.000000000000000000 ) ) ;
#332 = ORIENTED_EDGE ( 'NONE', *, *, #754, .F. ) ;
#331 = DIRECTION ( 'NONE',  ( 0.000000000000000000, 0.000000000000000000, 1.000000000000000000 ) ) ;
#333 = EDGE_CURVE ( 'NONE', #397, #1047, #759, .T. ) ;
#334 = ORIENTED_EDGE ( 'NONE', *, *, #333, .T. ) ;
#335 = CARTESIAN_POINT ( 'NONE',  ( -3.496397537778786822E-16, 20.00497474683058030, 0.000000000000000000 ) ) ;
#336 = CARTESIAN_POINT ( 'NONE',  ( -6.432472775628018547E-16, 17.60748737341528880, 0.000000000000000000 ) ) ;
#338 = EDGE_LOOP ( 'NONE', ( #201, #691, #7, #362 ) ) ;
#337 = DIRECTION ( 'NONE',  ( 1.000000000000000000, 0.000000000000000000, 0.000000000000000000 ) ) ;
#339 = ORIENTED_EDGE ( 'NONE', *, *, #1116, .T. ) ;
#340 = DIRECTION ( 'NONE',  ( -1.224646799147353207E-16, -1.000000000000000000, -0.000000000000000000 ) ) ;
#341 = DIRECTION ( 'NONE',  ( 1.000000000000000000, 0.000000000000000000, 0.000000000000000000 ) ) ;
#342 = PRESENTATION_LAYER_ASSIGNMENT (  '', '', ( #246 ) ) ;
#343 = ORIENTED_EDGE ( 'NONE', *, *, #532, .F. ) ;
#344 = AXIS2_PLACEMENT_3D ( 'NONE', #497, #740, #1087 ) ;
#345 = AXIS2_PLACEMENT_3D ( 'NONE', #629, #979, #546 ) ;
#346 = DIRECTION ( 'NONE',  ( 1.000000000000000000, 0.000000000000000000, 0.000000000000000000 ) ) ;
#347 = AXIS2_PLACEMENT_3D ( 'NONE', #267, #1132, #707 ) ;
#348 = EDGE_CURVE ( 'NONE', #605, #812, #234, .T. ) ;
#349 = CARTESIAN_POINT ( 'NONE',  ( 0.000000000000000000, 22.85999999999999943, 0.000000000000000000 ) ) ;
#350 = CARTESIAN_POINT ( 'NONE',  ( -0.4064999999999965308, 50.79999999999999716, 4.978189238534001334E-17 ) ) ;
#351 = ORIENTED_EDGE ( 'NONE', *, *, #326, .T. ) ;
#352 = DIRECTION ( 'NONE',  ( -1.000000000000000000, 1.224646799147353207E-16, 0.000000000000000000 ) ) ;
#353 = EDGE_CURVE ( 'NONE', #76, #71, #890, .T. ) ;
#354 = ORIENTED_EDGE ( 'NONE', *, *, #1145, .T. ) ;
#355 = UNCERTAINTY_MEASURE_WITH_UNIT (LENGTH_MEASURE( 1.000000000000000082E-05 ), #602, 'distance_accuracy_value', 'NONE');
#356 = ORIENTED_EDGE ( 'NONE', *, *, #409, .F. ) ;
#357 = FACE_OUTER_BOUND ( 'NONE', #1119, .T. ) ;
#358 = DIRECTION ( 'NONE',  ( -1.000000000000000000, 1.224646799147353207E-16, 0.000000000000000000 ) ) ;
#359 = AXIS2_PLACEMENT_3D ( 'NONE', #316, #1012, #664 ) ;
#360 = CARTESIAN_POINT ( 'NONE',  ( 5.125000000000002665, 19.06502525316941643, 0.000000000000000000 ) ) ;
#361 = EDGE_CURVE ( 'NONE', #680, #1067, #75, .T. ) ;
#362 = ORIENTED_EDGE ( 'NONE', *, *, #970, .F. ) ;
#363 = AXIS2_PLACEMENT_3D ( 'NONE', #285, #311, #1006 ) ;
#364 = CARTESIAN_POINT ( 'NONE',  ( 4.105592405036835886E-32, 22.75999999999999801, 0.000000000000000000 ) ) ;
#365 = CIRCLE ( 'NONE', #1001, 5.475000000000000533 ) ;
#366 = AXIS2_PLACEMENT_3D ( 'NONE', #213, #482, #928 ) ;
#367 = CARTESIAN_POINT ( 'NONE',  ( -4.877512626584718625, 3.897487373415286616, 6.460011865502295434E-16 ) ) ;
#368 = LINE ( 'NONE', #878, #162 ) ;
#369 = DIRECTION ( 'NONE',  ( 1.000000000000000000, -1.224646799147353207E-16, 0.000000000000000000 ) ) ;
#370 = EDGE_LOOP ( 'NONE', ( #512, #696, #125, #160 ) ) ;
#371 = ADVANCED_FACE ( 'NONE', ( #448 ), #552, .F. ) ;
#372 = CARTESIAN_POINT ( 'NONE',  ( 5.022487373415295053, 17.60748737341528880, 6.150773085611040211E-16 ) ) ;
#373 = LINE ( 'NONE', #826, #1076 ) ;
#374 = CARTESIAN_POINT ( 'NONE',  ( -5.425000000000000711, 20.00497474683058030, 6.643708885374392831E-16 ) ) ;
#375 = EDGE_LOOP ( 'NONE', ( #380, #305, #59, #929 ) ) ;
#376 = FACE_OUTER_BOUND ( 'NONE', #685, .T. ) ;
#377 = PRESENTATION_LAYER_ASSIGNMENT (  '', '', ( #723 ) ) ;
#378 = CARTESIAN_POINT ( 'NONE',  ( -4.877512626584718625, 3.897487373415286616, 5.973230225947771602E-16 ) ) ;
#379 = DIRECTION ( 'NONE',  ( 1.000000000000000000, -1.816464372750580916E-16, 0.000000000000000000 ) ) ;
#380 = ORIENTED_EDGE ( 'NONE', *, *, #608, .F. ) ;
#381 = CARTESIAN_POINT ( 'NONE',  ( -4.877512626584711519, 17.46251262658470793, 5.973230225947765686E-16 ) ) ;
#382 = CIRCLE ( 'NONE', #641, 0.4064999999999999725 ) ;
#383 = CIRCLE ( 'NONE', #549, 0.4065000000000034142 ) ;
#384 = LINE ( 'NONE', #732, #779 ) ;
#385 = ADVANCED_FACE ( 'NONE', ( #971 ), #454, .T. ) ;
#386 = CIRCLE ( 'NONE', #1122, 5.475000000000000533 ) ;
#387 = CARTESIAN_POINT ( 'NONE',  ( -2.799542582850849100E-15, 0.000000000000000000, 0.000000000000000000 ) ) ;
#388 = ORIENTED_EDGE ( 'NONE', *, *, #1038, .F. ) ;
#389 = FACE_OUTER_BOUND ( 'NONE', #903, .T. ) ;
#390 = DIRECTION ( 'NONE',  ( -1.224646799147353207E-16, -1.000000000000000000, -0.000000000000000000 ) ) ;
#391 = SURFACE_STYLE_FILL_AREA ( #908 ) ;
#392 = VERTEX_POINT ( 'NONE', #790 ) ;
#393 = CARTESIAN_POINT ( 'NONE',  ( -8.673617379884035472E-16, 17.21502525316941501, 0.000000000000000000 ) ) ;
#394 = DIRECTION ( 'NONE',  ( -1.000000000000000000, 1.224646799147353207E-16, 0.000000000000000000 ) ) ;
#395 = DIRECTION ( 'NONE',  ( -0.7071067811865482389, 0.7071067811865469066, 0.000000000000000000 ) ) ;
#396 = CARTESIAN_POINT ( 'NONE',  ( 0.000000000000000000, 22.85999999999999943, 0.000000000000000000 ) ) ;
#397 = VERTEX_POINT ( 'NONE', #712 ) ;
#398 = APPLICATION_CONTEXT ( 'automotive_design' ) ;
#399 = EDGE_CURVE ( 'NONE', #994, #939, #774, .T. ) ;
#400 = AXIS2_PLACEMENT_3D ( 'NONE', #364, #781, #352 ) ;
#401 = TOROIDAL_SURFACE ( 'NONE', #122, 5.125000000000002665, 0.3500000000000009770 ) ;
#402 = LINE ( 'NONE', #98, #731 ) ;
#403 = VECTOR ( 'NONE', #166, 1000.000000000000000 ) ;
#404 = CIRCLE ( 'NONE', #1037, 5.672487373415294520 ) ;
#405 = PRESENTATION_STYLE_ASSIGNMENT (( #486 ) ) ;
#406 = AXIS2_PLACEMENT_3D ( 'NONE', #289, #95, #379 ) ;
#407 = VECTOR ( 'NONE', #120, 999.9999999999998863 ) ;
#408 = ORIENTED_EDGE ( 'NONE', *, *, #1018, .F. ) ;
#409 = EDGE_CURVE ( 'NONE', #426, #680, #382, .T. ) ;
#410 = CARTESIAN_POINT ( 'NONE',  ( 5.774999999999998579, 22.85999999999999943, 0.000000000000000000 ) ) ;
#411 = DIRECTION ( 'NONE',  ( 1.000000000000000000, 0.000000000000000000, -1.224646799147352961E-16 ) ) ;
#412 =( LENGTH_UNIT ( ) NAMED_UNIT ( * ) SI_UNIT ( .MILLI., .METRE. ) );
#413 = PLANE ( 'NONE',  #792 ) ;
#414 = ORIENTED_EDGE ( 'NONE', *, *, #801, .T. ) ;
#415 = DIRECTION ( 'NONE',  ( 1.224646799147353207E-16, -1.499759782661857608E-32, 1.000000000000000000 ) ) ;
#416 = SURFACE_STYLE_FILL_AREA ( #40 ) ;
#417 = ADVANCED_FACE ( 'NONE', ( #996 ), #325, .T. ) ;
#418 = CONICAL_SURFACE ( 'NONE', #580, 4.877512626584715960, 0.7853981633974492782 ) ;
#419 = CARTESIAN_POINT ( 'NONE',  ( -5.425000000000008704, 2.855025253169416466, 6.643708885374398748E-16 ) ) ;
#421 = ORIENTED_EDGE ( 'NONE', *, *, #633, .F. ) ;
#420 = SURFACE_STYLE_FILL_AREA ( #609 ) ;
#422 = AXIS2_PLACEMENT_3D ( 'NONE', #891, #566, #1068 ) ;
#423 = DIRECTION ( 'NONE',  ( 1.000000000000000000, 0.000000000000000000, 0.000000000000000000 ) ) ;
#424 = EDGE_CURVE ( 'NONE', #439, #112, #184, .T. ) ;
#426 = VERTEX_POINT ( 'NONE', #833 ) ;
#425 = SURFACE_STYLE_USAGE ( .BOTH. , #847 ) ;
#427 = AXIS2_PLACEMENT_3D ( 'NONE', #1073, #559, #473 ) ;
#428 = DIRECTION ( 'NONE',  ( -1.224646799147353207E-16, -1.000000000000000000, -0.000000000000000000 ) ) ;
#430 = ORIENTED_EDGE ( 'NONE', *, *, #315, .F. ) ;
#429 = LINE ( 'NONE', #910, #1028 ) ;
#431 = CARTESIAN_POINT ( 'NONE',  ( -1.224646799147337553E-17, 22.75999999999999801, 0.000000000000000000 ) ) ;
#432 = ORIENTED_EDGE ( 'NONE', *, *, #1058, .T. ) ;
#433 = VERTEX_POINT ( 'NONE', #35 ) ;
#434 = EDGE_CURVE ( 'NONE', #1075, #20, #124, .T. ) ;
#435 = AXIS2_PLACEMENT_3D ( 'NONE', #248, #331, #604 ) ;
#436 = CARTESIAN_POINT ( 'NONE',  ( -5.022487373415297718, 17.60748737341528880, 0.000000000000000000 ) ) ;
#437 = CONICAL_SURFACE ( 'NONE', #422, 4.877512626584715960, 0.7853981633974492782 ) ;
#439 = VERTEX_POINT ( 'NONE', #485 ) ;
#438 = CARTESIAN_POINT ( 'NONE',  ( -2.322238039193823599E-15, 3.897487373415286172, 0.000000000000000000 ) ) ;
#440 = AXIS2_PLACEMENT_3D ( 'NONE', #718, #157, #553 ) ;
#441 = ORIENTED_EDGE ( 'NONE', *, *, #767, .F. ) ;
#442 = AXIS2_PLACEMENT_3D ( 'NONE', #1009, #1099, #589 ) ;
#443 = EDGE_CURVE ( 'NONE', #439, #605, #104, .T. ) ;
#444 = TOROIDAL_SURFACE ( 'NONE', #347, 5.125000000000006217, 0.3499999999999995892 ) ;
#445 = EDGE_LOOP ( 'NONE', ( #356, #16 ) ) ;
#446 = EDGE_LOOP ( 'NONE', ( #595, #414, #1031, #773 ) ) ;
#447 = CARTESIAN_POINT ( 'NONE',  ( 5.227512626584711164, 19.31251262658470935, 0.000000000000000000 ) ) ;
#448 = FACE_OUTER_BOUND ( 'NONE', #955, .T. ) ;
#449 = CARTESIAN_POINT ( 'NONE',  ( 0.4065000000000034142, 22.85999999999999943, 0.000000000000000000 ) ) ;
#450 = EDGE_CURVE ( 'NONE', #286, #397, #558, .T. ) ;
#451 = CARTESIAN_POINT ( 'NONE',  ( -5.672487373415297185, 3.102512626584710276, 7.009564385066394727E-16 ) ) ;
#452 = DIRECTION ( 'NONE',  ( -1.224646799147353207E-16, -1.000000000000000000, -0.000000000000000000 ) ) ;
#453 = ORIENTED_EDGE ( 'NONE', *, *, #517, .F. ) ;
#454 = CYLINDRICAL_SURFACE ( 'NONE', #689, 0.4065000000000079106 ) ;
#455 =( NAMED_UNIT ( * ) SI_UNIT ( $, .STERADIAN. ) SOLID_ANGLE_UNIT ( ) );
#456 = PRODUCT_DEFINITION ( 'UNKNOWN', '', #223, #1026 ) ;
#457 = DIRECTION ( 'NONE',  ( 1.000000000000000000, 0.000000000000000000, 0.000000000000000000 ) ) ;
#458 = ORIENTED_EDGE ( 'NONE', *, *, #116, .T. ) ;
#459 = AXIS2_PLACEMENT_3D ( 'NONE', #39, #415, #849 ) ;
#460 = CARTESIAN_POINT ( 'NONE',  ( -2.602085213965210642E-15, 2.855025253169415578, 0.000000000000000000 ) ) ;
#461 = DIRECTION ( 'NONE',  ( 0.000000000000000000, 0.000000000000000000, -1.000000000000000000 ) ) ;
#462 = DIRECTION ( 'NONE',  ( 1.224646799147353207E-16, -1.499759782661857608E-32, 1.000000000000000000 ) ) ;
#463 = DIRECTION ( 'NONE',  ( 1.000000000000000000, -1.212920238625335228E-16, 0.000000000000000000 ) ) ;
#464 = DIRECTION ( 'NONE',  ( 1.000000000000000000, -1.529067727948386547E-16, 0.000000000000000000 ) ) ;
#465 = ORIENTED_EDGE ( 'NONE', *, *, #147, .F. ) ;
#466 = ADVANCED_FACE ( 'NONE', ( #574, #582 ), #912, .F. ) ;
#467 = LINE ( 'NONE', #378, #403 ) ;
#468 = CARTESIAN_POINT ( 'NONE',  ( -2.419594367104728169E-15, 3.102512626584709388, 0.000000000000000000 ) ) ;
#469 = ORIENTED_EDGE ( 'NONE', *, *, #19, .T. ) ;
#470 = DIRECTION ( 'NONE',  ( 1.000000000000000000, 0.000000000000000000, 0.000000000000000000 ) ) ;
#471 = EDGE_CURVE ( 'NONE', #520, #488, #30, .T. ) ;
#472 = LINE ( 'NONE', #12, #528 ) ;
#473 = DIRECTION ( 'NONE',  ( 1.000000000000000000, 0.000000000000000000, 0.000000000000000000 ) ) ;
#474 = ORIENTED_EDGE ( 'NONE', *, *, #233, .T. ) ;
#475 = CIRCLE ( 'NONE', #864, 5.672487373415291856 ) ;
#476 = CARTESIAN_POINT ( 'NONE',  ( -6.129388155945595071E-16, 17.85497474683058172, 0.000000000000000000 ) ) ;
#477 = TOROIDAL_SURFACE ( 'NONE', #1109, 5.425000000000000711, 0.3500000000000010880 ) ;
#478 = CLOSED_SHELL ( 'NONE', ( #281, #794, #725, #60 ) ) ;
#479 = DIRECTION ( 'NONE',  ( -1.224646799147353207E-16, -1.000000000000000000, -0.000000000000000000 ) ) ;
#480 = DIRECTION ( 'NONE',  ( 1.000000000000000000, 0.000000000000000000, -1.224646799147350742E-16 ) ) ;
#481 = AXIS2_PLACEMENT_3D ( 'NONE', #138, #330, #423 ) ;
#482 = DIRECTION ( 'NONE',  ( -1.224646799147353207E-16, -1.000000000000000000, -0.000000000000000000 ) ) ;
#483 = ORIENTED_EDGE ( 'NONE', *, *, #665, .T. ) ;
#484 = DIRECTION ( 'NONE',  ( -1.224646799147353207E-16, -1.000000000000000000, -0.000000000000000000 ) ) ;
#485 = CARTESIAN_POINT ( 'NONE',  ( 4.877512626584713296, 3.897487373415285727, 0.000000000000000000 ) ) ;
#486 = SURFACE_STYLE_USAGE ( .BOTH. , #827 ) ;
#487 = EDGE_CURVE ( 'NONE', #1135, #1047, #114, .T. ) ;
#488 = VERTEX_POINT ( 'NONE', #816 ) ;
#489 = FACE_OUTER_BOUND ( 'NONE', #338, .T. ) ;
#490 = DIRECTION ( 'NONE',  ( 1.000000000000000000, 0.000000000000000000, 0.000000000000000000 ) ) ;
#491 = FACE_OUTER_BOUND ( 'NONE', #251, .T. ) ;
#492 = AXIS2_PLACEMENT_3D ( 'NONE', #476, #306, #1024 ) ;
#493 = ORIENTED_EDGE ( 'NONE', *, *, #38, .T. ) ;
#494 =( GEOMETRIC_REPRESENTATION_CONTEXT ( 3 ) GLOBAL_UNCERTAINTY_ASSIGNED_CONTEXT ( ( #355 ) ) GLOBAL_UNIT_ASSIGNED_CONTEXT ( ( #602, #67, #260 ) ) REPRESENTATION_CONTEXT ( 'NONE', 'WORKASPACE' ) );
#495 = AXIS2_PLACEMENT_3D ( 'NONE', #651, #1, #1081 ) ;
#496 = CARTESIAN_POINT ( 'NONE',  ( 0.4065000000000079106, 22.85999999999999943, 0.000000000000000000 ) ) ;
#497 = CARTESIAN_POINT ( 'NONE',  ( 5.425000000000000711, 20.00497474683058030, 0.000000000000000000 ) ) ;
#498 = PRESENTATION_LAYER_ASSIGNMENT (  '', '', ( #962 ) ) ;
#499 = AXIS2_PLACEMENT_3D ( 'NONE', #1134, #236, #41 ) ;
#500 = AXIS2_PLACEMENT_3D ( 'NONE', #87, #293, #1054 ) ;
#501 = ORIENTED_EDGE ( 'NONE', *, *, #348, .F. ) ;
#502 = CARTESIAN_POINT ( 'NONE',  ( 0.000000000000000000, 20.00497474683058030, 0.000000000000000000 ) ) ;
#503 = PLANE ( 'NONE',  #674 ) ;
#504 = DIRECTION ( 'NONE',  ( -1.224646799147353207E-16, -1.000000000000000000, -0.000000000000000000 ) ) ;
#505 = ORIENTED_EDGE ( 'NONE', *, *, #1004, .F. ) ;
#506 = EDGE_CURVE ( 'NONE', #1117, #1075, #402, .T. ) ;
#507 = FACE_OUTER_BOUND ( 'NONE', #155, .T. ) ;
#508 = LINE ( 'NONE', #860, #757 ) ;
#509 = EDGE_LOOP ( 'NONE', ( #527, #237, #1010, #388 ) ) ;
#510 = DIRECTION ( 'NONE',  ( 1.000000000000000000, 0.000000000000000000, 0.000000000000000000 ) ) ;
#511 = AXIS2_PLACEMENT_3D ( 'NONE', #516, #504, #255 ) ;
#512 = ORIENTED_EDGE ( 'NONE', *, *, #1143, .F. ) ;
#513 = CIRCLE ( 'NONE', #1074, 0.4065000000000062452 ) ;
#514 = ORIENTED_EDGE ( 'NONE', *, *, #1050, .F. ) ;
#515 = CARTESIAN_POINT ( 'NONE',  ( -2.322238039193823599E-15, 3.897487373415286172, 0.000000000000000000 ) ) ;
#516 = CARTESIAN_POINT ( 'NONE',  ( -2.449902829072971009E-15, 2.855025253169412913, 0.000000000000000000 ) ) ;
#517 = EDGE_CURVE ( 'NONE', #876, #1100, #924, .T. ) ;
#519 = ORIENTED_EDGE ( 'NONE', *, *, #670, .T. ) ;
#518 = SHAPE_DEFINITION_REPRESENTATION ( #211, #626 ) ;
#520 = VERTEX_POINT ( 'NONE', #1098 ) ;
#521 = CARTESIAN_POINT ( 'NONE',  ( -5.125000000000008882, 4.144974746830579981, 6.276314845630192120E-16 ) ) ;
#522 = ORIENTED_EDGE ( 'NONE', *, *, #1058, .F. ) ;
#523 = EDGE_CURVE ( 'NONE', #985, #542, #472, .T. ) ;
#524 = EDGE_LOOP ( 'NONE', ( #408, #848 ) ) ;
#525 = SURFACE_STYLE_USAGE ( .BOTH. , #1036 ) ;
#526 = TOROIDAL_SURFACE ( 'NONE', #997, 5.475000000000002309, 0.3500000000000008105 ) ;
#527 = ORIENTED_EDGE ( 'NONE', *, *, #846, .F. ) ;
#528 = VECTOR ( 'NONE', #390, 1000.000000000000000 ) ;
#529 = ORIENTED_EDGE ( 'NONE', *, *, #21, .F. ) ;
#530 = AXIS2_PLACEMENT_3D ( 'NONE', #57, #254, #261 ) ;
#531 = FILL_AREA_STYLE ('',( #693 ) ) ;
#532 = EDGE_CURVE ( 'NONE', #762, #112, #384, .T. ) ;
#533 = CARTESIAN_POINT ( 'NONE',  ( 0.4065000000000034142, -4.978189238534067278E-17, 0.000000000000000000 ) ) ;
#534 = FACE_OUTER_BOUND ( 'NONE', #844, .T. ) ;
#535 = ORIENTED_EDGE ( 'NONE', *, *, #1018, .T. ) ;
#536 = DIRECTION ( 'NONE',  ( -1.224646799147353207E-16, -1.000000000000000000, -0.000000000000000000 ) ) ;
#537 = EDGE_CURVE ( 'NONE', #939, #994, #927, .T. ) ;
#538 = DIRECTION ( 'NONE',  ( -1.224646799147353207E-16, -1.000000000000000000, -0.000000000000000000 ) ) ;
#539 = DIRECTION ( 'NONE',  ( -1.224646799147353207E-16, -1.000000000000000000, -0.000000000000000000 ) ) ;
#540 = CARTESIAN_POINT ( 'NONE',  ( -8.673617379884035472E-16, 19.06502525316941288, 0.000000000000000000 ) ) ;
#541 = DIRECTION ( 'NONE',  ( -1.224646799147353207E-16, -1.000000000000000000, -0.000000000000000000 ) ) ;
#542 = VERTEX_POINT ( 'NONE', #129 ) ;
#543 = CARTESIAN_POINT ( 'NONE',  ( -2.799542582850849100E-15, 0.000000000000000000, 0.000000000000000000 ) ) ;
#544 = DIRECTION ( 'NONE',  ( -1.224646799147353207E-16, -1.000000000000000000, -0.000000000000000000 ) ) ;
#545 = AXIS2_PLACEMENT_3D ( 'NONE', #615, #688, #1120 ) ;
#546 = DIRECTION ( 'NONE',  ( 1.000000000000000000, -1.224646799147353207E-16, 0.000000000000000000 ) ) ;
#547 = EDGE_LOOP ( 'NONE', ( #328, #915, #354, #505 ) ) ;
#548 = TOROIDAL_SURFACE ( 'NONE', #638, 4.775000000000002132, 0.3500000000000004774 ) ;
#549 = AXIS2_PLACEMENT_3D ( 'NONE', #294, #644, #457 ) ;
#550 = FACE_OUTER_BOUND ( 'NONE', #663, .T. ) ;
#551 = CIRCLE ( 'NONE', #32, 0.4065000000000096314 ) ;
#552 = CYLINDRICAL_SURFACE ( 'NONE', #89, 5.475000000000000533 ) ;
#553 = DIRECTION ( 'NONE',  ( 1.000000000000000000, -1.529067727948386547E-16, 0.000000000000000000 ) ) ;
#554 = CARTESIAN_POINT ( 'NONE',  ( -5.125000000000004441, 19.06502525316941643, 6.276314845630189162E-16 ) ) ;
#555 = ADVANCED_FACE ( 'NONE', ( #840 ), #503, .F. ) ;
#556 = ORIENTED_EDGE ( 'NONE', *, *, #1038, .T. ) ;
#557 = LINE ( 'NONE', #1063, #247 ) ;
#558 = LINE ( 'NONE', #907, #1017 ) ;
#559 = DIRECTION ( 'NONE',  ( -1.224646799147353207E-16, -1.000000000000000000, -0.000000000000000000 ) ) ;
#560 = ORIENTED_EDGE ( 'NONE', *, *, #238, .F. ) ;
#561 = EDGE_CURVE ( 'NONE', #71, #433, #1093, .T. ) ;
#562 = CARTESIAN_POINT ( 'NONE',  ( -5.672487373415292744, 19.75748737341528738, 0.000000000000000000 ) ) ;
#563 = CYLINDRICAL_SURFACE ( 'NONE', #481, 4.775000000000004796 ) ;
#564 = VERTEX_POINT ( 'NONE', #623 ) ;
#565 = CIRCLE ( 'NONE', #46, 0.3500000000000004774 ) ;
#566 = DIRECTION ( 'NONE',  ( -1.224646799147353207E-16, -1.000000000000000000, -0.000000000000000000 ) ) ;
#567 = CIRCLE ( 'NONE', #105, 5.775000000000001243 ) ;
#568 = EDGE_CURVE ( 'NONE', #76, #761, #368, .T. ) ;
#569 = CARTESIAN_POINT ( 'NONE',  ( -2.799542582850849100E-15, 0.000000000000000000, 0.000000000000000000 ) ) ;
#570 = AXIS2_PLACEMENT_3D ( 'NONE', #88, #885, #720 ) ;
#571 =( NAMED_UNIT ( * ) PLANE_ANGLE_UNIT ( ) SI_UNIT ( $, .RADIAN. ) );
#572 = ORIENTED_EDGE ( 'NONE', *, *, #506, .F. ) ;
#573 = DIRECTION ( 'NONE',  ( -1.224646799147353207E-16, -1.000000000000000000, -0.000000000000000000 ) ) ;
#574 = FACE_BOUND ( 'NONE', #322, .T. ) ;
#575 = ADVANCED_FACE ( 'NONE', ( #713 ), #972, .F. ) ;
#576 = DIRECTION ( 'NONE',  ( 1.000000000000000000, -1.224646799147353207E-16, 0.000000000000000000 ) ) ;
#577 = CARTESIAN_POINT ( 'NONE',  ( 3.048261758260297993E-33, 50.79999999999999716, 0.000000000000000000 ) ) ;
#578 = ORIENTED_EDGE ( 'NONE', *, *, #593, .T. ) ;
#579 = DIRECTION ( 'NONE',  ( 1.000000000000000000, -8.891435085794324678E-17, 0.000000000000000000 ) ) ;
#580 = AXIS2_PLACEMENT_3D ( 'NONE', #438, #656, #1086 ) ;
#581 = DIRECTION ( 'NONE',  ( -1.224646799147353207E-16, -1.000000000000000000, -0.000000000000000000 ) ) ;
#582 = FACE_OUTER_BOUND ( 'NONE', #117, .T. ) ;
#583 = DIRECTION ( 'NONE',  ( 1.224646799147353207E-16, 1.000000000000000000, 0.000000000000000000 ) ) ;
#584 = CIRCLE ( 'NONE', #492, 5.125000000000002665 ) ;
#585 = EDGE_LOOP ( 'NONE', ( #1062, #61, #823, #469 ) ) ;
#586 = AXIS2_PLACEMENT_3D ( 'NONE', #673, #428, #1097 ) ;
#587 = FILL_AREA_STYLE ('',( #682 ) ) ;
#588 = AXIS2_PLACEMENT_3D ( 'NONE', #963, #461, #803 ) ;
#589 = DIRECTION ( 'NONE',  ( 1.000000000000000000, -1.501925087425805639E-16, 0.000000000000000000 ) ) ;
#590 = PRESENTATION_LAYER_ASSIGNMENT (  '', '', ( #274 ) ) ;
#591 = CIRCLE ( 'NONE', #440, 5.672487373415294520 ) ;
#592 = VERTEX_POINT ( 'NONE', #451 ) ;
#593 = EDGE_CURVE ( 'NONE', #671, #592, #467, .T. ) ;
#594 = CARTESIAN_POINT ( 'NONE',  ( 5.775000000000003020, 2.855025253169412469, 0.000000000000000000 ) ) ;
#595 = ORIENTED_EDGE ( 'NONE', *, *, #133, .T. ) ;
#596 = CARTESIAN_POINT ( 'NONE',  ( -8.673617379884035472E-16, 19.06502525316941288, 0.000000000000000000 ) ) ;
#597 = DIRECTION ( 'NONE',  ( -1.224646799147353207E-16, -1.000000000000000000, -0.000000000000000000 ) ) ;
#599 = EDGE_LOOP ( 'NONE', ( #453, #858, #556, #519 ) ) ;
#598 = CARTESIAN_POINT ( 'NONE',  ( 5.475000000000000533, 0.09999999999999872879, 0.000000000000000000 ) ) ;
#600 = VERTEX_POINT ( 'NONE', #533 ) ;
#601 = AXIS2_PLACEMENT_3D ( 'NONE', #515, #607, #859 ) ;
#602 =( LENGTH_UNIT ( ) NAMED_UNIT ( * ) SI_UNIT ( .MILLI., .METRE. ) );
#603 = CARTESIAN_POINT ( 'NONE',  ( -2.799542582850849100E-15, 0.000000000000000000, 0.000000000000000000 ) ) ;
#605 = VERTEX_POINT ( 'NONE', #874 ) ;
#604 = DIRECTION ( 'NONE',  ( 1.000000000000000000, 0.000000000000000000, 0.000000000000000000 ) ) ;
#606 = ORIENTED_EDGE ( 'NONE', *, *, #523, .T. ) ;
#607 = DIRECTION ( 'NONE',  ( -1.224646799147353207E-16, -1.000000000000000000, -0.000000000000000000 ) ) ;
#608 = EDGE_CURVE ( 'NONE', #71, #392, #1146, .T. ) ;
#610 = ORIENTED_EDGE ( 'NONE', *, *, #970, .T. ) ;
#609 = FILL_AREA_STYLE ('',( #1107 ) ) ;
#611 = ORIENTED_EDGE ( 'NONE', *, *, #10, .T. ) ;
#612 = DIRECTION ( 'NONE',  ( 1.000000000000000000, 0.000000000000000000, -1.224646799147353207E-16 ) ) ;
#613 = ORIENTED_EDGE ( 'NONE', *, *, #837, .T. ) ;
#614 = VERTEX_POINT ( 'NONE', #883 ) ;
#615 = CARTESIAN_POINT ( 'NONE',  ( -3.799482157461210791E-16, 19.75748737341528738, 0.000000000000000000 ) ) ;
#616 = COLOUR_RGB ( '',0.2980392156862745057, 0.2980392156862745057, 0.2980392156862745057 ) ;
#617 = DIRECTION ( 'NONE',  ( 1.000000000000000000, 0.000000000000000000, 0.000000000000000000 ) ) ;
#618 = CARTESIAN_POINT ( 'NONE',  ( 3.048261758260251123E-33, 22.85999999999999943, 0.000000000000000000 ) ) ;
#619 = AXIS2_PLACEMENT_3D ( 'NONE', #964, #786, #579 ) ;
#620 = ORIENTED_EDGE ( 'NONE', *, *, #877, .F. ) ;
#621 = EDGE_CURVE ( 'NONE', #564, #542, #834, .T. ) ;
#622 = CONICAL_SURFACE ( 'NONE', #107, 5.022487373415295941, 0.7853981633974602694 ) ;
#623 = CARTESIAN_POINT ( 'NONE',  ( 0.4065000000000033586, -27.94000000000000483, 0.000000000000000000 ) ) ;
#624 = ORIENTED_EDGE ( 'NONE', *, *, #299, .T. ) ;
#625 = CARTESIAN_POINT ( 'NONE',  ( 5.022487373415294165, 17.60748737341528880, 6.150773085611039225E-16 ) ) ;
#626 = ADVANCED_BREP_SHAPE_REPRESENTATION ( '4590R-335K', ( #925, #920, #153, #435 ), #43 ) ;
#627 = ADVANCED_FACE ( 'NONE', ( #187 ), #70, .T. ) ;
#628 =( LENGTH_UNIT ( ) NAMED_UNIT ( * ) SI_UNIT ( .MILLI., .METRE. ) );
#629 = CARTESIAN_POINT ( 'NONE',  ( -2.602085213965210642E-15, 2.855025253169415578, 0.000000000000000000 ) ) ;
#630 = ORIENTED_EDGE ( 'NONE', *, *, #333, .F. ) ;
#631 = DIRECTION ( 'NONE',  ( -1.224646799147353207E-16, -1.000000000000000000, -0.000000000000000000 ) ) ;
#632 = TOROIDAL_SURFACE ( 'NONE', #62, 5.125000000000002665, 0.3500000000000009770 ) ;
#633 = EDGE_CURVE ( 'NONE', #1117, #1051, #1035, .T. ) ;
#634 = DIRECTION ( 'NONE',  ( -1.224646799147353207E-16, -1.000000000000000000, -0.000000000000000000 ) ) ;
#635 = TOROIDAL_SURFACE ( 'NONE', #121, 5.425000000000006040, 0.3499999999999993117 ) ;
#636 = DIRECTION ( 'NONE',  ( 1.000000000000000000, 0.000000000000000000, 0.000000000000000000 ) ) ;
#637 = ORIENTED_EDGE ( 'NONE', *, *, #934, .T. ) ;
#638 = AXIS2_PLACEMENT_3D ( 'NONE', #276, #539, #283 ) ;
#639 = CARTESIAN_POINT ( 'NONE',  ( -0.4065000000000033586, 22.85999999999999943, 4.978189238534053720E-17 ) ) ;
#640 = TOROIDAL_SURFACE ( 'NONE', #252, 5.475000000000002309, 0.3500000000000008105 ) ;
#641 = AXIS2_PLACEMENT_3D ( 'NONE', #177, #212, #652 ) ;
#642 = CARTESIAN_POINT ( 'NONE',  ( -2.787296114859375743E-15, 0.09999999999999939493, 0.000000000000000000 ) ) ;
#643 = ADVANCED_FACE ( 'NONE', ( #1060 ), #444, .F. ) ;
#644 = DIRECTION ( 'NONE',  ( -1.224646799147353207E-16, -1.000000000000000000, -0.000000000000000000 ) ) ;
#645 = ORIENTED_EDGE ( 'NONE', *, *, #2, .F. ) ;
#646 = DIRECTION ( 'NONE',  ( -1.224646799147353207E-16, -1.000000000000000000, -0.000000000000000000 ) ) ;
#647 = DIRECTION ( 'NONE',  ( -1.224646799147353207E-16, -1.000000000000000000, -0.000000000000000000 ) ) ;
#648 = DIRECTION ( 'NONE',  ( -1.224646799147353207E-16, -1.000000000000000000, -0.000000000000000000 ) ) ;
#649 = ORIENTED_EDGE ( 'NONE', *, *, #256, .F. ) ;
#650 = ADVANCED_FACE ( 'NONE', ( #1048 ), #548, .T. ) ;
#651 = CARTESIAN_POINT ( 'NONE',  ( 5.125000000000001776, 17.21502525316941501, 0.000000000000000000 ) ) ;
#652 = DIRECTION ( 'NONE',  ( 1.000000000000000000, 0.000000000000000000, 0.000000000000000000 ) ) ;
#653 = CYLINDRICAL_SURFACE ( 'NONE', #1091, 4.775000000000004796 ) ;
#654 = CIRCLE ( 'NONE', #901, 4.775000000000003020 ) ;
#655 = ORIENTED_EDGE ( 'NONE', *, *, #361, .F. ) ;
#656 = DIRECTION ( 'NONE',  ( -1.224646799147353207E-16, -1.000000000000000000, -0.000000000000000000 ) ) ;
#657 = EDGE_CURVE ( 'NONE', #433, #1108, #373, .T. ) ;
#658 = AXIS2_PLACEMENT_3D ( 'NONE', #6, #541, #721 ) ;
#659 = VECTOR ( 'NONE', #268, 1000.000000000000000 ) ;
#660 = CLOSED_SHELL ( 'NONE', ( #385, #717, #700, #1046 ) ) ;
#661 = DIRECTION ( 'NONE',  ( 1.224646799147353207E-16, 1.000000000000000000, 0.000000000000000000 ) ) ;
#662 = FACE_OUTER_BOUND ( 'NONE', #923, .T. ) ;
#663 = EDGE_LOOP ( 'NONE', ( #898, #1096, #192, #501 ) ) ;
#664 = DIRECTION ( 'NONE',  ( 1.000000000000000000, -1.224646799147353207E-16, 0.000000000000000000 ) ) ;
#665 = EDGE_CURVE ( 'NONE', #592, #605, #591, .T. ) ;
#666 = CARTESIAN_POINT ( 'NONE',  ( -6.432472775628018547E-16, 17.60748737341528880, 0.000000000000000000 ) ) ;
#667 = ORIENTED_EDGE ( 'NONE', *, *, #21, .T. ) ;
#668 = DIRECTION ( 'NONE',  ( 1.000000000000000000, 0.000000000000000000, 0.000000000000000000 ) ) ;
#669 = DIRECTION ( 'NONE',  ( -1.224646799147353207E-16, -1.000000000000000000, -0.000000000000000000 ) ) ;
#670 = EDGE_CURVE ( 'NONE', #37, #1100, #66, .T. ) ;
#671 = VERTEX_POINT ( 'NONE', #367 ) ;
#672 = CIRCLE ( 'NONE', #269, 5.775000000000005684 ) ;
#673 = CARTESIAN_POINT ( 'NONE',  ( -2.602085213965210642E-15, 4.144974746830579093, 0.000000000000000000 ) ) ;
#674 = AXIS2_PLACEMENT_3D ( 'NONE', #719, #699, #358 ) ;
#675 = CIRCLE ( 'NONE', #530, 5.475000000000000533 ) ;
#676 = VERTEX_POINT ( 'NONE', #449 ) ;
#677 = DIRECTION ( 'NONE',  ( -1.224646799147353207E-16, -1.000000000000000000, 0.000000000000000000 ) ) ;
#678 = DIRECTION ( 'NONE',  ( -1.224646799147353207E-16, -1.000000000000000000, -0.000000000000000000 ) ) ;
#679 = ORIENTED_EDGE ( 'NONE', *, *, #686, .F. ) ;
#680 = VERTEX_POINT ( 'NONE', #350 ) ;
#681 = EDGE_CURVE ( 'NONE', #671, #439, #850, .T. ) ;
#682 = FILL_AREA_STYLE_COLOUR ( '', #742 ) ;
#683 = DIRECTION ( 'NONE',  ( -1.224646799147353207E-16, -1.000000000000000000, -0.000000000000000000 ) ) ;
#684 = ORIENTED_EDGE ( 'NONE', *, *, #608, .T. ) ;
#685 = EDGE_LOOP ( 'NONE', ( #953, #777, #158, #149 ) ) ;
#686 = EDGE_CURVE ( 'NONE', #520, #889, #567, .T. ) ;
#687 = CIRCLE ( 'NONE', #205, 0.3499999999999996447 ) ;
#688 = DIRECTION ( 'NONE',  ( 1.224646799147353207E-16, 1.000000000000000000, 0.000000000000000000 ) ) ;
#689 = AXIS2_PLACEMENT_3D ( 'NONE', #170, #538, #165 ) ;
#691 = ORIENTED_EDGE ( 'NONE', *, *, #863, .T. ) ;
#690 =( LENGTH_UNIT ( ) NAMED_UNIT ( * ) SI_UNIT ( .MILLI., .METRE. ) );
#692 = AXIS2_PLACEMENT_3D ( 'NONE', #642, #978, #463 ) ;
#693 = FILL_AREA_STYLE_COLOUR ( '', #616 ) ;
#694 = EDGE_LOOP ( 'NONE', ( #722, #667, #351, #572 ) ) ;
#695 = UNCERTAINTY_MEASURE_WITH_UNIT (LENGTH_MEASURE( 1.000000000000000082E-05 ), #628, 'distance_accuracy_value', 'NONE');
#696 = ORIENTED_EDGE ( 'NONE', *, *, #147, .T. ) ;
#697 = CARTESIAN_POINT ( 'NONE',  ( 0.000000000000000000, 20.00497474683058030, 0.000000000000000000 ) ) ;
#698 = DIRECTION ( 'NONE',  ( -1.224646799147353207E-16, -1.000000000000000000, -0.000000000000000000 ) ) ;
#699 = DIRECTION ( 'NONE',  ( 1.224646799147353207E-16, 1.000000000000000000, 0.000000000000000000 ) ) ;
#700 = ADVANCED_FACE ( 'NONE', ( #1032 ), #329, .T. ) ;
#701 = DIRECTION ( 'NONE',  ( -1.224646799147353207E-16, -1.000000000000000000, -0.000000000000000000 ) ) ;
#702 = ORIENTED_EDGE ( 'NONE', *, *, #670, .F. ) ;
#703 =( GEOMETRIC_REPRESENTATION_CONTEXT ( 3 ) GLOBAL_UNCERTAINTY_ASSIGNED_CONTEXT ( ( #49 ) ) GLOBAL_UNIT_ASSIGNED_CONTEXT ( ( #951, #936, #1111 ) ) REPRESENTATION_CONTEXT ( 'NONE', 'WORKASPACE' ) );
#704 = AXIS2_PLACEMENT_3D ( 'NONE', #1102, #677, #1022 ) ;
#705 = CIRCLE ( 'NONE', #495, 0.3500000000000013656 ) ;
#706 = VECTOR ( 'NONE', #905, 1000.000000000000000 ) ;
#707 = DIRECTION ( 'NONE',  ( 1.000000000000000000, -1.224646799147353207E-16, 0.000000000000000000 ) ) ;
#708 = FACE_OUTER_BOUND ( 'NONE', #446, .T. ) ;
#709 = ORIENTED_EDGE ( 'NONE', *, *, #846, .T. ) ;
#710 = ADVANCED_FACE ( 'NONE', ( #278 ), #174, .T. ) ;
#711 = FACE_OUTER_BOUND ( 'NONE', #150, .T. ) ;
#712 = CARTESIAN_POINT ( 'NONE',  ( 5.475000000000000533, 22.75999999999999801, 0.000000000000000000 ) ) ;
#713 = FACE_OUTER_BOUND ( 'NONE', #974, .T. ) ;
#714 = FACE_OUTER_BOUND ( 'NONE', #807, .T. ) ;
#715 = ORIENTED_EDGE ( 'NONE', *, *, #1071, .T. ) ;
#716 = CARTESIAN_POINT ( 'NONE',  ( 5.475000000000000533, -6.704941225331762575E-16, 0.000000000000000000 ) ) ;
#717 = ADVANCED_FACE ( 'NONE', ( #870 ), #793, .T. ) ;
#718 = CARTESIAN_POINT ( 'NONE',  ( -2.419594367104728169E-15, 3.102512626584709388, 0.000000000000000000 ) ) ;
#719 = CARTESIAN_POINT ( 'NONE',  ( 4.105592405036835886E-32, 0.09999999999999972800, 0.000000000000000000 ) ) ;
#720 = DIRECTION ( 'NONE',  ( 1.000000000000000000, 0.000000000000000000, 0.000000000000000000 ) ) ;
#721 = DIRECTION ( 'NONE',  ( 1.000000000000000000, 0.000000000000000000, 0.000000000000000000 ) ) ;
#722 = ORIENTED_EDGE ( 'NONE', *, *, #53, .F. ) ;
#723 = STYLED_ITEM ( 'NONE', ( #764 ), #626 ) ;
#724 = DIRECTION ( 'NONE',  ( -1.224646799147353207E-16, -1.000000000000000000, -0.000000000000000000 ) ) ;
#725 = ADVANCED_FACE ( 'NONE', ( #214 ), #413, .F. ) ;
#726 = DIRECTION ( 'NONE',  ( 1.000000000000000000, 0.000000000000000000, 0.000000000000000000 ) ) ;
#727 = DIRECTION ( 'NONE',  ( -1.224646799147353207E-16, -1.000000000000000000, -0.000000000000000000 ) ) ;
#728 = ORIENTED_EDGE ( 'NONE', *, *, #561, .T. ) ;
#729 = AXIS2_PLACEMENT_3D ( 'NONE', #302, #661, #809 ) ;
#730 = DIRECTION ( 'NONE',  ( -1.224646799147353207E-16, -1.000000000000000000, -0.000000000000000000 ) ) ;
#731 = VECTOR ( 'NONE', #747, 1000.000000000000000 ) ;
#732 = CARTESIAN_POINT ( 'NONE',  ( 4.775000000000004796, 22.85999999999999943, 0.000000000000000000 ) ) ;
#733 = CARTESIAN_POINT ( 'NONE',  ( -4.775000000000008349, 4.144974746830579981, 5.847688465928620679E-16 ) ) ;
#734 = DIRECTION ( 'NONE',  ( 1.000000000000000000, -1.224646799147353207E-16, 0.000000000000000000 ) ) ;
#735 = ORIENTED_EDGE ( 'NONE', *, *, #1071, .F. ) ;
#736 = CARTESIAN_POINT ( 'NONE',  ( 0.000000000000000000, 22.85999999999999943, 0.000000000000000000 ) ) ;
#737 = EDGE_CURVE ( 'NONE', #862, #1115, #993, .T. ) ;
#738 = ORIENTED_EDGE ( 'NONE', *, *, #326, .F. ) ;
#739 = DIRECTION ( 'NONE',  ( -1.224646799147353207E-16, -1.000000000000000000, -0.000000000000000000 ) ) ;
#740 = DIRECTION ( 'NONE',  ( 0.000000000000000000, 0.000000000000000000, -1.000000000000000000 ) ) ;
#741 = CARTESIAN_POINT ( 'NONE',  ( 3.421663156817704631E-15, 50.79999999999999716, 0.000000000000000000 ) ) ;
#742 = COLOUR_RGB ( '',1.000000000000000000, 1.000000000000000000, 1.000000000000000000 ) ;
#743 = ORIENTED_EDGE ( 'NONE', *, *, #2, .T. ) ;
#744 = CIRCLE ( 'NONE', #250, 5.475000000000003197 ) ;
#745 = DIRECTION ( 'NONE',  ( -1.224646799147353207E-16, -1.000000000000000000, -0.000000000000000000 ) ) ;
#746 = CIRCLE ( 'NONE', #51, 0.4064999999999999725 ) ;
#747 = DIRECTION ( 'NONE',  ( -1.224646799147353207E-16, -1.000000000000000000, -0.000000000000000000 ) ) ;
#748 = CARTESIAN_POINT ( 'NONE',  ( -4.344419056868685534E-16, 19.31251262658470935, 0.000000000000000000 ) ) ;
#749 = ORIENTED_EDGE ( 'NONE', *, *, #921, .T. ) ;
#750 = EDGE_CURVE ( 'NONE', #862, #812, #1137, .T. ) ;
#751 = FACE_BOUND ( 'NONE', #1025, .T. ) ;
#752 = ORIENTED_EDGE ( 'NONE', *, *, #487, .F. ) ;
#753 = CARTESIAN_POINT ( 'NONE',  ( -3.799482157461210791E-16, 19.75748737341528738, 0.000000000000000000 ) ) ;
#754 = EDGE_CURVE ( 'NONE', #800, #520, #508, .T. ) ;
#755 = EDGE_LOOP ( 'NONE', ( #743, #1043 ) ) ;
#756 = TOROIDAL_SURFACE ( 'NONE', #1033, 5.425000000000000711, 0.3500000000000010880 ) ;
#757 = VECTOR ( 'NONE', #776, 1000.000000000000000 ) ;
#758 = CARTESIAN_POINT ( 'NONE',  ( 5.475000000000000533, 22.85999999999999943, 0.000000000000000000 ) ) ;
#759 = CIRCLE ( 'NONE', #943, 5.475000000000000533 ) ;
#761 = VERTEX_POINT ( 'NONE', #842 ) ;
#760 = FACE_OUTER_BOUND ( 'NONE', #263, .T. ) ;
#762 = VERTEX_POINT ( 'NONE', #1123 ) ;
#763 = FACE_OUTER_BOUND ( 'NONE', #181, .T. ) ;
#765 = ORIENTED_EDGE ( 'NONE', *, *, #434, .F. ) ;
#764 = PRESENTATION_STYLE_ASSIGNMENT (( #425 ) ) ;
#766 = DIRECTION ( 'NONE',  ( -1.224646799147353207E-16, -1.000000000000000000, -0.000000000000000000 ) ) ;
#767 = EDGE_CURVE ( 'NONE', #592, #862, #272, .T. ) ;
#768 = FACE_OUTER_BOUND ( 'NONE', #370, .T. ) ;
#769 = DIRECTION ( 'NONE',  ( -1.224646799147353207E-16, -1.000000000000000000, -0.000000000000000000 ) ) ;
#770 = ORIENTED_EDGE ( 'NONE', *, *, #1105, .F. ) ;
#771 = DIRECTION ( 'NONE',  ( 1.000000000000000000, 0.000000000000000000, 0.000000000000000000 ) ) ;
#772 = AXIS2_PLACEMENT_3D ( 'NONE', #987, #730, #470 ) ;
#773 = ORIENTED_EDGE ( 'NONE', *, *, #1021, .F. ) ;
#774 = CIRCLE ( 'NONE', #871, 5.022487373415295941 ) ;
#775 = FACE_OUTER_BOUND ( 'NONE', #175, .T. ) ;
#776 = DIRECTION ( 'NONE',  ( -1.224646799147353207E-16, -1.000000000000000000, -0.000000000000000000 ) ) ;
#777 = ORIENTED_EDGE ( 'NONE', *, *, #487, .T. ) ;
#778 = VECTOR ( 'NONE', #106, 1000.000000000000000 ) ;
#779 = VECTOR ( 'NONE', #1078, 1000.000000000000000 ) ;
#780 = ORIENTED_EDGE ( 'NONE', *, *, #19, .F. ) ;
#781 = DIRECTION ( 'NONE',  ( 1.224646799147353207E-16, 1.000000000000000000, 0.000000000000000000 ) ) ;
#782 = EDGE_CURVE ( 'NONE', #1016, #889, #1082, .T. ) ;
#783 = ORIENTED_EDGE ( 'NONE', *, *, #523, .F. ) ;
#784 = ORIENTED_EDGE ( 'NONE', *, *, #914, .T. ) ;
#785 = DIRECTION ( 'NONE',  ( -1.224646799147353207E-16, -1.000000000000000000, -0.000000000000000000 ) ) ;
#786 = DIRECTION ( 'NONE',  ( -1.224646799147353207E-16, -1.000000000000000000, -0.000000000000000000 ) ) ;
#787 = DIRECTION ( 'NONE',  ( -1.224646799147353207E-16, -1.000000000000000000, 0.000000000000000000 ) ) ;
#788 = ORIENTED_EDGE ( 'NONE', *, *, #737, .T. ) ;
#789 = CIRCLE ( 'NONE', #601, 4.877512626584715960 ) ;
#790 = CARTESIAN_POINT ( 'NONE',  ( -5.125000000000003553, 17.85497474683058172, 6.276314845630188176E-16 ) ) ;
#791 = CARTESIAN_POINT ( 'NONE',  ( -2.291929577225581548E-15, 4.144974746830579093, 0.000000000000000000 ) ) ;
#792 = AXIS2_PLACEMENT_3D ( 'NONE', #577, #897, #734 ) ;
#793 = PLANE ( 'NONE',  #363 ) ;
#794 = ADVANCED_FACE ( 'NONE', ( #491 ), #171, .T. ) ;
#795 =( GEOMETRIC_REPRESENTATION_CONTEXT ( 3 ) GLOBAL_UNCERTAINTY_ASSIGNED_CONTEXT ( ( #1126 ) ) GLOBAL_UNIT_ASSIGNED_CONTEXT ( ( #412, #571, #1083 ) ) REPRESENTATION_CONTEXT ( 'NONE', 'WORKASPACE' ) );
#796 = ORIENTED_EDGE ( 'NONE', *, *, #837, .F. ) ;
#797 = CARTESIAN_POINT ( 'NONE',  ( 4.775000000000001243, 17.85497474683057817, 0.000000000000000000 ) ) ;
#798 = DIRECTION ( 'NONE',  ( -1.224646799147353207E-16, -1.000000000000000000, -0.000000000000000000 ) ) ;
#799 = DIRECTION ( 'NONE',  ( 1.224646799147353207E-16, -1.499759782661857608E-32, 1.000000000000000000 ) ) ;
#800 = VERTEX_POINT ( 'NONE', #410 ) ;
#801 = EDGE_CURVE ( 'NONE', #392, #939, #941, .T. ) ;
#802 = DIRECTION ( 'NONE',  ( 0.000000000000000000, 0.000000000000000000, -1.000000000000000000 ) ) ;
#803 = DIRECTION ( 'NONE',  ( -1.000000000000000000, 0.000000000000000000, 0.000000000000000000 ) ) ;
#804 = DIRECTION ( 'NONE',  ( -1.224646799147353207E-16, -1.000000000000000000, -0.000000000000000000 ) ) ;
#805 = CARTESIAN_POINT ( 'NONE',  ( 0.000000000000000000, 22.85999999999999943, 0.000000000000000000 ) ) ;
#806 = DIRECTION ( 'NONE',  ( 1.000000000000000000, -1.224646799147353207E-16, 0.000000000000000000 ) ) ;
#807 = EDGE_LOOP ( 'NONE', ( #441, #483, #132, #1148 ) ) ;
#808 = DIRECTION ( 'NONE',  ( -1.224646799147353207E-16, -1.000000000000000000, -0.000000000000000000 ) ) ;
#809 = DIRECTION ( 'NONE',  ( -1.000000000000000000, 0.000000000000000000, 0.000000000000000000 ) ) ;
#810 = STYLED_ITEM ( 'NONE', ( #144 ), #925 ) ;
#811 = LINE ( 'NONE', #1061, #659 ) ;
#812 = VERTEX_POINT ( 'NONE', #594 ) ;
#813 = AXIS2_PLACEMENT_3D ( 'NONE', #866, #79, #617 ) ;
#814 = CYLINDRICAL_SURFACE ( 'NONE', #65, 0.4065000000000079106 ) ;
#815 = AXIS2_PLACEMENT_3D ( 'NONE', #998, #1005, #490 ) ;
#816 = CARTESIAN_POINT ( 'NONE',  ( 5.672487373415290968, 19.75748737341528738, 6.946793505056813349E-16 ) ) ;
#817 = ADVANCED_FACE ( 'NONE', ( #489 ), #477, .T. ) ;
#818 = DIRECTION ( 'NONE',  ( 1.000000000000000000, 0.000000000000000000, 0.000000000000000000 ) ) ;
#819 = EDGE_LOOP ( 'NONE', ( #968, #339, #989, #96 ) ) ;
#820 = DIRECTION ( 'NONE',  ( 0.7071067811865561215, 0.7071067811865389130, 8.659560562355036396E-17 ) ) ;
#821 = CARTESIAN_POINT ( 'NONE',  ( 4.877512626584713296, 3.897487373415285727, 0.000000000000000000 ) ) ;
#822 = CARTESIAN_POINT ( 'NONE',  ( -6.129388155945595071E-16, 17.85497474683058172, 0.000000000000000000 ) ) ;
#823 = ORIENTED_EDGE ( 'NONE', *, *, #424, .T. ) ;
#824 = CARTESIAN_POINT ( 'NONE',  ( -6.913100254973713590E-16, 17.21502525316941501, 0.000000000000000000 ) ) ;
#825 = CARTESIAN_POINT ( 'NONE',  ( 5.125000000000003553, 4.144974746830578205, 0.000000000000000000 ) ) ;
#826 = CARTESIAN_POINT ( 'NONE',  ( -5.672487373415291856, 19.75748737341528738, 0.000000000000000000 ) ) ;
#827 = SURFACE_SIDE_STYLE ('',( #391 ) ) ;
#828 = AXIS2_PLACEMENT_3D ( 'NONE', #163, #873, #1131 ) ;
#829 = EDGE_LOOP ( 'NONE', ( #702, #715, #209, #560 ) ) ;
#830 = VECTOR ( 'NONE', #185, 1000.000000000000000 ) ;
#831 = DIRECTION ( 'NONE',  ( -1.224646799147353207E-16, -1.000000000000000000, -0.000000000000000000 ) ) ;
#832 = COLOUR_RGB ( '',1.000000000000000000, 1.000000000000000000, 1.000000000000000000 ) ;
#833 = CARTESIAN_POINT ( 'NONE',  ( 0.4065000000000033586, 50.79999999999999716, 0.000000000000000000 ) ) ;
#834 = CIRCLE ( 'NONE', #69, 0.4065000000000096314 ) ;
#835 = FACE_OUTER_BOUND ( 'NONE', #694, .T. ) ;
#836 = ORIENTED_EDGE ( 'NONE', *, *, #914, .F. ) ;
#837 = EDGE_CURVE ( 'NONE', #600, #564, #119, .T. ) ;
#838 = DIRECTION ( 'NONE',  ( 1.000000000000000000, 0.000000000000000000, 0.000000000000000000 ) ) ;
#839 = ADVANCED_FACE ( 'NONE', ( #216 ), #50, .F. ) ;
#840 = FACE_OUTER_BOUND ( 'NONE', #63, .T. ) ;
#841 = DIRECTION ( 'NONE',  ( -0.7071067811865558994, 0.7071067811865392461, 0.000000000000000000 ) ) ;
#842 = CARTESIAN_POINT ( 'NONE',  ( 5.125000000000001776, 17.85497474683058172, 0.000000000000000000 ) ) ;
#844 = EDGE_LOOP ( 'NONE', ( #241, #1020, #679, #332 ) ) ;
#843 = PRODUCT_CONTEXT ( 'NONE', #257, 'mechanical' ) ;
#845 = DIRECTION ( 'NONE',  ( 1.000000000000000000, 0.000000000000000000, 0.000000000000000000 ) ) ;
#846 = EDGE_CURVE ( 'NONE', #876, #762, #654, .T. ) ;
#848 = ORIENTED_EDGE ( 'NONE', *, *, #233, .F. ) ;
#847 = SURFACE_SIDE_STYLE ('',( #420 ) ) ;
#849 = DIRECTION ( 'NONE',  ( 1.000000000000000000, 0.000000000000000000, -1.224646799147353207E-16 ) ) ;
#850 = CIRCLE ( 'NONE', #619, 4.877512626584715960 ) ;
#851 = ADVANCED_FACE ( 'NONE', ( #763, #751 ), #1113, .F. ) ;
#852 = AXIS2_PLACEMENT_3D ( 'NONE', #277, #173, #5 ) ;
#853 = ORIENTED_EDGE ( 'NONE', *, *, #116, .F. ) ;
#854 = ORIENTED_EDGE ( 'NONE', *, *, #1079, .F. ) ;
#855 = SURFACE_STYLE_FILL_AREA ( #531 ) ;
#856 = DIRECTION ( 'NONE',  ( 1.000000000000000000, -1.224646799147353207E-16, 0.000000000000000000 ) ) ;
#858 = ORIENTED_EDGE ( 'NONE', *, *, #921, .F. ) ;
#857 = CARTESIAN_POINT ( 'NONE',  ( -5.475000000000000533, 22.85999999999999943, 6.704941225331759617E-16 ) ) ;
#859 = DIRECTION ( 'NONE',  ( 1.000000000000000000, -8.891435085794324678E-17, 0.000000000000000000 ) ) ;
#860 = CARTESIAN_POINT ( 'NONE',  ( 5.775000000000000355, 22.85999999999999943, 0.000000000000000000 ) ) ;
#861 = ORIENTED_EDGE ( 'NONE', *, *, #271, .F. ) ;
#862 = VERTEX_POINT ( 'NONE', #235 ) ;
#863 = EDGE_CURVE ( 'NONE', #889, #520, #226, .T. ) ;
#864 = AXIS2_PLACEMENT_3D ( 'NONE', #753, #831, #668 ) ;
#865 = AXIS2_PLACEMENT_3D ( 'NONE', #275, #3, #726 ) ;
#866 = CARTESIAN_POINT ( 'NONE',  ( -6.610015635291290114E-16, 17.46251262658470793, 0.000000000000000000 ) ) ;
#867 = DIRECTION ( 'NONE',  ( 1.224646799147353207E-16, -1.499759782661857608E-32, 1.000000000000000000 ) ) ;
#868 = ORIENTED_EDGE ( 'NONE', *, *, #1004, .T. ) ;
#869 = VECTOR ( 'NONE', #841, 999.9999999999998863 ) ;
#870 = FACE_OUTER_BOUND ( 'NONE', #524, .T. ) ;
#871 = AXIS2_PLACEMENT_3D ( 'NONE', #1059, #798, #282 ) ;
#872 = ORIENTED_EDGE ( 'NONE', *, *, #133, .F. ) ;
#873 = DIRECTION ( 'NONE',  ( -1.224646799147353207E-16, -1.000000000000000000, -0.000000000000000000 ) ) ;
#874 = CARTESIAN_POINT ( 'NONE',  ( 5.672487373415291856, 3.102512626584708499, 0.000000000000000000 ) ) ;
#875 = DIRECTION ( 'NONE',  ( -1.224646799147353207E-16, -1.000000000000000000, -0.000000000000000000 ) ) ;
#876 = VERTEX_POINT ( 'NONE', #239 ) ;
#877 = EDGE_CURVE ( 'NONE', #488, #1108, #475, .T. ) ;
#878 = CARTESIAN_POINT ( 'NONE',  ( 5.125000000000002665, 22.85999999999999943, 0.000000000000000000 ) ) ;
#879 = CARTESIAN_POINT ( 'NONE',  ( 4.877512626584709743, 17.46251262658470793, 0.000000000000000000 ) ) ;
#880 = ORIENTED_EDGE ( 'NONE', *, *, #681, .F. ) ;
#881 = CYLINDRICAL_SURFACE ( 'NONE', #772, 5.475000000000000533 ) ;
#882 = MECHANICAL_DESIGN_GEOMETRIC_PRESENTATION_REPRESENTATION (  '', ( #938 ), #11 ) ;
#883 = CARTESIAN_POINT ( 'NONE',  ( 5.775000000000003020, -7.072335265075971175E-16, 0.000000000000000000 ) ) ;
#884 = PRODUCT_RELATED_PRODUCT_CATEGORY ( 'part', '', ( #303 ) ) ;
#885 = DIRECTION ( 'NONE',  ( -1.224646799147353207E-16, -1.000000000000000000, -0.000000000000000000 ) ) ;
#886 = AXIS2_PLACEMENT_3D ( 'NONE', #618, #787, #984 ) ;
#887 = UNCERTAINTY_MEASURE_WITH_UNIT (LENGTH_MEASURE( 1.000000000000000082E-05 ), #56, 'distance_accuracy_value', 'NONE');
#888 = CIRCLE ( 'NONE', #442, 5.775000000000005684 ) ;
#889 = VERTEX_POINT ( 'NONE', #134 ) ;
#890 = CIRCLE ( 'NONE', #865, 5.125000000000003553 ) ;
#891 = CARTESIAN_POINT ( 'NONE',  ( -2.322238039193823599E-15, 3.897487373415286172, 0.000000000000000000 ) ) ;
#892 = FACE_OUTER_BOUND ( 'NONE', #547, .T. ) ;
#893 = ORIENTED_EDGE ( 'NONE', *, *, #238, .T. ) ;
#894 = CARTESIAN_POINT ( 'NONE',  ( -0.4065000000000090763, 4.978189238534067895E-17, 4.978189238534077755E-17 ) ) ;
#895 = CARTESIAN_POINT ( 'NONE',  ( -5.475000000000000533, 22.85999999999999943, 6.704941225331759617E-16 ) ) ;
#896 = DIRECTION ( 'NONE',  ( -1.224646799147353207E-16, -1.000000000000000000, -0.000000000000000000 ) ) ;
#897 = DIRECTION ( 'NONE',  ( -1.224646799147353207E-16, -1.000000000000000000, 0.000000000000000000 ) ) ;
#898 = ORIENTED_EDGE ( 'NONE', *, *, #74, .T. ) ;
#899 = ADVANCED_FACE ( 'NONE', ( #34 ), #526, .F. ) ;
#900 = DIRECTION ( 'NONE',  ( 1.000000000000000000, 0.000000000000000000, 0.000000000000000000 ) ) ;
#901 = AXIS2_PLACEMENT_3D ( 'NONE', #44, #931, #911 ) ;
#902 = CYLINDRICAL_SURFACE ( 'NONE', #366, 5.475000000000003197 ) ;
#903 = EDGE_LOOP ( 'NONE', ( #783, #474, #613, #861 ) ) ;
#904 = VECTOR ( 'NONE', #766, 1000.000000000000000 ) ;
#905 = DIRECTION ( 'NONE',  ( -1.224646799147353207E-16, -1.000000000000000000, -0.000000000000000000 ) ) ;
#906 = CIRCLE ( 'NONE', #427, 5.774999999999998579 ) ;
#907 = CARTESIAN_POINT ( 'NONE',  ( 5.475000000000000533, 22.85999999999999943, 0.000000000000000000 ) ) ;
#908 = FILL_AREA_STYLE ('',( #1089 ) ) ;
#909 = ORIENTED_EDGE ( 'NONE', *, *, #137, .F. ) ;
#910 = CARTESIAN_POINT ( 'NONE',  ( 5.775000000000005684, 22.85999999999999943, 0.000000000000000000 ) ) ;
#911 = DIRECTION ( 'NONE',  ( 1.000000000000000000, 0.000000000000000000, 0.000000000000000000 ) ) ;
#912 = PLANE ( 'NONE',  #128 ) ;
#913 = FACE_OUTER_BOUND ( 'NONE', #1007, .T. ) ;
#914 = EDGE_CURVE ( 'NONE', #614, #1115, #159, .T. ) ;
#915 = ORIENTED_EDGE ( 'NONE', *, *, #750, .T. ) ;
#916 = DIRECTION ( 'NONE',  ( -1.224646799147353207E-16, -1.000000000000000000, -0.000000000000000000 ) ) ;
#917 = DIRECTION ( 'NONE',  ( 1.224646799147353207E-16, -1.499759782661857608E-32, 1.000000000000000000 ) ) ;
#918 = AXIS2_PLACEMENT_3D ( 'NONE', #1077, #646, #197 ) ;
#919 = DIRECTION ( 'NONE',  ( -1.224646799147353207E-16, -1.000000000000000000, -0.000000000000000000 ) ) ;
#920 = MANIFOLD_SOLID_BREP ( 'Revolve2[1]', #478 ) ;
#921 = EDGE_CURVE ( 'NONE', #762, #876, #1069, .T. ) ;
#922 = CIRCLE ( 'NONE', #1052, 0.4065000000000062452 ) ;
#923 = EDGE_LOOP ( 'NONE', ( #82, #999, #140, #1034 ) ) ;
#924 = CIRCLE ( 'NONE', #33, 0.3500000000000013656 ) ;
#925 = MANIFOLD_SOLID_BREP ( 'Revolve1', #1121 ) ;
#926 = SURFACE_STYLE_USAGE ( .BOTH. , #225 ) ;
#927 = CIRCLE ( 'NONE', #1040, 5.022487373415295941 ) ;
#928 = DIRECTION ( 'NONE',  ( 1.000000000000000000, 0.000000000000000000, 0.000000000000000000 ) ) ;
#929 = ORIENTED_EDGE ( 'NONE', *, *, #1116, .F. ) ;
#930 = EDGE_CURVE ( 'NONE', #671, #135, #687, .T. ) ;
#931 = DIRECTION ( 'NONE',  ( -1.224646799147353207E-16, -1.000000000000000000, -0.000000000000000000 ) ) ;
#932 = DIRECTION ( 'NONE',  ( -1.224646799147353207E-16, -1.000000000000000000, -0.000000000000000000 ) ) ;
#933 = ORIENTED_EDGE ( 'NONE', *, *, #353, .F. ) ;
#934 = EDGE_CURVE ( 'NONE', #439, #671, #789, .T. ) ;
#935 =( NAMED_UNIT ( * ) SI_UNIT ( $, .STERADIAN. ) SOLID_ANGLE_UNIT ( ) );
#937 = ORIENTED_EDGE ( 'NONE', *, *, #657, .T. ) ;
#936 =( NAMED_UNIT ( * ) PLANE_ANGLE_UNIT ( ) SI_UNIT ( $, .RADIAN. ) );
#938 = STYLED_ITEM ( 'NONE', ( #1094 ), #920 ) ;
#939 = VERTEX_POINT ( 'NONE', #436 ) ;
#940 = FILL_AREA_STYLE_COLOUR ( '', #182 ) ;
#941 = CIRCLE ( 'NONE', #459, 0.3500000000000004774 ) ;
#942 = AXIS2_PLACEMENT_3D ( 'NONE', #805, #875, #636 ) ;
#943 = AXIS2_PLACEMENT_3D ( 'NONE', #431, #769, #78 ) ;
#944 = CYLINDRICAL_SURFACE ( 'NONE', #164, 5.775000000000005684 ) ;
#946 = VERTEX_POINT ( 'NONE', #447 ) ;
#945 = APPLICATION_PROTOCOL_DEFINITION ( 'draft international standard', 'automotive_design', 1998, #257 ) ;
#947 = ADVANCED_FACE ( 'NONE', ( #357 ), #169, .T. ) ;
#948 = ORIENTED_EDGE ( 'NONE', *, *, #1079, .T. ) ;
#949 = DIRECTION ( 'NONE',  ( 1.224646799147353207E-16, -1.499759782661857608E-32, 1.000000000000000000 ) ) ;
#950 = ADVANCED_FACE ( 'NONE', ( #711 ), #756, .T. ) ;
#952 = ORIENTED_EDGE ( 'NONE', *, *, #506, .T. ) ;
#951 =( LENGTH_UNIT ( ) NAMED_UNIT ( * ) SI_UNIT ( .MILLI., .METRE. ) );
#953 = ORIENTED_EDGE ( 'NONE', *, *, #299, .F. ) ;
#954 = PRESENTATION_STYLE_ASSIGNMENT (( #525 ) ) ;
#955 = EDGE_LOOP ( 'NONE', ( #752, #1084, #196, #334 ) ) ;
#956 = ADVANCED_FACE ( 'NONE', ( #768 ), #28, .T. ) ;
#957 = UNCERTAINTY_MEASURE_WITH_UNIT (LENGTH_MEASURE( 1.000000000000000082E-05 ), #690, 'distance_accuracy_value', 'NONE');
#958 = ORIENTED_EDGE ( 'NONE', *, *, #959, .F. ) ;
#959 = EDGE_CURVE ( 'NONE', #800, #1016, #1014, .T. ) ;
#960 = MECHANICAL_DESIGN_GEOMETRIC_PRESENTATION_REPRESENTATION (  '', ( #810 ), #494 ) ;
#961 = DIRECTION ( 'NONE',  ( 1.000000000000000000, -1.224646799147353207E-16, 0.000000000000000000 ) ) ;
#962 = STYLED_ITEM ( 'NONE', ( #323 ), #555 ) ;
#963 = CARTESIAN_POINT ( 'NONE',  ( 5.425000000000003375, 2.855025253169414690, 0.000000000000000000 ) ) ;
#964 = CARTESIAN_POINT ( 'NONE',  ( -2.322238039193823599E-15, 3.897487373415286172, 0.000000000000000000 ) ) ;
#965 = DIRECTION ( 'NONE',  ( 1.000000000000000000, 0.000000000000000000, -1.224646799147353207E-16 ) ) ;
#966 = CYLINDRICAL_SURFACE ( 'NONE', #942, 5.775000000000000355 ) ;
#967 = AXIS2_PLACEMENT_3D ( 'NONE', #45, #683, #152 ) ;
#968 = ORIENTED_EDGE ( 'NONE', *, *, #801, .F. ) ;
#969 = SURFACE_SIDE_STYLE ('',( #73 ) ) ;
#970 = EDGE_CURVE ( 'NONE', #1108, #488, #982, .T. ) ;
#971 = FACE_OUTER_BOUND ( 'NONE', #1027, .T. ) ;
#972 = CYLINDRICAL_SURFACE ( 'NONE', #313, 5.475000000000003197 ) ;
#973 = CYLINDRICAL_SURFACE ( 'NONE', #570, 5.775000000000005684 ) ;
#974 = EDGE_LOOP ( 'NONE', ( #529, #421, #952, #92 ) ) ;
#975 = CARTESIAN_POINT ( 'NONE',  ( -4.775000000000004796, 22.85999999999999943, 5.847688465928617721E-16 ) ) ;
#976 = ADVANCED_FACE ( 'NONE', ( #550 ), #635, .T. ) ;
#977 = CARTESIAN_POINT ( 'NONE',  ( -0.4065000000000016933, 22.85999999999999943, 4.978189238534011812E-17 ) ) ;
#978 = DIRECTION ( 'NONE',  ( -1.224646799147353207E-16, -1.000000000000000000, -0.000000000000000000 ) ) ;
#979 = DIRECTION ( 'NONE',  ( -1.224646799147353207E-16, -1.000000000000000000, -0.000000000000000000 ) ) ;
#980 = EDGE_LOOP ( 'NONE', ( #1057, #317 ) ) ;
#981 = DIRECTION ( 'NONE',  ( 1.000000000000000000, -1.224646799147353207E-16, 0.000000000000000000 ) ) ;
#982 = CIRCLE ( 'NONE', #1118, 5.672487373415291856 ) ;
#983 = COLOUR_RGB ( '',0.2980392156862745057, 0.2980392156862745057, 0.2980392156862745057 ) ;
#984 = DIRECTION ( 'NONE',  ( 1.000000000000000000, -1.224646799147353207E-16, 0.000000000000000000 ) ) ;
#985 = VERTEX_POINT ( 'NONE', #894 ) ;
#986 = MECHANICAL_DESIGN_GEOMETRIC_PRESENTATION_REPRESENTATION (  '', ( #962 ), #190 ) ;
#987 = CARTESIAN_POINT ( 'NONE',  ( 0.000000000000000000, 22.85999999999999943, 0.000000000000000000 ) ) ;
#988 = PLANE ( 'NONE',  #886 ) ;
#989 = ORIENTED_EDGE ( 'NONE', *, *, #1021, .T. ) ;
#990 = DIRECTION ( 'NONE',  ( -1.224646799147353207E-16, -1.000000000000000000, -0.000000000000000000 ) ) ;
#991 = DIRECTION ( 'NONE',  ( 0.000000000000000000, 0.000000000000000000, -1.000000000000000000 ) ) ;
#992 = CARTESIAN_POINT ( 'NONE',  ( 0.000000000000000000, 22.85999999999999943, 0.000000000000000000 ) ) ;
#993 = LINE ( 'NONE', #200, #308 ) ;
#994 = VERTEX_POINT ( 'NONE', #625 ) ;
#995 = CARTESIAN_POINT ( 'NONE',  ( -5.475000000000000533, 22.75999999999999801, 6.704941225331759617E-16 ) ) ;
#996 = FACE_OUTER_BOUND ( 'NONE', #47, .T. ) ;
#997 = AXIS2_PLACEMENT_3D ( 'NONE', #596, #26, #1008 ) ;
#998 = CARTESIAN_POINT ( 'NONE',  ( -4.647503676551109996E-16, 19.06502525316941643, 0.000000000000000000 ) ) ;
#999 = ORIENTED_EDGE ( 'NONE', *, *, #118, .T. ) ;
#1000 = AXIS2_PLACEMENT_3D ( 'NONE', #90, #191, #806 ) ;
#1001 = AXIS2_PLACEMENT_3D ( 'NONE', #195, #701, #284 ) ;
#1002 =( NAMED_UNIT ( * ) PLANE_ANGLE_UNIT ( ) SI_UNIT ( $, .RADIAN. ) );
#1003 = CIRCLE ( 'NONE', #815, 5.125000000000003553 ) ;
#1004 = EDGE_CURVE ( 'NONE', #1115, #614, #672, .T. ) ;
#1005 = DIRECTION ( 'NONE',  ( -1.224646799147353207E-16, -1.000000000000000000, -0.000000000000000000 ) ) ;
#1006 = DIRECTION ( 'NONE',  ( -1.000000000000000000, 1.224646799147353207E-16, 0.000000000000000000 ) ) ;
#1007 = EDGE_LOOP ( 'NONE', ( #749, #432, #780, #343 ) ) ;
#1008 = DIRECTION ( 'NONE',  ( 1.000000000000000000, -1.224646799147353207E-16, 0.000000000000000000 ) ) ;
#1009 = CARTESIAN_POINT ( 'NONE',  ( -2.449902829072971009E-15, 2.855025253169412913, 0.000000000000000000 ) ) ;
#1010 = ORIENTED_EDGE ( 'NONE', *, *, #1050, .T. ) ;
#1011 = MECHANICAL_DESIGN_GEOMETRIC_PRESENTATION_REPRESENTATION (  '', ( #723 ), #703 ) ;
#1012 = DIRECTION ( 'NONE',  ( -1.224646799147353207E-16, -1.000000000000000000, -0.000000000000000000 ) ) ;
#1013 = DIRECTION ( 'NONE',  ( 1.000000000000000000, 0.000000000000000000, 0.000000000000000000 ) ) ;
#1014 = CIRCLE ( 'NONE', #828, 5.774999999999998579 ) ;
#1015 = ADVANCED_FACE ( 'NONE', ( #176 ), #437, .T. ) ;
#1016 = VERTEX_POINT ( 'NONE', #193 ) ;
#1017 = VECTOR ( 'NONE', #23, 1000.000000000000000 ) ;
#1018 = EDGE_CURVE ( 'NONE', #600, #985, #922, .T. ) ;
#1019 = AXIS2_PLACEMENT_3D ( 'NONE', #666, #583, #228 ) ;
#1020 = ORIENTED_EDGE ( 'NONE', *, *, #782, .T. ) ;
#1021 = EDGE_CURVE ( 'NONE', #761, #994, #565, .T. ) ;
#1022 = DIRECTION ( 'NONE',  ( 1.000000000000000000, -1.224646799147353207E-16, 0.000000000000000000 ) ) ;
#1023 = DIRECTION ( 'NONE',  ( 1.000000000000000000, 0.000000000000000000, 0.000000000000000000 ) ) ;
#1025 = EDGE_LOOP ( 'NONE', ( #611, #624 ) ) ;
#1024 = DIRECTION ( 'NONE',  ( 1.000000000000000000, 0.000000000000000000, 0.000000000000000000 ) ) ;
#1026 = PRODUCT_DEFINITION_CONTEXT ( 'detailed design', #398, 'design' ) ;
#1027 = EDGE_LOOP ( 'NONE', ( #535, #606, #154, #796 ) ) ;
#1028 = VECTOR ( 'NONE', #58, 1000.000000000000000 ) ;
#1029 = SURFACE_SIDE_STYLE ('',( #113 ) ) ;
#1030 = DIRECTION ( 'NONE',  ( 1.224646799147353207E-16, 1.000000000000000000, 0.000000000000000000 ) ) ;
#1031 = ORIENTED_EDGE ( 'NONE', *, *, #399, .F. ) ;
#1032 = FACE_OUTER_BOUND ( 'NONE', #980, .T. ) ;
#1033 = AXIS2_PLACEMENT_3D ( 'NONE', #697, #340, #961 ) ;
#1034 = ORIENTED_EDGE ( 'NONE', *, *, #863, .F. ) ;
#1035 = CIRCLE ( 'NONE', #692, 5.475000000000003197 ) ;
#1036 = SURFACE_SIDE_STYLE ('',( #855 ) ) ;
#1037 = AXIS2_PLACEMENT_3D ( 'NONE', #468, #896, #464 ) ;
#1038 = EDGE_CURVE ( 'NONE', #762, #37, #705, .T. ) ;
#1039 = CARTESIAN_POINT ( 'NONE',  ( -6.221205739668554519E-15, -27.94000000000000483, 0.000000000000000000 ) ) ;
#1040 = AXIS2_PLACEMENT_3D ( 'NONE', #297, #647, #900 ) ;
#1042 = ORIENTED_EDGE ( 'NONE', *, *, #593, .F. ) ;
#1041 = FACE_OUTER_BOUND ( 'NONE', #509, .T. ) ;
#1043 = ORIENTED_EDGE ( 'NONE', *, *, #1105, .T. ) ;
#1044 = SURFACE_STYLE_USAGE ( .BOTH. , #969 ) ;
#1045 = ORIENTED_EDGE ( 'NONE', *, *, #665, .F. ) ;
#1046 = ADVANCED_FACE ( 'NONE', ( #389 ), #814, .T. ) ;
#1047 = VERTEX_POINT ( 'NONE', #995 ) ;
#1048 = FACE_OUTER_BOUND ( 'NONE', #819, .T. ) ;
#1049 = CARTESIAN_POINT ( 'NONE',  ( -2.787296114859375743E-15, 0.09999999999999939493, 0.000000000000000000 ) ) ;
#1050 = EDGE_CURVE ( 'NONE', #1100, #37, #48, .T. ) ;
#1051 = VERTEX_POINT ( 'NONE', #93 ) ;
#1052 = AXIS2_PLACEMENT_3D ( 'NONE', #84, #990, #202 ) ;
#1053 = VECTOR ( 'NONE', #745, 1000.000000000000000 ) ;
#1054 = DIRECTION ( 'NONE',  ( 1.000000000000000000, 0.000000000000000000, 0.000000000000000000 ) ) ;
#1055 = FACE_OUTER_BOUND ( 'NONE', #168, .T. ) ;
#1056 = TOROIDAL_SURFACE ( 'NONE', #345, 5.425000000000006040, 0.3499999999999993117 ) ;
#1057 = ORIENTED_EDGE ( 'NONE', *, *, #621, .T. ) ;
#1058 = EDGE_CURVE ( 'NONE', #876, #135, #291, .T. ) ;
#1059 = CARTESIAN_POINT ( 'NONE',  ( -6.432472775628018547E-16, 17.60748737341528880, 0.000000000000000000 ) ) ;
#1060 = FACE_OUTER_BOUND ( 'NONE', #215, .T. ) ;
#1061 = CARTESIAN_POINT ( 'NONE',  ( -5.475000000000003197, 22.85999999999999943, 6.704941225331762575E-16 ) ) ;
#1062 = ORIENTED_EDGE ( 'NONE', *, *, #930, .F. ) ;
#1063 = CARTESIAN_POINT ( 'NONE',  ( 0.4065000000000016933, 22.85999999999999943, 0.000000000000000000 ) ) ;
#1064 = AXIS2_PLACEMENT_3D ( 'NONE', #210, #327, #337 ) ;
#1065 =( NAMED_UNIT ( * ) PLANE_ANGLE_UNIT ( ) SI_UNIT ( $, .RADIAN. ) );
#1066 = CARTESIAN_POINT ( 'NONE',  ( 4.775000000000003908, 4.144974746830578205, 0.000000000000000000 ) ) ;
#1067 = VERTEX_POINT ( 'NONE', #639 ) ;
#1068 = DIRECTION ( 'NONE',  ( 1.000000000000000000, -8.891435085794324678E-17, 0.000000000000000000 ) ) ;
#1069 = CIRCLE ( 'NONE', #83, 4.775000000000003020 ) ;
#1070 = CARTESIAN_POINT ( 'NONE',  ( 0.000000000000000000, 22.85999999999999943, 0.000000000000000000 ) ) ;
#1071 = EDGE_CURVE ( 'NONE', #37, #994, #109, .T. ) ;
#1072 = DIRECTION ( 'NONE',  ( 1.000000000000000000, 0.000000000000000000, 0.000000000000000000 ) ) ;
#1073 = CARTESIAN_POINT ( 'NONE',  ( 8.661112744872225769E-32, 22.85999999999999943, 0.000000000000000000 ) ) ;
#1074 = AXIS2_PLACEMENT_3D ( 'NONE', #387, #18, #576 ) ;
#1075 = VERTEX_POINT ( 'NONE', #716 ) ;
#1076 = VECTOR ( 'NONE', #395, 999.9999999999998863 ) ;
#1077 = CARTESIAN_POINT ( 'NONE',  ( 6.096523516520502247E-33, 22.85999999999999943, 0.000000000000000000 ) ) ;
#1078 = DIRECTION ( 'NONE',  ( -1.224646799147353207E-16, -1.000000000000000000, -0.000000000000000000 ) ) ;
#1079 = EDGE_CURVE ( 'NONE', #426, #676, #557, .T. ) ;
#1080 = EDGE_LOOP ( 'NONE', ( #249, #259, #645, #854 ) ) ;
#1081 = DIRECTION ( 'NONE',  ( -1.000000000000000000, 0.000000000000000000, 0.000000000000000000 ) ) ;
#1082 = LINE ( 'NONE', #101, #904 ) ;
#1083 =( NAMED_UNIT ( * ) SI_UNIT ( $, .STERADIAN. ) SOLID_ANGLE_UNIT ( ) );
#1084 = ORIENTED_EDGE ( 'NONE', *, *, #10, .F. ) ;
#1085 = ADVANCED_FACE ( 'NONE', ( #22 ), #401, .F. ) ;
#1086 = DIRECTION ( 'NONE',  ( 1.000000000000000000, -8.891435085794324678E-17, 0.000000000000000000 ) ) ;
#1087 = DIRECTION ( 'NONE',  ( -1.000000000000000000, 0.000000000000000000, 0.000000000000000000 ) ) ;
#1088 =( GEOMETRIC_REPRESENTATION_CONTEXT ( 3 ) GLOBAL_UNCERTAINTY_ASSIGNED_CONTEXT ( ( #887 ) ) GLOBAL_UNIT_ASSIGNED_CONTEXT ( ( #56, #156, #266 ) ) REPRESENTATION_CONTEXT ( 'NONE', 'WORKASPACE' ) );
#1089 = FILL_AREA_STYLE_COLOUR ( '', #832 ) ;
#1090 = ORIENTED_EDGE ( 'NONE', *, *, #443, .T. ) ;
#1091 = AXIS2_PLACEMENT_3D ( 'NONE', #396, #321, #36 ) ;
#1092 = ADVANCED_FACE ( 'NONE', ( #376 ), #881, .F. ) ;
#1093 = CIRCLE ( 'NONE', #13, 0.3500000000000004774 ) ;
#1094 = PRESENTATION_STYLE_ASSIGNMENT (( #224 ) ) ;
#1095 = DIRECTION ( 'NONE',  ( 1.000000000000000000, -1.224646799147353207E-16, 0.000000000000000000 ) ) ;
#1096 = ORIENTED_EDGE ( 'NONE', *, *, #767, .T. ) ;
#1097 = DIRECTION ( 'NONE',  ( 1.000000000000000000, -1.224646799147353207E-16, 0.000000000000000000 ) ) ;
#1098 = CARTESIAN_POINT ( 'NONE',  ( 5.775000000000002132, 20.00497474683058030, 0.000000000000000000 ) ) ;
#1099 = DIRECTION ( 'NONE',  ( -1.224646799147353207E-16, -1.000000000000000000, -0.000000000000000000 ) ) ;
#1100 = VERTEX_POINT ( 'NONE', #381 ) ;
#1101 = CARTESIAN_POINT ( 'NONE',  ( -3.496397537778786822E-16, 20.00497474683058030, 0.000000000000000000 ) ) ;
#1102 = CARTESIAN_POINT ( 'NONE',  ( 8.436148777472949865E-32, 22.85999999999999943, 0.000000000000000000 ) ) ;
#1103 = FILL_AREA_STYLE_COLOUR ( '', #983 ) ;
#1104 = FACE_OUTER_BOUND ( 'NONE', #1080, .T. ) ;
#1105 = EDGE_CURVE ( 'NONE', #1067, #676, #180, .T. ) ;
#1106 = PRESENTATION_LAYER_ASSIGNMENT (  '', '', ( #810 ) ) ;
#1108 = VERTEX_POINT ( 'NONE', #562 ) ;
#1107 = FILL_AREA_STYLE_COLOUR ( '', #99 ) ;
#1109 = AXIS2_PLACEMENT_3D ( 'NONE', #502, #916, #318 ) ;
#1110 = CIRCLE ( 'NONE', #145, 5.475000000000003197 ) ;
#1112 = ORIENTED_EDGE ( 'NONE', *, *, #118, .F. ) ;
#1111 =( NAMED_UNIT ( * ) SI_UNIT ( $, .STERADIAN. ) SOLID_ANGLE_UNIT ( ) );
#1113 = PLANE ( 'NONE',  #704 ) ;
#1114 = DIRECTION ( 'NONE',  ( -1.224646799147353207E-16, -1.000000000000000000, -0.000000000000000000 ) ) ;
#1115 = VERTEX_POINT ( 'NONE', #102 ) ;
#1116 = EDGE_CURVE ( 'NONE', #392, #761, #584, .T. ) ;
#1117 = VERTEX_POINT ( 'NONE', #598 ) ;
#1118 = AXIS2_PLACEMENT_3D ( 'NONE', #273, #724, #17 ) ;
#1119 = EDGE_LOOP ( 'NONE', ( #630, #430 ) ) ;
#1120 = DIRECTION ( 'NONE',  ( -1.000000000000000000, 0.000000000000000000, 0.000000000000000000 ) ) ;
#1121 = CLOSED_SHELL ( 'NONE', ( #643, #1015, #976, #262, #230, #1092, #24, #950, #956, #91, #627, #81, #188, #1128, #161, #243, #1085, #320, #650, #710, #899, #417, #817, #220, #851, #371, #947, #555, #575, #466, #110, #103, #1133, #839 ) ) ;
#1122 = AXIS2_PLACEMENT_3D ( 'NONE', #324, #678, #1023 ) ;
#1123 = CARTESIAN_POINT ( 'NONE',  ( 4.775000000000002132, 17.21502525316941501, 0.000000000000000000 ) ) ;
#1124 = AXIS2_PLACEMENT_3D ( 'NONE', #825, #991, #206 ) ;
#1125 = ORIENTED_EDGE ( 'NONE', *, *, #681, .T. ) ;
#1126 = UNCERTAINTY_MEASURE_WITH_UNIT (LENGTH_MEASURE( 1.000000000000000082E-05 ), #412, 'distance_accuracy_value', 'NONE');
#1127 = ORIENTED_EDGE ( 'NONE', *, *, #126, .F. ) ;
#1128 = ADVANCED_FACE ( 'NONE', ( #1041 ), #632, .F. ) ;
#1129 = DIRECTION ( 'NONE',  ( 1.000000000000000000, 0.000000000000000000, 0.000000000000000000 ) ) ;
#1130 = ORIENTED_EDGE ( 'NONE', *, *, #471, .F. ) ;
#1131 = DIRECTION ( 'NONE',  ( 1.000000000000000000, 0.000000000000000000, 0.000000000000000000 ) ) ;
#1132 = DIRECTION ( 'NONE',  ( -1.224646799147353207E-16, -1.000000000000000000, -0.000000000000000000 ) ) ;
#1133 = ADVANCED_FACE ( 'NONE', ( #760 ), #418, .T. ) ;
#1134 = CARTESIAN_POINT ( 'NONE',  ( 5.475000000000001421, 19.06502525316941288, 0.000000000000000000 ) ) ;
#1135 = VERTEX_POINT ( 'NONE', #857 ) ;
#1136 = AXIS2_PLACEMENT_3D ( 'NONE', #335, #581, #838 ) ;
#1137 = CIRCLE ( 'NONE', #511, 5.775000000000005684 ) ;
#1138 = AXIS2_PLACEMENT_3D ( 'NONE', #791, #1147, #14 ) ;
#1139 = CIRCLE ( 'NONE', #1138, 4.775000000000006573 ) ;
#1140 = CARTESIAN_POINT ( 'NONE',  ( -5.475000000000005862, 6.704941225331762575E-16, 6.704941225331762575E-16 ) ) ;
#1141 = CIRCLE ( 'NONE', #499, 0.3500000000000004774 ) ;
#1142 = ORIENTED_EDGE ( 'NONE', *, *, #930, .T. ) ;
#1143 = EDGE_CURVE ( 'NONE', #946, #433, #218, .T. ) ;
#1144 = DIRECTION ( 'NONE',  ( 1.000000000000000000, 0.000000000000000000, 0.000000000000000000 ) ) ;
#1145 = EDGE_CURVE ( 'NONE', #812, #614, #429, .T. ) ;
#1146 = LINE ( 'NONE', #94, #253 ) ;
#1147 = DIRECTION ( 'NONE',  ( -1.224646799147353207E-16, -1.000000000000000000, -0.000000000000000000 ) ) ;
#1148 = ORIENTED_EDGE ( 'NONE', *, *, #750, .F. ) ;
ENDSEC;
END-ISO-10303-21;
