ISO-10303-21;
HEADER;
FILE_DESCRIPTION(('FreeCAD Model'),'2;1');
FILE_NAME('Open CASCADE Shape Model','2026-09-15T16:24:16',(''),(''),
  'Open CASCADE STEP processor 7.8','FreeCAD','Unknown');
FILE_SCHEMA(('AUTOMOTIVE_DESIGN { 1 0 10303 214 1 1 1 1 }'));
ENDSEC;
DATA;
#1 = APPLICATION_PROTOCOL_DEFINITION('international standard',
  'automotive_design',2000,#2);
#2 = APPLICATION_CONTEXT(
  'core data for automotive mechanical design processes');
#3 = SHAPE_DEFINITION_REPRESENTATION(#4,#10);
#4 = PRODUCT_DEFINITION_SHAPE('','',#5);
#5 = PRODUCT_DEFINITION('design','',#6,#9);
#6 = PRODUCT_DEFINITION_FORMATION('','',#7);
#7 = PRODUCT('Unnamed','Unnamed','',(#8));
#8 = PRODUCT_CONTEXT('',#2,'mechanical');
#9 = PRODUCT_DEFINITION_CONTEXT('part definition',#2,'design');
#10 = SHAPE_REPRESENTATION('',(#11,#15,#19,#23,#27,#31,#35,#39,#43,#47,
    #51),#55);
#11 = AXIS2_PLACEMENT_3D('',#12,#13,#14);
#12 = CARTESIAN_POINT('',(0.,0.,0.));
#13 = DIRECTION('',(0.,0.,1.));
#14 = DIRECTION('',(1.,0.,-0.));
#15 = AXIS2_PLACEMENT_3D('',#16,#17,#18);
#16 = CARTESIAN_POINT('',(0.,0.,0.));
#17 = DIRECTION('',(0.,0.,1.));
#18 = DIRECTION('',(1.,0.,0.));
#19 = AXIS2_PLACEMENT_3D('',#20,#21,#22);
#20 = CARTESIAN_POINT('',(0.,0.,0.));
#21 = DIRECTION('',(0.,0.,1.));
#22 = DIRECTION('',(1.,0.,0.));
#23 = AXIS2_PLACEMENT_3D('',#24,#25,#26);
#24 = CARTESIAN_POINT('',(0.,0.,0.));
#25 = DIRECTION('',(1.,1.232595164408E-32,1.110223024625E-16));
#26 = DIRECTION('',(0.,1.,-1.110223024625E-16));
#27 = AXIS2_PLACEMENT_3D('',#28,#29,#30);
#28 = CARTESIAN_POINT('',(0.,0.,0.));
#29 = DIRECTION('',(0.,-1.,1.110223024625E-16));
#30 = DIRECTION('',(0.,1.110223024625E-16,1.));
#31 = AXIS2_PLACEMENT_3D('',#32,#33,#34);
#32 = CARTESIAN_POINT('',(0.,0.,0.));
#33 = DIRECTION('',(0.,0.,1.));
#34 = DIRECTION('',(1.,0.,0.));
#35 = AXIS2_PLACEMENT_3D('',#36,#37,#38);
#36 = CARTESIAN_POINT('',(0.,0.,0.));
#37 = DIRECTION('',(0.,-1.,-2.22044604925E-16));
#38 = DIRECTION('',(1.,0.,0.));
#39 = AXIS2_PLACEMENT_3D('',#40,#41,#42);
#40 = CARTESIAN_POINT('',(0.,0.,0.));
#41 = DIRECTION('',(1.,1.232595164408E-32,1.110223024625E-16));
#42 = DIRECTION('',(0.,1.,-1.110223024625E-16));
#43 = AXIS2_PLACEMENT_3D('',#44,#45,#46);
#44 = CARTESIAN_POINT('',(0.,0.,0.));
#45 = DIRECTION('',(0.,0.,1.));
#46 = DIRECTION('',(1.,0.,0.));
#47 = AXIS2_PLACEMENT_3D('',#48,#49,#50);
#48 = CARTESIAN_POINT('',(0.,0.,0.));
#49 = DIRECTION('',(0.,0.,1.));
#50 = DIRECTION('',(1.,0.,0.));
#51 = AXIS2_PLACEMENT_3D('',#52,#53,#54);
#52 = CARTESIAN_POINT('',(0.,0.,0.));
#53 = DIRECTION('',(0.,0.,1.));
#54 = DIRECTION('',(1.,0.,-0.));
#55 = ( GEOMETRIC_REPRESENTATION_CONTEXT(3) 
GLOBAL_UNCERTAINTY_ASSIGNED_CONTEXT((#59)) GLOBAL_UNIT_ASSIGNED_CONTEXT(
(#56,#57,#58)) REPRESENTATION_CONTEXT('Context #1',
  '3D Context with UNIT and UNCERTAINTY') );
#56 = ( LENGTH_UNIT() NAMED_UNIT(*) SI_UNIT(.MILLI.,.METRE.) );
#57 = ( NAMED_UNIT(*) PLANE_ANGLE_UNIT() SI_UNIT($,.RADIAN.) );
#58 = ( NAMED_UNIT(*) SI_UNIT($,.STERADIAN.) SOLID_ANGLE_UNIT() );
#59 = UNCERTAINTY_MEASURE_WITH_UNIT(LENGTH_MEASURE(1.E-07),#56,
  'distance_accuracy_value','confusion accuracy');
#60 = PRODUCT_RELATED_PRODUCT_CATEGORY('part',$,(#7));
#61 = SHAPE_DEFINITION_REPRESENTATION(#62,#68);
#62 = PRODUCT_DEFINITION_SHAPE('','',#63);
#63 = PRODUCT_DEFINITION('design','',#64,#67);
#64 = PRODUCT_DEFINITION_FORMATION('','',#65);
#65 = PRODUCT('Body','Body','',(#66));
#66 = PRODUCT_CONTEXT('',#2,'mechanical');
#67 = PRODUCT_DEFINITION_CONTEXT('part definition',#2,'design');
#68 = ADVANCED_BREP_SHAPE_REPRESENTATION('',(#11,#69),#359);
#69 = MANIFOLD_SOLID_BREP('',#70);
#70 = CLOSED_SHELL('',(#71,#111,#142,#173,#195,#237,#268,#301,#323,#341)
  );
#71 = ADVANCED_FACE('',(#72),#106,.F.);
#72 = FACE_BOUND('',#73,.F.);
#73 = EDGE_LOOP('',(#74,#84,#92,#100));
#74 = ORIENTED_EDGE('',*,*,#75,.T.);
#75 = EDGE_CURVE('',#76,#78,#80,.T.);
#76 = VERTEX_POINT('',#77);
#77 = CARTESIAN_POINT('',(-130.4000001836,91.28046816481,0.));
#78 = VERTEX_POINT('',#79);
#79 = CARTESIAN_POINT('',(-130.4000001836,91.28046816481,1.5));
#80 = LINE('',#81,#82);
#81 = CARTESIAN_POINT('',(-130.4000001836,91.28046816481,0.));
#82 = VECTOR('',#83,1.);
#83 = DIRECTION('',(0.,0.,1.));
#84 = ORIENTED_EDGE('',*,*,#85,.T.);
#85 = EDGE_CURVE('',#78,#86,#88,.T.);
#86 = VERTEX_POINT('',#87);
#87 = CARTESIAN_POINT('',(-130.4000001836,-91.11953183519,1.5));
#88 = LINE('',#89,#90);
#89 = CARTESIAN_POINT('',(-130.4000001836,91.28046816481,1.5));
#90 = VECTOR('',#91,1.);
#91 = DIRECTION('',(0.,-1.,0.));
#92 = ORIENTED_EDGE('',*,*,#93,.F.);
#93 = EDGE_CURVE('',#94,#86,#96,.T.);
#94 = VERTEX_POINT('',#95);
#95 = CARTESIAN_POINT('',(-130.4000001836,-91.11953183519,0.));
#96 = LINE('',#97,#98);
#97 = CARTESIAN_POINT('',(-130.4000001836,-91.11953183519,0.));
#98 = VECTOR('',#99,1.);
#99 = DIRECTION('',(0.,0.,1.));
#100 = ORIENTED_EDGE('',*,*,#101,.F.);
#101 = EDGE_CURVE('',#76,#94,#102,.T.);
#102 = LINE('',#103,#104);
#103 = CARTESIAN_POINT('',(-130.4000001836,91.28046816481,0.));
#104 = VECTOR('',#105,1.);
#105 = DIRECTION('',(0.,-1.,0.));
#106 = PLANE('',#107);
#107 = AXIS2_PLACEMENT_3D('',#108,#109,#110);
#108 = CARTESIAN_POINT('',(-130.4000001836,91.28046816481,0.));
#109 = DIRECTION('',(1.,0.,0.));
#110 = DIRECTION('',(0.,-1.,0.));
#111 = ADVANCED_FACE('',(#112),#137,.F.);
#112 = FACE_BOUND('',#113,.F.);
#113 = EDGE_LOOP('',(#114,#115,#123,#131));
#114 = ORIENTED_EDGE('',*,*,#93,.T.);
#115 = ORIENTED_EDGE('',*,*,#116,.T.);
#116 = EDGE_CURVE('',#86,#117,#119,.T.);
#117 = VERTEX_POINT('',#118);
#118 = CARTESIAN_POINT('',(129.99999981631,-91.11953183519,1.5));
#119 = LINE('',#120,#121);
#120 = CARTESIAN_POINT('',(-130.4000001836,-91.11953183519,1.5));
#121 = VECTOR('',#122,1.);
#122 = DIRECTION('',(1.,0.,0.));
#123 = ORIENTED_EDGE('',*,*,#124,.F.);
#124 = EDGE_CURVE('',#125,#117,#127,.T.);
#125 = VERTEX_POINT('',#126);
#126 = CARTESIAN_POINT('',(129.99999981631,-91.11953183519,0.));
#127 = LINE('',#128,#129);
#128 = CARTESIAN_POINT('',(129.99999981631,-91.11953183519,0.));
#129 = VECTOR('',#130,1.);
#130 = DIRECTION('',(0.,0.,1.));
#131 = ORIENTED_EDGE('',*,*,#132,.F.);
#132 = EDGE_CURVE('',#94,#125,#133,.T.);
#133 = LINE('',#134,#135);
#134 = CARTESIAN_POINT('',(-130.4000001836,-91.11953183519,0.));
#135 = VECTOR('',#136,1.);
#136 = DIRECTION('',(1.,0.,0.));
#137 = PLANE('',#138);
#138 = AXIS2_PLACEMENT_3D('',#139,#140,#141);
#139 = CARTESIAN_POINT('',(-130.4000001836,-91.11953183519,0.));
#140 = DIRECTION('',(0.,1.,0.));
#141 = DIRECTION('',(1.,0.,0.));
#142 = ADVANCED_FACE('',(#143),#168,.F.);
#143 = FACE_BOUND('',#144,.F.);
#144 = EDGE_LOOP('',(#145,#146,#154,#162));
#145 = ORIENTED_EDGE('',*,*,#124,.T.);
#146 = ORIENTED_EDGE('',*,*,#147,.T.);
#147 = EDGE_CURVE('',#117,#148,#150,.T.);
#148 = VERTEX_POINT('',#149);
#149 = CARTESIAN_POINT('',(129.99999981631,91.28046816481,1.5));
#150 = LINE('',#151,#152);
#151 = CARTESIAN_POINT('',(129.99999981631,-91.11953183519,1.5));
#152 = VECTOR('',#153,1.);
#153 = DIRECTION('',(0.,1.,0.));
#154 = ORIENTED_EDGE('',*,*,#155,.F.);
#155 = EDGE_CURVE('',#156,#148,#158,.T.);
#156 = VERTEX_POINT('',#157);
#157 = CARTESIAN_POINT('',(129.99999981631,91.28046816481,0.));
#158 = LINE('',#159,#160);
#159 = CARTESIAN_POINT('',(129.99999981631,91.28046816481,0.));
#160 = VECTOR('',#161,1.);
#161 = DIRECTION('',(0.,0.,1.));
#162 = ORIENTED_EDGE('',*,*,#163,.F.);
#163 = EDGE_CURVE('',#125,#156,#164,.T.);
#164 = LINE('',#165,#166);
#165 = CARTESIAN_POINT('',(129.99999981631,-91.11953183519,0.));
#166 = VECTOR('',#167,1.);
#167 = DIRECTION('',(0.,1.,0.));
#168 = PLANE('',#169);
#169 = AXIS2_PLACEMENT_3D('',#170,#171,#172);
#170 = CARTESIAN_POINT('',(129.99999981631,-91.11953183519,0.));
#171 = DIRECTION('',(-1.,0.,0.));
#172 = DIRECTION('',(0.,1.,0.));
#173 = ADVANCED_FACE('',(#174),#190,.F.);
#174 = FACE_BOUND('',#175,.F.);
#175 = EDGE_LOOP('',(#176,#177,#183,#184));
#176 = ORIENTED_EDGE('',*,*,#155,.T.);
#177 = ORIENTED_EDGE('',*,*,#178,.T.);
#178 = EDGE_CURVE('',#148,#78,#179,.T.);
#179 = LINE('',#180,#181);
#180 = CARTESIAN_POINT('',(129.99999981631,91.28046816481,1.5));
#181 = VECTOR('',#182,1.);
#182 = DIRECTION('',(-1.,0.,0.));
#183 = ORIENTED_EDGE('',*,*,#75,.F.);
#184 = ORIENTED_EDGE('',*,*,#185,.F.);
#185 = EDGE_CURVE('',#156,#76,#186,.T.);
#186 = LINE('',#187,#188);
#187 = CARTESIAN_POINT('',(129.99999981631,91.28046816481,0.));
#188 = VECTOR('',#189,1.);
#189 = DIRECTION('',(-1.,0.,0.));
#190 = PLANE('',#191);
#191 = AXIS2_PLACEMENT_3D('',#192,#193,#194);
#192 = CARTESIAN_POINT('',(129.99999981631,91.28046816481,0.));
#193 = DIRECTION('',(0.,-1.,0.));
#194 = DIRECTION('',(-1.,0.,0.));
#195 = ADVANCED_FACE('',(#196),#232,.F.);
#196 = FACE_BOUND('',#197,.T.);
#197 = EDGE_LOOP('',(#198,#208,#217,#225));
#198 = ORIENTED_EDGE('',*,*,#199,.T.);
#199 = EDGE_CURVE('',#200,#202,#204,.T.);
#200 = VERTEX_POINT('',#201);
#201 = CARTESIAN_POINT('',(-117.735725,82.713661,0.));
#202 = VERTEX_POINT('',#203);
#203 = CARTESIAN_POINT('',(-117.735725,82.713661,1.5));
#204 = LINE('',#205,#206);
#205 = CARTESIAN_POINT('',(-117.735725,82.713661,0.));
#206 = VECTOR('',#207,1.);
#207 = DIRECTION('',(0.,0.,1.));
#208 = ORIENTED_EDGE('',*,*,#209,.T.);
#209 = EDGE_CURVE('',#202,#210,#212,.T.);
#210 = VERTEX_POINT('',#211);
#211 = CARTESIAN_POINT('',(-117.735725,77.286339,1.5));
#212 = CIRCLE('',#213,2.713661);
#213 = AXIS2_PLACEMENT_3D('',#214,#215,#216);
#214 = CARTESIAN_POINT('',(-117.735725,80.,1.5));
#215 = DIRECTION('',(0.,0.,1.));
#216 = DIRECTION('',(1.,0.,0.));
#217 = ORIENTED_EDGE('',*,*,#218,.F.);
#218 = EDGE_CURVE('',#219,#210,#221,.T.);
#219 = VERTEX_POINT('',#220);
#220 = CARTESIAN_POINT('',(-117.735725,77.286339,0.));
#221 = LINE('',#222,#223);
#222 = CARTESIAN_POINT('',(-117.735725,77.286339,0.));
#223 = VECTOR('',#224,1.);
#224 = DIRECTION('',(0.,0.,1.));
#225 = ORIENTED_EDGE('',*,*,#226,.F.);
#226 = EDGE_CURVE('',#200,#219,#227,.T.);
#227 = CIRCLE('',#228,2.713661);
#228 = AXIS2_PLACEMENT_3D('',#229,#230,#231);
#229 = CARTESIAN_POINT('',(-117.735725,80.,0.));
#230 = DIRECTION('',(0.,0.,1.));
#231 = DIRECTION('',(1.,0.,0.));
#232 = CYLINDRICAL_SURFACE('',#233,2.713661);
#233 = AXIS2_PLACEMENT_3D('',#234,#235,#236);
#234 = CARTESIAN_POINT('',(-117.735725,80.,0.));
#235 = DIRECTION('',(-0.,-0.,-1.));
#236 = DIRECTION('',(1.,0.,0.));
#237 = ADVANCED_FACE('',(#238),#263,.T.);
#238 = FACE_BOUND('',#239,.T.);
#239 = EDGE_LOOP('',(#240,#241,#249,#257));
#240 = ORIENTED_EDGE('',*,*,#218,.T.);
#241 = ORIENTED_EDGE('',*,*,#242,.T.);
#242 = EDGE_CURVE('',#210,#243,#245,.T.);
#243 = VERTEX_POINT('',#244);
#244 = CARTESIAN_POINT('',(-110.,77.286339,1.5));
#245 = LINE('',#246,#247);
#246 = CARTESIAN_POINT('',(-117.735725,77.286339,1.5));
#247 = VECTOR('',#248,1.);
#248 = DIRECTION('',(1.,-3.674084772973E-15,0.));
#249 = ORIENTED_EDGE('',*,*,#250,.F.);
#250 = EDGE_CURVE('',#251,#243,#253,.T.);
#251 = VERTEX_POINT('',#252);
#252 = CARTESIAN_POINT('',(-110.,77.286339,0.));
#253 = LINE('',#254,#255);
#254 = CARTESIAN_POINT('',(-110.,77.286339,0.));
#255 = VECTOR('',#256,1.);
#256 = DIRECTION('',(0.,0.,1.));
#257 = ORIENTED_EDGE('',*,*,#258,.F.);
#258 = EDGE_CURVE('',#219,#251,#259,.T.);
#259 = LINE('',#260,#261);
#260 = CARTESIAN_POINT('',(-117.735725,77.286339,0.));
#261 = VECTOR('',#262,1.);
#262 = DIRECTION('',(1.,-3.674084772973E-15,0.));
#263 = PLANE('',#264);
#264 = AXIS2_PLACEMENT_3D('',#265,#266,#267);
#265 = CARTESIAN_POINT('',(-117.735725,77.286339,0.));
#266 = DIRECTION('',(3.674084772973E-15,1.,0.));
#267 = DIRECTION('',(1.,-3.674084772973E-15,0.));
#268 = ADVANCED_FACE('',(#269),#296,.F.);
#269 = FACE_BOUND('',#270,.T.);
#270 = EDGE_LOOP('',(#271,#272,#281,#289));
#271 = ORIENTED_EDGE('',*,*,#250,.T.);
#272 = ORIENTED_EDGE('',*,*,#273,.T.);
#273 = EDGE_CURVE('',#243,#274,#276,.T.);
#274 = VERTEX_POINT('',#275);
#275 = CARTESIAN_POINT('',(-110.,82.713661,1.5));
#276 = CIRCLE('',#277,2.713661);
#277 = AXIS2_PLACEMENT_3D('',#278,#279,#280);
#278 = CARTESIAN_POINT('',(-110.,80.,1.5));
#279 = DIRECTION('',(0.,0.,1.));
#280 = DIRECTION('',(1.,0.,0.));
#281 = ORIENTED_EDGE('',*,*,#282,.F.);
#282 = EDGE_CURVE('',#283,#274,#285,.T.);
#283 = VERTEX_POINT('',#284);
#284 = CARTESIAN_POINT('',(-110.,82.713661,0.));
#285 = LINE('',#286,#287);
#286 = CARTESIAN_POINT('',(-110.,82.713661,0.));
#287 = VECTOR('',#288,1.);
#288 = DIRECTION('',(0.,0.,1.));
#289 = ORIENTED_EDGE('',*,*,#290,.F.);
#290 = EDGE_CURVE('',#251,#283,#291,.T.);
#291 = CIRCLE('',#292,2.713661);
#292 = AXIS2_PLACEMENT_3D('',#293,#294,#295);
#293 = CARTESIAN_POINT('',(-110.,80.,0.));
#294 = DIRECTION('',(0.,0.,1.));
#295 = DIRECTION('',(1.,0.,0.));
#296 = CYLINDRICAL_SURFACE('',#297,2.713661);
#297 = AXIS2_PLACEMENT_3D('',#298,#299,#300);
#298 = CARTESIAN_POINT('',(-110.,80.,0.));
#299 = DIRECTION('',(-0.,-0.,-1.));
#300 = DIRECTION('',(1.,0.,0.));
#301 = ADVANCED_FACE('',(#302),#318,.F.);
#302 = FACE_BOUND('',#303,.F.);
#303 = EDGE_LOOP('',(#304,#305,#311,#312));
#304 = ORIENTED_EDGE('',*,*,#199,.T.);
#305 = ORIENTED_EDGE('',*,*,#306,.T.);
#306 = EDGE_CURVE('',#202,#274,#307,.T.);
#307 = LINE('',#308,#309);
#308 = CARTESIAN_POINT('',(-117.735725,82.713661,1.5));
#309 = VECTOR('',#310,1.);
#310 = DIRECTION('',(1.,0.,0.));
#311 = ORIENTED_EDGE('',*,*,#282,.F.);
#312 = ORIENTED_EDGE('',*,*,#313,.F.);
#313 = EDGE_CURVE('',#200,#283,#314,.T.);
#314 = LINE('',#315,#316);
#315 = CARTESIAN_POINT('',(-117.735725,82.713661,0.));
#316 = VECTOR('',#317,1.);
#317 = DIRECTION('',(1.,0.,0.));
#318 = PLANE('',#319);
#319 = AXIS2_PLACEMENT_3D('',#320,#321,#322);
#320 = CARTESIAN_POINT('',(-117.735725,82.713661,0.));
#321 = DIRECTION('',(0.,1.,0.));
#322 = DIRECTION('',(1.,0.,0.));
#323 = ADVANCED_FACE('',(#324,#330),#336,.F.);
#324 = FACE_BOUND('',#325,.F.);
#325 = EDGE_LOOP('',(#326,#327,#328,#329));
#326 = ORIENTED_EDGE('',*,*,#101,.T.);
#327 = ORIENTED_EDGE('',*,*,#132,.T.);
#328 = ORIENTED_EDGE('',*,*,#163,.T.);
#329 = ORIENTED_EDGE('',*,*,#185,.T.);
#330 = FACE_BOUND('',#331,.T.);
#331 = EDGE_LOOP('',(#332,#333,#334,#335));
#332 = ORIENTED_EDGE('',*,*,#226,.T.);
#333 = ORIENTED_EDGE('',*,*,#258,.T.);
#334 = ORIENTED_EDGE('',*,*,#290,.T.);
#335 = ORIENTED_EDGE('',*,*,#313,.F.);
#336 = PLANE('',#337);
#337 = AXIS2_PLACEMENT_3D('',#338,#339,#340);
#338 = CARTESIAN_POINT('',(-4.134517519112,2.846815459785,0.));
#339 = DIRECTION('',(0.,0.,1.));
#340 = DIRECTION('',(1.,0.,0.));
#341 = ADVANCED_FACE('',(#342,#348),#354,.T.);
#342 = FACE_BOUND('',#343,.T.);
#343 = EDGE_LOOP('',(#344,#345,#346,#347));
#344 = ORIENTED_EDGE('',*,*,#85,.T.);
#345 = ORIENTED_EDGE('',*,*,#116,.T.);
#346 = ORIENTED_EDGE('',*,*,#147,.T.);
#347 = ORIENTED_EDGE('',*,*,#178,.T.);
#348 = FACE_BOUND('',#349,.F.);
#349 = EDGE_LOOP('',(#350,#351,#352,#353));
#350 = ORIENTED_EDGE('',*,*,#209,.T.);
#351 = ORIENTED_EDGE('',*,*,#242,.T.);
#352 = ORIENTED_EDGE('',*,*,#273,.T.);
#353 = ORIENTED_EDGE('',*,*,#306,.F.);
#354 = PLANE('',#355);
#355 = AXIS2_PLACEMENT_3D('',#356,#357,#358);
#356 = CARTESIAN_POINT('',(-4.134517519112,2.846815459785,1.5));
#357 = DIRECTION('',(0.,0.,1.));
#358 = DIRECTION('',(1.,0.,0.));
#359 = ( GEOMETRIC_REPRESENTATION_CONTEXT(3) 
GLOBAL_UNCERTAINTY_ASSIGNED_CONTEXT((#363)) GLOBAL_UNIT_ASSIGNED_CONTEXT
((#360,#361,#362)) REPRESENTATION_CONTEXT('Context #1',
  '3D Context with UNIT and UNCERTAINTY') );
#360 = ( LENGTH_UNIT() NAMED_UNIT(*) SI_UNIT(.MILLI.,.METRE.) );
#361 = ( NAMED_UNIT(*) PLANE_ANGLE_UNIT() SI_UNIT($,.RADIAN.) );
#362 = ( NAMED_UNIT(*) SI_UNIT($,.STERADIAN.) SOLID_ANGLE_UNIT() );
#363 = UNCERTAINTY_MEASURE_WITH_UNIT(LENGTH_MEASURE(1.E-07),#360,
  'distance_accuracy_value','confusion accuracy');
#364 = CONTEXT_DEPENDENT_SHAPE_REPRESENTATION(#365,#367);
#365 = ( REPRESENTATION_RELATIONSHIP('','',#68,#10) 
REPRESENTATION_RELATIONSHIP_WITH_TRANSFORMATION(#366) 
SHAPE_REPRESENTATION_RELATIONSHIP() );
#366 = ITEM_DEFINED_TRANSFORMATION('','',#11,#15);
#367 = PRODUCT_DEFINITION_SHAPE('Placement','Placement of an item',#368
  );
#368 = NEXT_ASSEMBLY_USAGE_OCCURRENCE('1','Body','',#5,#63,$);
#369 = PRODUCT_RELATED_PRODUCT_CATEGORY('part',$,(#65));
#370 = SHAPE_DEFINITION_REPRESENTATION(#371,#377);
#371 = PRODUCT_DEFINITION_SHAPE('','',#372);
#372 = PRODUCT_DEFINITION('design','',#373,#376);
#373 = PRODUCT_DEFINITION_FORMATION('','',#374);
#374 = PRODUCT('X-axis','X-axis','',(#375));
#375 = PRODUCT_CONTEXT('',#2,'mechanical');
#376 = PRODUCT_DEFINITION_CONTEXT('part definition',#2,'design');
#377 = GEOMETRICALLY_BOUNDED_WIREFRAME_SHAPE_REPRESENTATION('',(#11,#378
    ),#383);
#378 = GEOMETRIC_CURVE_SET('',(#379));
#379 = LINE('',#380,#381);
#380 = CARTESIAN_POINT('',(0.,0.,0.));
#381 = VECTOR('',#382,1.);
#382 = DIRECTION('',(1.,0.,0.));
#383 = ( GEOMETRIC_REPRESENTATION_CONTEXT(3) 
GLOBAL_UNCERTAINTY_ASSIGNED_CONTEXT((#387)) GLOBAL_UNIT_ASSIGNED_CONTEXT
((#384,#385,#386)) REPRESENTATION_CONTEXT('Context #1',
  '3D Context with UNIT and UNCERTAINTY') );
#384 = ( LENGTH_UNIT() NAMED_UNIT(*) SI_UNIT(.MILLI.,.METRE.) );
#385 = ( NAMED_UNIT(*) PLANE_ANGLE_UNIT() SI_UNIT($,.RADIAN.) );
#386 = ( NAMED_UNIT(*) SI_UNIT($,.STERADIAN.) SOLID_ANGLE_UNIT() );
#387 = UNCERTAINTY_MEASURE_WITH_UNIT(LENGTH_MEASURE(1.E-07),#384,
  'distance_accuracy_value','confusion accuracy');
#388 = CONTEXT_DEPENDENT_SHAPE_REPRESENTATION(#389,#391);
#389 = ( REPRESENTATION_RELATIONSHIP('','',#377,#10) 
REPRESENTATION_RELATIONSHIP_WITH_TRANSFORMATION(#390) 
SHAPE_REPRESENTATION_RELATIONSHIP() );
#390 = ITEM_DEFINED_TRANSFORMATION('','',#11,#19);
#391 = PRODUCT_DEFINITION_SHAPE('Placement','Placement of an item',#392
  );
#392 = NEXT_ASSEMBLY_USAGE_OCCURRENCE('2','X-axis','',#5,#372,$);
#393 = PRODUCT_RELATED_PRODUCT_CATEGORY('part',$,(#374));
#394 = CONTEXT_DEPENDENT_SHAPE_REPRESENTATION(#395,#397);
#395 = ( REPRESENTATION_RELATIONSHIP('','',#377,#10) 
REPRESENTATION_RELATIONSHIP_WITH_TRANSFORMATION(#396) 
SHAPE_REPRESENTATION_RELATIONSHIP() );
#396 = ITEM_DEFINED_TRANSFORMATION('','',#11,#23);
#397 = PRODUCT_DEFINITION_SHAPE('Placement','Placement of an item',#398
  );
#398 = NEXT_ASSEMBLY_USAGE_OCCURRENCE('3','Y-axis','',#5,#372,$);
#399 = CONTEXT_DEPENDENT_SHAPE_REPRESENTATION(#400,#402);
#400 = ( REPRESENTATION_RELATIONSHIP('','',#377,#10) 
REPRESENTATION_RELATIONSHIP_WITH_TRANSFORMATION(#401) 
SHAPE_REPRESENTATION_RELATIONSHIP() );
#401 = ITEM_DEFINED_TRANSFORMATION('','',#11,#27);
#402 = PRODUCT_DEFINITION_SHAPE('Placement','Placement of an item',#403
  );
#403 = NEXT_ASSEMBLY_USAGE_OCCURRENCE('4','Z-axis','',#5,#372,$);
#404 = SHAPE_DEFINITION_REPRESENTATION(#405,#411);
#405 = PRODUCT_DEFINITION_SHAPE('','',#406);
#406 = PRODUCT_DEFINITION('design','',#407,#410);
#407 = PRODUCT_DEFINITION_FORMATION('','',#408);
#408 = PRODUCT('XY-plane','XY-plane','',(#409));
#409 = PRODUCT_CONTEXT('',#2,'mechanical');
#410 = PRODUCT_DEFINITION_CONTEXT('part definition',#2,'design');
#411 = MANIFOLD_SURFACE_SHAPE_REPRESENTATION('',(#11),#412);
#412 = ( GEOMETRIC_REPRESENTATION_CONTEXT(3) 
GLOBAL_UNCERTAINTY_ASSIGNED_CONTEXT((#416)) GLOBAL_UNIT_ASSIGNED_CONTEXT
((#413,#414,#415)) REPRESENTATION_CONTEXT('Context #1',
  '3D Context with UNIT and UNCERTAINTY') );
#413 = ( LENGTH_UNIT() NAMED_UNIT(*) SI_UNIT(.MILLI.,.METRE.) );
#414 = ( NAMED_UNIT(*) PLANE_ANGLE_UNIT() SI_UNIT($,.RADIAN.) );
#415 = ( NAMED_UNIT(*) SI_UNIT($,.STERADIAN.) SOLID_ANGLE_UNIT() );
#416 = UNCERTAINTY_MEASURE_WITH_UNIT(LENGTH_MEASURE(1.E-07),#413,
  'distance_accuracy_value','confusion accuracy');
#417 = CONTEXT_DEPENDENT_SHAPE_REPRESENTATION(#418,#420);
#418 = ( REPRESENTATION_RELATIONSHIP('','',#411,#10) 
REPRESENTATION_RELATIONSHIP_WITH_TRANSFORMATION(#419) 
SHAPE_REPRESENTATION_RELATIONSHIP() );
#419 = ITEM_DEFINED_TRANSFORMATION('','',#11,#31);
#420 = PRODUCT_DEFINITION_SHAPE('Placement','Placement of an item',#421
  );
#421 = NEXT_ASSEMBLY_USAGE_OCCURRENCE('5','XY-plane','',#5,#406,$);
#422 = PRODUCT_RELATED_PRODUCT_CATEGORY('part',$,(#408));
#423 = CONTEXT_DEPENDENT_SHAPE_REPRESENTATION(#424,#426);
#424 = ( REPRESENTATION_RELATIONSHIP('','',#411,#10) 
REPRESENTATION_RELATIONSHIP_WITH_TRANSFORMATION(#425) 
SHAPE_REPRESENTATION_RELATIONSHIP() );
#425 = ITEM_DEFINED_TRANSFORMATION('','',#11,#35);
#426 = PRODUCT_DEFINITION_SHAPE('Placement','Placement of an item',#427
  );
#427 = NEXT_ASSEMBLY_USAGE_OCCURRENCE('6','XZ-plane','',#5,#406,$);
#428 = CONTEXT_DEPENDENT_SHAPE_REPRESENTATION(#429,#431);
#429 = ( REPRESENTATION_RELATIONSHIP('','',#411,#10) 
REPRESENTATION_RELATIONSHIP_WITH_TRANSFORMATION(#430) 
SHAPE_REPRESENTATION_RELATIONSHIP() );
#430 = ITEM_DEFINED_TRANSFORMATION('','',#11,#39);
#431 = PRODUCT_DEFINITION_SHAPE('Placement','Placement of an item',#432
  );
#432 = NEXT_ASSEMBLY_USAGE_OCCURRENCE('7','YZ-plane','',#5,#406,$);
#433 = SHAPE_DEFINITION_REPRESENTATION(#434,#440);
#434 = PRODUCT_DEFINITION_SHAPE('','',#435);
#435 = PRODUCT_DEFINITION('design','',#436,#439);
#436 = PRODUCT_DEFINITION_FORMATION('','',#437);
#437 = PRODUCT('Sketch','Sketch','',(#438));
#438 = PRODUCT_CONTEXT('',#2,'mechanical');
#439 = PRODUCT_DEFINITION_CONTEXT('part definition',#2,'design');
#440 = SHAPE_REPRESENTATION('',(#11,#441,#470),#501);
#441 = GEOMETRIC_CURVE_SET('',(#442,#449,#456,#463));
#442 = TRIMMED_CURVE('',#443,(#447,PARAMETER_VALUE(0.)),(#448,
    PARAMETER_VALUE(182.4)),.T.,.PARAMETER.);
#443 = LINE('',#444,#445);
#444 = CARTESIAN_POINT('',(-130.4000001836,91.28046816481,0.));
#445 = VECTOR('',#446,1.);
#446 = DIRECTION('',(0.,-1.,0.));
#447 = CARTESIAN_POINT('',(-130.4000001836,91.28046816481,0.));
#448 = CARTESIAN_POINT('',(-130.4000001836,-91.11953183519,0.));
#449 = TRIMMED_CURVE('',#450,(#454,PARAMETER_VALUE(0.)),(#455,
    PARAMETER_VALUE(260.4)),.T.,.PARAMETER.);
#450 = LINE('',#451,#452);
#451 = CARTESIAN_POINT('',(-130.4000001836,-91.11953183519,0.));
#452 = VECTOR('',#453,1.);
#453 = DIRECTION('',(1.,0.,0.));
#454 = CARTESIAN_POINT('',(-130.4000001836,-91.11953183519,0.));
#455 = CARTESIAN_POINT('',(129.99999981631,-91.11953183519,0.));
#456 = TRIMMED_CURVE('',#457,(#461,PARAMETER_VALUE(0.)),(#462,
    PARAMETER_VALUE(182.4)),.T.,.PARAMETER.);
#457 = LINE('',#458,#459);
#458 = CARTESIAN_POINT('',(129.99999981631,-91.11953183519,0.));
#459 = VECTOR('',#460,1.);
#460 = DIRECTION('',(0.,1.,0.));
#461 = CARTESIAN_POINT('',(129.99999981631,-91.11953183519,0.));
#462 = CARTESIAN_POINT('',(129.99999981631,91.28046816481,0.));
#463 = TRIMMED_CURVE('',#464,(#468,PARAMETER_VALUE(0.)),(#469,
    PARAMETER_VALUE(260.4)),.T.,.PARAMETER.);
#464 = LINE('',#465,#466);
#465 = CARTESIAN_POINT('',(129.99999981631,91.28046816481,0.));
#466 = VECTOR('',#467,1.);
#467 = DIRECTION('',(-1.,0.,0.));
#468 = CARTESIAN_POINT('',(129.99999981631,91.28046816481,0.));
#469 = CARTESIAN_POINT('',(-130.4000001836,91.28046816481,0.));
#470 = GEOMETRIC_CURVE_SET('',(#471,#479,#486,#494));
#471 = TRIMMED_CURVE('',#472,(#477,PARAMETER_VALUE(1.570796326795)),(
    #478,PARAMETER_VALUE(4.712388980385)),.T.,.PARAMETER.);
#472 = CIRCLE('',#473,2.713661);
#473 = AXIS2_PLACEMENT_3D('',#474,#475,#476);
#474 = CARTESIAN_POINT('',(-117.735725,80.,0.));
#475 = DIRECTION('',(0.,0.,1.));
#476 = DIRECTION('',(1.,0.,-0.));
#477 = CARTESIAN_POINT('',(-117.735725,82.713661,0.));
#478 = CARTESIAN_POINT('',(-117.735725,77.286339,0.));
#479 = TRIMMED_CURVE('',#480,(#484,PARAMETER_VALUE(0.)),(#485,
    PARAMETER_VALUE(7.735725)),.T.,.PARAMETER.);
#480 = LINE('',#481,#482);
#481 = CARTESIAN_POINT('',(-117.735725,77.286339,0.));
#482 = VECTOR('',#483,1.);
#483 = DIRECTION('',(1.,-3.674084772973E-15,0.));
#484 = CARTESIAN_POINT('',(-117.735725,77.286339,0.));
#485 = CARTESIAN_POINT('',(-110.,77.286339,0.));
#486 = TRIMMED_CURVE('',#487,(#492,PARAMETER_VALUE(4.712388980385)),(
    #493,PARAMETER_VALUE(7.853981633974)),.T.,.PARAMETER.);
#487 = CIRCLE('',#488,2.713661);
#488 = AXIS2_PLACEMENT_3D('',#489,#490,#491);
#489 = CARTESIAN_POINT('',(-110.,80.,0.));
#490 = DIRECTION('',(0.,0.,1.));
#491 = DIRECTION('',(1.,0.,-0.));
#492 = CARTESIAN_POINT('',(-110.,77.286339,0.));
#493 = CARTESIAN_POINT('',(-110.,82.713661,0.));
#494 = TRIMMED_CURVE('',#495,(#499,PARAMETER_VALUE(0.)),(#500,
    PARAMETER_VALUE(7.735725)),.T.,.PARAMETER.);
#495 = LINE('',#496,#497);
#496 = CARTESIAN_POINT('',(-117.735725,82.713661,0.));
#497 = VECTOR('',#498,1.);
#498 = DIRECTION('',(1.,0.,0.));
#499 = CARTESIAN_POINT('',(-117.735725,82.713661,0.));
#500 = CARTESIAN_POINT('',(-110.,82.713661,0.));
#501 = ( GEOMETRIC_REPRESENTATION_CONTEXT(3) 
GLOBAL_UNCERTAINTY_ASSIGNED_CONTEXT((#505)) GLOBAL_UNIT_ASSIGNED_CONTEXT
((#502,#503,#504)) REPRESENTATION_CONTEXT('Context #1',
  '3D Context with UNIT and UNCERTAINTY') );
#502 = ( LENGTH_UNIT() NAMED_UNIT(*) SI_UNIT(.MILLI.,.METRE.) );
#503 = ( NAMED_UNIT(*) PLANE_ANGLE_UNIT() SI_UNIT($,.RADIAN.) );
#504 = ( NAMED_UNIT(*) SI_UNIT($,.STERADIAN.) SOLID_ANGLE_UNIT() );
#505 = UNCERTAINTY_MEASURE_WITH_UNIT(LENGTH_MEASURE(1.E-07),#502,
  'distance_accuracy_value','confusion accuracy');
#506 = CONTEXT_DEPENDENT_SHAPE_REPRESENTATION(#507,#509);
#507 = ( REPRESENTATION_RELATIONSHIP('','',#440,#10) 
REPRESENTATION_RELATIONSHIP_WITH_TRANSFORMATION(#508) 
SHAPE_REPRESENTATION_RELATIONSHIP() );
#508 = ITEM_DEFINED_TRANSFORMATION('','',#11,#43);
#509 = PRODUCT_DEFINITION_SHAPE('Placement','Placement of an item',#510
  );
#510 = NEXT_ASSEMBLY_USAGE_OCCURRENCE('8','Sketch','',#5,#435,$);
#511 = PRODUCT_RELATED_PRODUCT_CATEGORY('part',$,(#437));
#512 = SHAPE_DEFINITION_REPRESENTATION(#513,#519);
#513 = PRODUCT_DEFINITION_SHAPE('','',#514);
#514 = PRODUCT_DEFINITION('design','',#515,#518);
#515 = PRODUCT_DEFINITION_FORMATION('','',#516);
#516 = PRODUCT('Pad','Pad','',(#517));
#517 = PRODUCT_CONTEXT('',#2,'mechanical');
#518 = PRODUCT_DEFINITION_CONTEXT('part definition',#2,'design');
#519 = ADVANCED_BREP_SHAPE_REPRESENTATION('',(#11,#520),#810);
#520 = MANIFOLD_SOLID_BREP('',#521);
#521 = CLOSED_SHELL('',(#522,#562,#593,#624,#646,#688,#719,#752,#774,
    #792));
#522 = ADVANCED_FACE('',(#523),#557,.F.);
#523 = FACE_BOUND('',#524,.F.);
#524 = EDGE_LOOP('',(#525,#535,#543,#551));
#525 = ORIENTED_EDGE('',*,*,#526,.T.);
#526 = EDGE_CURVE('',#527,#529,#531,.T.);
#527 = VERTEX_POINT('',#528);
#528 = CARTESIAN_POINT('',(-130.4000001836,91.28046816481,0.));
#529 = VERTEX_POINT('',#530);
#530 = CARTESIAN_POINT('',(-130.4000001836,91.28046816481,1.5));
#531 = LINE('',#532,#533);
#532 = CARTESIAN_POINT('',(-130.4000001836,91.28046816481,0.));
#533 = VECTOR('',#534,1.);
#534 = DIRECTION('',(0.,0.,1.));
#535 = ORIENTED_EDGE('',*,*,#536,.T.);
#536 = EDGE_CURVE('',#529,#537,#539,.T.);
#537 = VERTEX_POINT('',#538);
#538 = CARTESIAN_POINT('',(-130.4000001836,-91.11953183519,1.5));
#539 = LINE('',#540,#541);
#540 = CARTESIAN_POINT('',(-130.4000001836,91.28046816481,1.5));
#541 = VECTOR('',#542,1.);
#542 = DIRECTION('',(0.,-1.,0.));
#543 = ORIENTED_EDGE('',*,*,#544,.F.);
#544 = EDGE_CURVE('',#545,#537,#547,.T.);
#545 = VERTEX_POINT('',#546);
#546 = CARTESIAN_POINT('',(-130.4000001836,-91.11953183519,0.));
#547 = LINE('',#548,#549);
#548 = CARTESIAN_POINT('',(-130.4000001836,-91.11953183519,0.));
#549 = VECTOR('',#550,1.);
#550 = DIRECTION('',(0.,0.,1.));
#551 = ORIENTED_EDGE('',*,*,#552,.F.);
#552 = EDGE_CURVE('',#527,#545,#553,.T.);
#553 = LINE('',#554,#555);
#554 = CARTESIAN_POINT('',(-130.4000001836,91.28046816481,0.));
#555 = VECTOR('',#556,1.);
#556 = DIRECTION('',(0.,-1.,0.));
#557 = PLANE('',#558);
#558 = AXIS2_PLACEMENT_3D('',#559,#560,#561);
#559 = CARTESIAN_POINT('',(-130.4000001836,91.28046816481,0.));
#560 = DIRECTION('',(1.,0.,-0.));
#561 = DIRECTION('',(0.,-1.,0.));
#562 = ADVANCED_FACE('',(#563),#588,.F.);
#563 = FACE_BOUND('',#564,.F.);
#564 = EDGE_LOOP('',(#565,#566,#574,#582));
#565 = ORIENTED_EDGE('',*,*,#544,.T.);
#566 = ORIENTED_EDGE('',*,*,#567,.T.);
#567 = EDGE_CURVE('',#537,#568,#570,.T.);
#568 = VERTEX_POINT('',#569);
#569 = CARTESIAN_POINT('',(129.99999981631,-91.11953183519,1.5));
#570 = LINE('',#571,#572);
#571 = CARTESIAN_POINT('',(-130.4000001836,-91.11953183519,1.5));
#572 = VECTOR('',#573,1.);
#573 = DIRECTION('',(1.,0.,0.));
#574 = ORIENTED_EDGE('',*,*,#575,.F.);
#575 = EDGE_CURVE('',#576,#568,#578,.T.);
#576 = VERTEX_POINT('',#577);
#577 = CARTESIAN_POINT('',(129.99999981631,-91.11953183519,0.));
#578 = LINE('',#579,#580);
#579 = CARTESIAN_POINT('',(129.99999981631,-91.11953183519,0.));
#580 = VECTOR('',#581,1.);
#581 = DIRECTION('',(0.,0.,1.));
#582 = ORIENTED_EDGE('',*,*,#583,.F.);
#583 = EDGE_CURVE('',#545,#576,#584,.T.);
#584 = LINE('',#585,#586);
#585 = CARTESIAN_POINT('',(-130.4000001836,-91.11953183519,0.));
#586 = VECTOR('',#587,1.);
#587 = DIRECTION('',(1.,0.,0.));
#588 = PLANE('',#589);
#589 = AXIS2_PLACEMENT_3D('',#590,#591,#592);
#590 = CARTESIAN_POINT('',(-130.4000001836,-91.11953183519,0.));
#591 = DIRECTION('',(0.,1.,0.));
#592 = DIRECTION('',(1.,0.,0.));
#593 = ADVANCED_FACE('',(#594),#619,.F.);
#594 = FACE_BOUND('',#595,.F.);
#595 = EDGE_LOOP('',(#596,#597,#605,#613));
#596 = ORIENTED_EDGE('',*,*,#575,.T.);
#597 = ORIENTED_EDGE('',*,*,#598,.T.);
#598 = EDGE_CURVE('',#568,#599,#601,.T.);
#599 = VERTEX_POINT('',#600);
#600 = CARTESIAN_POINT('',(129.99999981631,91.28046816481,1.5));
#601 = LINE('',#602,#603);
#602 = CARTESIAN_POINT('',(129.99999981631,-91.11953183519,1.5));
#603 = VECTOR('',#604,1.);
#604 = DIRECTION('',(0.,1.,0.));
#605 = ORIENTED_EDGE('',*,*,#606,.F.);
#606 = EDGE_CURVE('',#607,#599,#609,.T.);
#607 = VERTEX_POINT('',#608);
#608 = CARTESIAN_POINT('',(129.99999981631,91.28046816481,0.));
#609 = LINE('',#610,#611);
#610 = CARTESIAN_POINT('',(129.99999981631,91.28046816481,0.));
#611 = VECTOR('',#612,1.);
#612 = DIRECTION('',(0.,0.,1.));
#613 = ORIENTED_EDGE('',*,*,#614,.F.);
#614 = EDGE_CURVE('',#576,#607,#615,.T.);
#615 = LINE('',#616,#617);
#616 = CARTESIAN_POINT('',(129.99999981631,-91.11953183519,0.));
#617 = VECTOR('',#618,1.);
#618 = DIRECTION('',(0.,1.,0.));
#619 = PLANE('',#620);
#620 = AXIS2_PLACEMENT_3D('',#621,#622,#623);
#621 = CARTESIAN_POINT('',(129.99999981631,-91.11953183519,0.));
#622 = DIRECTION('',(-1.,0.,0.));
#623 = DIRECTION('',(0.,1.,0.));
#624 = ADVANCED_FACE('',(#625),#641,.F.);
#625 = FACE_BOUND('',#626,.F.);
#626 = EDGE_LOOP('',(#627,#628,#634,#635));
#627 = ORIENTED_EDGE('',*,*,#606,.T.);
#628 = ORIENTED_EDGE('',*,*,#629,.T.);
#629 = EDGE_CURVE('',#599,#529,#630,.T.);
#630 = LINE('',#631,#632);
#631 = CARTESIAN_POINT('',(129.99999981631,91.28046816481,1.5));
#632 = VECTOR('',#633,1.);
#633 = DIRECTION('',(-1.,0.,0.));
#634 = ORIENTED_EDGE('',*,*,#526,.F.);
#635 = ORIENTED_EDGE('',*,*,#636,.F.);
#636 = EDGE_CURVE('',#607,#527,#637,.T.);
#637 = LINE('',#638,#639);
#638 = CARTESIAN_POINT('',(129.99999981631,91.28046816481,0.));
#639 = VECTOR('',#640,1.);
#640 = DIRECTION('',(-1.,0.,0.));
#641 = PLANE('',#642);
#642 = AXIS2_PLACEMENT_3D('',#643,#644,#645);
#643 = CARTESIAN_POINT('',(129.99999981631,91.28046816481,0.));
#644 = DIRECTION('',(0.,-1.,0.));
#645 = DIRECTION('',(-1.,0.,0.));
#646 = ADVANCED_FACE('',(#647),#683,.F.);
#647 = FACE_BOUND('',#648,.T.);
#648 = EDGE_LOOP('',(#649,#659,#668,#676));
#649 = ORIENTED_EDGE('',*,*,#650,.T.);
#650 = EDGE_CURVE('',#651,#653,#655,.T.);
#651 = VERTEX_POINT('',#652);
#652 = CARTESIAN_POINT('',(-117.735725,82.713661,0.));
#653 = VERTEX_POINT('',#654);
#654 = CARTESIAN_POINT('',(-117.735725,82.713661,1.5));
#655 = LINE('',#656,#657);
#656 = CARTESIAN_POINT('',(-117.735725,82.713661,0.));
#657 = VECTOR('',#658,1.);
#658 = DIRECTION('',(0.,0.,1.));
#659 = ORIENTED_EDGE('',*,*,#660,.T.);
#660 = EDGE_CURVE('',#653,#661,#663,.T.);
#661 = VERTEX_POINT('',#662);
#662 = CARTESIAN_POINT('',(-117.735725,77.286339,1.5));
#663 = CIRCLE('',#664,2.713661);
#664 = AXIS2_PLACEMENT_3D('',#665,#666,#667);
#665 = CARTESIAN_POINT('',(-117.735725,80.,1.5));
#666 = DIRECTION('',(0.,0.,1.));
#667 = DIRECTION('',(1.,0.,0.));
#668 = ORIENTED_EDGE('',*,*,#669,.F.);
#669 = EDGE_CURVE('',#670,#661,#672,.T.);
#670 = VERTEX_POINT('',#671);
#671 = CARTESIAN_POINT('',(-117.735725,77.286339,0.));
#672 = LINE('',#673,#674);
#673 = CARTESIAN_POINT('',(-117.735725,77.286339,0.));
#674 = VECTOR('',#675,1.);
#675 = DIRECTION('',(0.,0.,1.));
#676 = ORIENTED_EDGE('',*,*,#677,.F.);
#677 = EDGE_CURVE('',#651,#670,#678,.T.);
#678 = CIRCLE('',#679,2.713661);
#679 = AXIS2_PLACEMENT_3D('',#680,#681,#682);
#680 = CARTESIAN_POINT('',(-117.735725,80.,0.));
#681 = DIRECTION('',(0.,0.,1.));
#682 = DIRECTION('',(1.,0.,0.));
#683 = CYLINDRICAL_SURFACE('',#684,2.713661);
#684 = AXIS2_PLACEMENT_3D('',#685,#686,#687);
#685 = CARTESIAN_POINT('',(-117.735725,80.,0.));
#686 = DIRECTION('',(-0.,-0.,-1.));
#687 = DIRECTION('',(1.,0.,0.));
#688 = ADVANCED_FACE('',(#689),#714,.T.);
#689 = FACE_BOUND('',#690,.T.);
#690 = EDGE_LOOP('',(#691,#692,#700,#708));
#691 = ORIENTED_EDGE('',*,*,#669,.T.);
#692 = ORIENTED_EDGE('',*,*,#693,.T.);
#693 = EDGE_CURVE('',#661,#694,#696,.T.);
#694 = VERTEX_POINT('',#695);
#695 = CARTESIAN_POINT('',(-110.,77.286339,1.5));
#696 = LINE('',#697,#698);
#697 = CARTESIAN_POINT('',(-117.735725,77.286339,1.5));
#698 = VECTOR('',#699,1.);
#699 = DIRECTION('',(1.,-3.674084772973E-15,0.));
#700 = ORIENTED_EDGE('',*,*,#701,.F.);
#701 = EDGE_CURVE('',#702,#694,#704,.T.);
#702 = VERTEX_POINT('',#703);
#703 = CARTESIAN_POINT('',(-110.,77.286339,0.));
#704 = LINE('',#705,#706);
#705 = CARTESIAN_POINT('',(-110.,77.286339,0.));
#706 = VECTOR('',#707,1.);
#707 = DIRECTION('',(0.,0.,1.));
#708 = ORIENTED_EDGE('',*,*,#709,.F.);
#709 = EDGE_CURVE('',#670,#702,#710,.T.);
#710 = LINE('',#711,#712);
#711 = CARTESIAN_POINT('',(-117.735725,77.286339,0.));
#712 = VECTOR('',#713,1.);
#713 = DIRECTION('',(1.,-3.674084772973E-15,0.));
#714 = PLANE('',#715);
#715 = AXIS2_PLACEMENT_3D('',#716,#717,#718);
#716 = CARTESIAN_POINT('',(-117.735725,77.286339,0.));
#717 = DIRECTION('',(3.674084772973E-15,1.,-0.));
#718 = DIRECTION('',(1.,-3.674084772973E-15,0.));
#719 = ADVANCED_FACE('',(#720),#747,.F.);
#720 = FACE_BOUND('',#721,.T.);
#721 = EDGE_LOOP('',(#722,#723,#732,#740));
#722 = ORIENTED_EDGE('',*,*,#701,.T.);
#723 = ORIENTED_EDGE('',*,*,#724,.T.);
#724 = EDGE_CURVE('',#694,#725,#727,.T.);
#725 = VERTEX_POINT('',#726);
#726 = CARTESIAN_POINT('',(-110.,82.713661,1.5));
#727 = CIRCLE('',#728,2.713661);
#728 = AXIS2_PLACEMENT_3D('',#729,#730,#731);
#729 = CARTESIAN_POINT('',(-110.,80.,1.5));
#730 = DIRECTION('',(0.,0.,1.));
#731 = DIRECTION('',(1.,0.,0.));
#732 = ORIENTED_EDGE('',*,*,#733,.F.);
#733 = EDGE_CURVE('',#734,#725,#736,.T.);
#734 = VERTEX_POINT('',#735);
#735 = CARTESIAN_POINT('',(-110.,82.713661,0.));
#736 = LINE('',#737,#738);
#737 = CARTESIAN_POINT('',(-110.,82.713661,0.));
#738 = VECTOR('',#739,1.);
#739 = DIRECTION('',(0.,0.,1.));
#740 = ORIENTED_EDGE('',*,*,#741,.F.);
#741 = EDGE_CURVE('',#702,#734,#742,.T.);
#742 = CIRCLE('',#743,2.713661);
#743 = AXIS2_PLACEMENT_3D('',#744,#745,#746);
#744 = CARTESIAN_POINT('',(-110.,80.,0.));
#745 = DIRECTION('',(0.,0.,1.));
#746 = DIRECTION('',(1.,0.,0.));
#747 = CYLINDRICAL_SURFACE('',#748,2.713661);
#748 = AXIS2_PLACEMENT_3D('',#749,#750,#751);
#749 = CARTESIAN_POINT('',(-110.,80.,0.));
#750 = DIRECTION('',(-0.,-0.,-1.));
#751 = DIRECTION('',(1.,0.,0.));
#752 = ADVANCED_FACE('',(#753),#769,.F.);
#753 = FACE_BOUND('',#754,.F.);
#754 = EDGE_LOOP('',(#755,#756,#762,#763));
#755 = ORIENTED_EDGE('',*,*,#650,.T.);
#756 = ORIENTED_EDGE('',*,*,#757,.T.);
#757 = EDGE_CURVE('',#653,#725,#758,.T.);
#758 = LINE('',#759,#760);
#759 = CARTESIAN_POINT('',(-117.735725,82.713661,1.5));
#760 = VECTOR('',#761,1.);
#761 = DIRECTION('',(1.,0.,0.));
#762 = ORIENTED_EDGE('',*,*,#733,.F.);
#763 = ORIENTED_EDGE('',*,*,#764,.F.);
#764 = EDGE_CURVE('',#651,#734,#765,.T.);
#765 = LINE('',#766,#767);
#766 = CARTESIAN_POINT('',(-117.735725,82.713661,0.));
#767 = VECTOR('',#768,1.);
#768 = DIRECTION('',(1.,0.,0.));
#769 = PLANE('',#770);
#770 = AXIS2_PLACEMENT_3D('',#771,#772,#773);
#771 = CARTESIAN_POINT('',(-117.735725,82.713661,0.));
#772 = DIRECTION('',(0.,1.,0.));
#773 = DIRECTION('',(1.,0.,0.));
#774 = ADVANCED_FACE('',(#775,#781),#787,.F.);
#775 = FACE_BOUND('',#776,.F.);
#776 = EDGE_LOOP('',(#777,#778,#779,#780));
#777 = ORIENTED_EDGE('',*,*,#552,.T.);
#778 = ORIENTED_EDGE('',*,*,#583,.T.);
#779 = ORIENTED_EDGE('',*,*,#614,.T.);
#780 = ORIENTED_EDGE('',*,*,#636,.T.);
#781 = FACE_BOUND('',#782,.T.);
#782 = EDGE_LOOP('',(#783,#784,#785,#786));
#783 = ORIENTED_EDGE('',*,*,#677,.T.);
#784 = ORIENTED_EDGE('',*,*,#709,.T.);
#785 = ORIENTED_EDGE('',*,*,#741,.T.);
#786 = ORIENTED_EDGE('',*,*,#764,.F.);
#787 = PLANE('',#788);
#788 = AXIS2_PLACEMENT_3D('',#789,#790,#791);
#789 = CARTESIAN_POINT('',(-4.134517519112,2.846815459785,0.));
#790 = DIRECTION('',(0.,0.,1.));
#791 = DIRECTION('',(1.,0.,0.));
#792 = ADVANCED_FACE('',(#793,#799),#805,.T.);
#793 = FACE_BOUND('',#794,.T.);
#794 = EDGE_LOOP('',(#795,#796,#797,#798));
#795 = ORIENTED_EDGE('',*,*,#536,.T.);
#796 = ORIENTED_EDGE('',*,*,#567,.T.);
#797 = ORIENTED_EDGE('',*,*,#598,.T.);
#798 = ORIENTED_EDGE('',*,*,#629,.T.);
#799 = FACE_BOUND('',#800,.F.);
#800 = EDGE_LOOP('',(#801,#802,#803,#804));
#801 = ORIENTED_EDGE('',*,*,#660,.T.);
#802 = ORIENTED_EDGE('',*,*,#693,.T.);
#803 = ORIENTED_EDGE('',*,*,#724,.T.);
#804 = ORIENTED_EDGE('',*,*,#757,.F.);
#805 = PLANE('',#806);
#806 = AXIS2_PLACEMENT_3D('',#807,#808,#809);
#807 = CARTESIAN_POINT('',(-4.134517519112,2.846815459785,1.5));
#808 = DIRECTION('',(0.,0.,1.));
#809 = DIRECTION('',(1.,0.,0.));
#810 = ( GEOMETRIC_REPRESENTATION_CONTEXT(3) 
GLOBAL_UNCERTAINTY_ASSIGNED_CONTEXT((#814)) GLOBAL_UNIT_ASSIGNED_CONTEXT
((#811,#812,#813)) REPRESENTATION_CONTEXT('Context #1',
  '3D Context with UNIT and UNCERTAINTY') );
#811 = ( LENGTH_UNIT() NAMED_UNIT(*) SI_UNIT(.MILLI.,.METRE.) );
#812 = ( NAMED_UNIT(*) PLANE_ANGLE_UNIT() SI_UNIT($,.RADIAN.) );
#813 = ( NAMED_UNIT(*) SI_UNIT($,.STERADIAN.) SOLID_ANGLE_UNIT() );
#814 = UNCERTAINTY_MEASURE_WITH_UNIT(LENGTH_MEASURE(1.E-07),#811,
  'distance_accuracy_value','confusion accuracy');
#815 = CONTEXT_DEPENDENT_SHAPE_REPRESENTATION(#816,#818);
#816 = ( REPRESENTATION_RELATIONSHIP('','',#519,#10) 
REPRESENTATION_RELATIONSHIP_WITH_TRANSFORMATION(#817) 
SHAPE_REPRESENTATION_RELATIONSHIP() );
#817 = ITEM_DEFINED_TRANSFORMATION('','',#11,#47);
#818 = PRODUCT_DEFINITION_SHAPE('Placement','Placement of an item',#819
  );
#819 = NEXT_ASSEMBLY_USAGE_OCCURRENCE('9','Pad','',#5,#514,$);
#820 = PRODUCT_RELATED_PRODUCT_CATEGORY('part',$,(#516));
#821 = SHAPE_DEFINITION_REPRESENTATION(#822,#828);
#822 = PRODUCT_DEFINITION_SHAPE('','',#823);
#823 = PRODUCT_DEFINITION('design','',#824,#827);
#824 = PRODUCT_DEFINITION_FORMATION('','',#825);
#825 = PRODUCT('Open CASCADE STEP translator 7.8 1.10',
  'Open CASCADE STEP translator 7.8 1.10','',(#826));
#826 = PRODUCT_CONTEXT('',#2,'mechanical');
#827 = PRODUCT_DEFINITION_CONTEXT('part definition',#2,'design');
#828 = GEOMETRICALLY_BOUNDED_WIREFRAME_SHAPE_REPRESENTATION('',(#11,#829
    ),#831);
#829 = GEOMETRIC_CURVE_SET('',(#830));
#830 = CARTESIAN_POINT('',(0.,0.,0.));
#831 = ( GEOMETRIC_REPRESENTATION_CONTEXT(3) 
GLOBAL_UNCERTAINTY_ASSIGNED_CONTEXT((#835)) GLOBAL_UNIT_ASSIGNED_CONTEXT
((#832,#833,#834)) REPRESENTATION_CONTEXT('Context #1',
  '3D Context with UNIT and UNCERTAINTY') );
#832 = ( LENGTH_UNIT() NAMED_UNIT(*) SI_UNIT(.MILLI.,.METRE.) );
#833 = ( NAMED_UNIT(*) PLANE_ANGLE_UNIT() SI_UNIT($,.RADIAN.) );
#834 = ( NAMED_UNIT(*) SI_UNIT($,.STERADIAN.) SOLID_ANGLE_UNIT() );
#835 = UNCERTAINTY_MEASURE_WITH_UNIT(LENGTH_MEASURE(1.E-07),#832,
  'distance_accuracy_value','confusion accuracy');
#836 = CONTEXT_DEPENDENT_SHAPE_REPRESENTATION(#837,#839);
#837 = ( REPRESENTATION_RELATIONSHIP('','',#828,#10) 
REPRESENTATION_RELATIONSHIP_WITH_TRANSFORMATION(#838) 
SHAPE_REPRESENTATION_RELATIONSHIP() );
#838 = ITEM_DEFINED_TRANSFORMATION('','',#11,#51);
#839 = PRODUCT_DEFINITION_SHAPE('Placement','Placement of an item',#840
  );
#840 = NEXT_ASSEMBLY_USAGE_OCCURRENCE('10','','',#5,#823,$);
#841 = PRODUCT_RELATED_PRODUCT_CATEGORY('part',$,(#825));
#842 = MECHANICAL_DESIGN_GEOMETRIC_PRESENTATION_REPRESENTATION('',(#843)
  ,#810);
#843 = STYLED_ITEM('color',(#844),#520);
#844 = PRESENTATION_STYLE_ASSIGNMENT((#845,#851));
#845 = SURFACE_STYLE_USAGE(.BOTH.,#846);
#846 = SURFACE_SIDE_STYLE('',(#847));
#847 = SURFACE_STYLE_FILL_AREA(#848);
#848 = FILL_AREA_STYLE('',(#849));
#849 = FILL_AREA_STYLE_COLOUR('',#850);
#850 = COLOUR_RGB('',0.447058818107,0.474509808674,0.501960817233);
#851 = CURVE_STYLE('',#852,POSITIVE_LENGTH_MEASURE(0.1),#853);
#852 = DRAUGHTING_PRE_DEFINED_CURVE_FONT('continuous');
#853 = COLOUR_RGB('',9.803921802644E-02,9.803921802644E-02,
  9.803921802644E-02);
#854 = MECHANICAL_DESIGN_GEOMETRIC_PRESENTATION_REPRESENTATION('',(#855,
    #868),#501);
#855 = STYLED_ITEM('color',(#856),#441);
#856 = PRESENTATION_STYLE_ASSIGNMENT((#857,#865));
#857 = SURFACE_STYLE_USAGE(.BOTH.,#858);
#858 = SURFACE_SIDE_STYLE('',(#859,#863));
#859 = SURFACE_STYLE_FILL_AREA(#860);
#860 = FILL_AREA_STYLE('',(#861));
#861 = FILL_AREA_STYLE_COLOUR('',#862);
#862 = COLOUR_RGB('',0.329411773243,0.670588257465,1.);
#863 = SURFACE_STYLE_RENDERING_WITH_PROPERTIES(.NORMAL_SHADING.,#862,(
    #864));
#864 = SURFACE_STYLE_TRANSPARENT(0.759999990463);
#865 = CURVE_STYLE('',#866,POSITIVE_LENGTH_MEASURE(0.1),#867);
#866 = DRAUGHTING_PRE_DEFINED_CURVE_FONT('continuous');
#867 = COLOUR_RGB('',0.945098040599,0.952941189437,0.960784305148);
#868 = STYLED_ITEM('color',(#869),#470);
#869 = PRESENTATION_STYLE_ASSIGNMENT((#870,#877));
#870 = SURFACE_STYLE_USAGE(.BOTH.,#871);
#871 = SURFACE_SIDE_STYLE('',(#872,#875));
#872 = SURFACE_STYLE_FILL_AREA(#873);
#873 = FILL_AREA_STYLE('',(#874));
#874 = FILL_AREA_STYLE_COLOUR('',#862);
#875 = SURFACE_STYLE_RENDERING_WITH_PROPERTIES(.NORMAL_SHADING.,#862,(
    #876));
#876 = SURFACE_STYLE_TRANSPARENT(0.759999990463);
#877 = CURVE_STYLE('',#878,POSITIVE_LENGTH_MEASURE(0.1),#867);
#878 = DRAUGHTING_PRE_DEFINED_CURVE_FONT('continuous');
#879 = MECHANICAL_DESIGN_GEOMETRIC_PRESENTATION_REPRESENTATION('',(#880)
  ,#359);
#880 = STYLED_ITEM('color',(#881),#69);
#881 = PRESENTATION_STYLE_ASSIGNMENT((#882,#887));
#882 = SURFACE_STYLE_USAGE(.BOTH.,#883);
#883 = SURFACE_SIDE_STYLE('',(#884));
#884 = SURFACE_STYLE_FILL_AREA(#885);
#885 = FILL_AREA_STYLE('',(#886));
#886 = FILL_AREA_STYLE_COLOUR('',#850);
#887 = CURVE_STYLE('',#888,POSITIVE_LENGTH_MEASURE(0.1),#853);
#888 = DRAUGHTING_PRE_DEFINED_CURVE_FONT('continuous');
ENDSEC;
END-ISO-10303-21;
